<svg width="249" height="246" viewBox="0 0 249 246" fill="none" xmlns="http://www.w3.org/2000/svg">
<path fill-rule="evenodd" clip-rule="evenodd" d="M3.5099 30.5296C4.79091 31.1249 6.17027 31.2905 7.53322 31.407C8.60237 31.4981 9.44157 31.9994 10.4488 32.0276C13.2539 32.1059 16.0707 32.2533 18.8621 32.7433C21.6656 33.2359 24.2479 32.5928 26.4615 35.0559C27.2495 35.9323 28.2372 36.94 27.7636 38.3546C27.5466 39.0025 27.2404 39.4672 27.0601 40.1627C26.8559 40.9489 26.6024 41.6915 26.3075 42.4399C25.7415 43.8757 22.9077 49.2226 25.2074 49.8766C27.7006 50.5855 31.0818 49.7569 33.4834 48.946C34.8848 48.4726 36.2639 47.918 37.6449 47.3715C38.7382 46.9389 40.1746 46.6937 41.182 46.0159C41.8502 45.5663 41.9886 44.799 42.4304 44.0699C43.2337 42.7435 43.9844 41.6139 45.0226 40.5102C47.1762 38.2214 49.8687 36.6672 52.5238 35.301C52.6951 35.2125 53.0081 35.0058 53.1931 34.9856C53.3929 34.9637 53.613 35.2044 53.7421 35.1752C54.0962 35.0947 54.2195 34.8344 54.607 34.577C55.1278 34.2314 57.2499 33.0815 57.621 33.9856C57.2737 32.7979 57.0202 33.1406 56.0802 33.3129C55.6663 33.3893 55.3892 33.1676 55.0173 33.1897C54.6745 33.2099 54.5338 33.4381 54.2474 33.4997C53.7229 33.6123 53.2342 33.5276 52.6866 33.5228C52.5394 33.1432 52.3306 33.146 52.0604 33.5312C51.9094 33.5883 51.7583 33.6454 51.6073 33.7028C51.0619 33.8778 50.479 33.8444 49.9207 33.8957C49.0821 33.9734 46.8967 35.1691 46.476 33.9589C46.0273 32.6666 47.3902 32.3444 47.6174 31.4426C47.8392 30.5578 46.8007 30.0386 46.3841 29.5042C45.9094 28.8967 45.6195 28.3634 45.0626 27.8281C44.7362 27.5139 44.3086 27.2209 44.0666 26.8024C43.8441 26.4173 43.8539 25.7947 43.5651 25.4738C43.2208 25.0913 43.1679 25.356 42.8549 25.1712C42.2413 24.8082 42.5124 24.8265 42.1492 24.3304C41.839 23.9061 41.6099 23.9189 41.2037 23.5938C40.6092 23.1179 40.4001 22.1879 39.8224 21.6763C39.3998 21.3018 38.7266 21.3025 38.3558 20.9135C38.1374 20.6844 38.2048 20.3131 38.016 20.0968C37.6534 19.6812 37.4051 19.85 36.9526 19.7129C36.1893 19.4819 35.9424 18.9886 35.3805 18.4174C34.8672 17.8959 34.5413 17.8981 33.8987 17.6818C33.0211 17.3866 32.454 16.6132 31.662 16.1587C30.9162 15.7313 30.1461 15.4315 29.3916 14.9761C28.8468 14.6472 28.3219 14.4431 27.8247 14.1074C27.6567 13.9941 27.6422 13.5792 27.4254 13.523C27.1766 13.4582 26.9776 13.9418 26.7128 13.9672C26.1581 14.0204 25.5267 13.3009 25.1624 12.8844C25.004 12.7034 24.79 12.214 24.5861 12.1129C24.1599 11.9011 23.9058 12.3205 23.526 12.1549C22.9929 11.9226 23.2048 11.2422 22.8781 10.8671C22.5925 10.5397 21.986 10.5619 21.4787 10.6655C19.4352 11.0821 22.6155 12.7701 23.2135 13.1116C24.2194 13.6867 31.5384 17.8702 29.826 19.9565C28.9202 21.0602 26.7085 20.2303 25.7237 19.9395C23.9971 19.4296 22.1976 18.4479 20.4268 18.2226C20.2078 18.1947 19.5547 18.3779 19.3766 18.298C18.9742 18.118 19.0746 17.7579 18.7476 17.5685C18.2551 17.2842 17.2493 17.298 16.7493 17.3619C16.3585 17.4119 15.9307 17.6847 15.5333 17.6478C15.0954 17.6071 14.6724 17.3092 14.2383 17.2133C13.4953 17.0496 12.7263 17.1298 11.9756 17.1552C10.8966 17.1921 8.73914 17.3827 10.3071 19.0592C11.576 20.4161 13.7713 21.0034 15.3721 21.5955C17.7401 22.4706 20.0664 23.2668 22.4039 24.2639C23.9968 24.943 27.3945 26.1359 25.4982 28.6814C25.311 28.4747 25.1238 28.2684 24.9371 28.0617C24.7157 28.3232 24.4874 28.8322 24.133 28.847C23.8384 28.8592 23.9467 28.4888 23.6682 28.373C22.792 28.0097 21.5916 28.0373 20.668 27.969C18.3543 27.7976 16.0491 27.4391 13.7324 27.3281C11.5505 27.2235 9.34564 27.3595 7.20653 27.8945C6.6562 28.0322 1.5262 29.6076 3.5099 30.5296ZM22.4297 56.7049C22.3135 57.8412 22.7446 58.7604 22.8644 59.8579C23.0091 61.1849 22.903 62.3537 23.2248 63.673C23.8502 66.2375 24.2947 68.861 24.9659 71.4104C26.151 75.912 28.0643 79.8876 30.0318 83.9719C31.0355 86.0544 32.547 87.7739 33.9283 89.5158C35.3436 91.3008 36.4746 93.0578 38.1667 94.5235C41.5482 97.4528 45.1971 100.058 49.2002 101.641C53.3904 103.298 57.7969 103.8 62.1982 103.589C64.1515 103.495 66.2218 103.727 68.1441 103.357C70.1881 102.964 72.4029 102.482 74.4118 101.901C78.0994 100.837 81.6521 99.0298 85.2534 97.4159C89.2754 95.6133 92.8961 93.3123 96.5637 90.7129C97.5339 90.0251 98.5594 89.7039 99.4694 88.8714C100.236 88.1702 100.991 87.4995 101.798 86.8589C102.724 86.124 103.61 85.3204 104.556 84.6221C105.121 84.2046 105.917 83.796 106.213 83.0403C106.621 82.0008 106.13 80.6953 105.875 79.687C105.544 78.3744 105.192 77.0782 104.793 75.7916C104.119 73.6132 102.404 70.2529 103.347 67.9496C105.337 69.3909 106.214 72.2233 107.064 74.6315C108.08 77.5082 108.789 80.3782 108.942 83.4982C109.25 89.7748 108.351 96.381 106.404 102.233C106.114 103.102 105.606 104.045 105.98 104.975C106.372 105.95 107.435 106.774 108.253 107.196C110.84 108.53 113.437 108.919 116.138 109.657C116.874 109.858 117.679 110.461 118.369 110.537C118.835 110.588 119.22 110.41 119.754 110.414C120.29 110.418 120.709 110.769 121.188 110.807C121.607 110.84 121.978 110.553 122.377 110.58C123.271 110.641 123.435 112.431 123.878 110.855C123.958 110.92 124.402 111.508 124.457 111.508C124.584 111.509 124.806 111.07 124.927 110.992C125.162 110.84 125.471 110.831 125.733 110.792C126.312 110.704 126.937 110.695 127.507 110.85C128.565 111.138 129.629 111.017 130.533 110.996C130.739 110.991 130.885 111.185 131.14 111.174C131.257 111.168 131.425 110.927 131.548 110.89C132.263 110.674 133.006 110.835 133.734 110.788C135.445 110.678 137.097 110.624 138.768 110.182C142.192 109.276 145.683 109.094 149.121 108.265C150.872 107.843 152.583 107.612 154.308 107.055C154.914 106.86 155.535 106.767 156.072 106.5C156.585 106.245 156.383 105.905 157.179 106.588C157.537 105.563 157.579 105.667 158.442 105.329C158.776 105.197 159.543 104.872 159.791 104.614C159.816 104.588 160.347 103.028 160.393 102.836C160.614 101.905 160.43 100.84 160.338 99.9018C160.129 97.7879 159.828 95.6907 159.81 93.5601C159.802 92.6201 159.657 92.5931 159.407 91.8849C159.33 91.6654 159.102 91.6827 159.083 91.3483C159.058 90.9028 159.448 90.5928 159.406 90.0723C159.35 89.3724 158.749 88.6631 158.538 88.0107C158.284 87.2251 158.287 86.3945 158.136 85.5813C157.933 84.4998 157.542 83.4844 157.345 82.3984C157.177 81.4784 157.161 80.7467 156.742 79.9575C156.323 79.1696 156.447 78.5262 156.113 77.7416C155.806 77.022 155.419 76.7637 155.209 75.8947C154.701 73.7926 153.929 71.7111 152.836 69.929C151.874 74.3979 150.851 79.0146 148.173 82.547C147.07 84.0014 145.646 85.469 143.983 85.9119C142.103 86.4128 140.599 85.116 139.375 83.5798C136.457 79.9187 135.249 75.8324 135.073 70.8684C135.029 69.6348 135.035 68.3989 135.049 67.1643C135.056 66.6149 135.297 65.2048 134.975 64.743C134.622 64.2366 133.615 64.553 133.09 64.2189C132.446 63.8078 131.737 62.708 132.025 61.8011C130.307 62.7109 128.664 63.9083 126.753 64.1618C125.997 64.2622 125.191 64.1095 124.515 64.0671C124.535 64.0684 123.991 64.198 123.958 64.2067C123.824 64.0257 123.679 63.9817 123.523 64.0748C123.384 64.0918 123.283 64.1791 123.219 64.3367C120.496 64.6547 117.753 63.0812 115.422 61.4144C114.06 60.4404 112.564 58.9985 112.182 57.1025C112.046 56.426 112.164 55.7886 111.565 55.4433C111.079 55.1625 110.141 55.5675 109.629 55.6115C107.825 55.7662 106.047 55.5659 104.286 56.1946C103.211 56.5781 101.335 59.2665 100.586 57.3753C100.261 57.7321 100.437 58.3676 100.091 58.7148C99.7892 59.0174 98.7749 59.2305 98.3577 59.4895C97.7115 59.8903 97.3324 60.4237 96.7668 60.9054C96.0717 61.4975 95.3441 61.5431 94.6712 62.2379C92.3408 64.6441 89.6108 66.387 87.0088 68.3825C83.9214 70.75 81.1893 73.5404 77.8766 75.4714C74.4883 77.4457 71.2098 79.0952 67.5074 80.1225C65.828 80.5884 64.1057 80.9774 62.3815 81.1212C61.5684 81.1886 60.7925 81.1545 60.0081 81.4398C59.5318 81.6131 59.3777 81.6998 58.9096 81.7158C58.6369 81.7251 58.2423 81.5409 57.9063 81.548C57.2164 81.5628 56.864 81.5294 56.2413 81.7964C55.5369 82.0981 54.9513 82.2797 54.1491 82.3057C53.2263 82.3359 52.6831 81.9215 51.8447 81.6661C51.1691 81.4601 50.5607 81.5583 49.9561 81.1305C47.2688 79.2297 45.1095 76.3269 43.7002 73.0314C42.0821 69.2493 40.8356 64.639 40.5821 60.4006C40.4368 57.9744 40.8945 55.6086 41.6869 53.3814C41.9105 52.753 43.2521 50.0769 42.8388 49.5907C42.3699 49.0384 40.8356 50.3044 40.4031 50.5794C39.0309 51.4514 36.5525 51.7309 35.5905 53.1978C35.3457 52.6481 33.9833 53.4629 33.5462 53.6924C33.1847 53.882 33.0822 54.2251 32.6275 54.2662C32.1989 54.3047 31.7565 53.9051 31.3627 53.7777C31.6505 54.7168 30.6827 54.7607 30.0195 54.8105C29.5421 54.8464 29.0287 54.7585 28.6034 54.7232C27.7894 54.6555 27.7762 54.4417 27.0327 53.9539C27.0617 54.3111 27.0286 54.66 26.9337 55.0008C26.456 54.1917 25.5442 54.7537 24.8988 54.3981C25.3652 53.5701 23.373 53.3435 22.909 53.5175C21.7412 53.9562 22.533 55.6981 22.4297 56.7049ZM113.881 113.609C113.111 113.341 112.335 113.095 111.562 112.838C112.148 113.466 112.756 114.6 113.592 114.777C114.6 114.99 114.998 113.998 113.881 113.609ZM151.927 114.059C150.63 114.241 149.217 114.102 148.08 114.998C148.634 115.743 148.994 116.524 149.918 116.096C150.695 115.737 151.334 114.713 151.927 114.059ZM108.582 154.881C109.434 153.987 109.322 153.588 108.922 152.431C108.75 151.934 108.477 150.387 107.831 150.841C107.602 151.001 107.324 152.686 107.283 153.028C107.191 153.791 107.595 155.916 108.582 154.881ZM103.777 149.693C104.078 148.399 104.068 146.991 104.364 145.666C104.676 144.267 105.06 142.863 105.17 141.417C100.669 142.347 98.1124 147.571 96.1627 151.93C95.1267 154.247 94.1111 156.808 93.7202 159.398C93.339 161.921 94.0006 163.837 94.7691 166.086C95.1607 167.234 95.8083 167.632 96.5642 168.391C97.2341 169.063 97.4851 170.197 98.1829 170.801C98.6984 171.247 99.3688 171.479 99.9079 171.93C100.441 172.374 100.973 172.816 101.523 173.231C102.152 173.706 104.035 175.438 104.884 175.068C105.519 174.792 105.236 173.883 105.076 173.313C104.739 172.112 104.502 170.955 104.294 169.702C103.739 166.361 103.438 163.04 103.294 159.642C103.153 156.323 103.022 152.932 103.777 149.693ZM107.542 164.764C107.475 164.928 107.193 166.331 107.821 166.043C108.257 165.842 107.606 165.022 107.542 164.764ZM104.89 109.068C104.359 108.812 104.146 109.571 103.679 109.594C103.059 109.623 102.929 108.817 102.278 108.794C100.688 108.735 98.3827 110.533 97.0894 111.471C97.7227 112.407 97.9839 113.364 97.669 114.517C97.3914 115.533 96.3315 116.668 96.3705 117.744C96.4102 118.823 97.5572 119.518 97.9148 120.478C98.2435 121.36 98.369 123.123 97.3541 123.511C95.6088 124.18 95.2095 120.357 93.8869 120.328C93.3215 120.315 92.5867 121.559 92.1799 121.946C91.2692 122.812 90.242 123.446 89.183 124.021C88.468 124.41 87.4725 125.175 86.9425 124.131C86.5177 123.295 86.8647 121.97 87.2777 121.25C87.7513 120.425 91.9963 116.646 91.7283 116.314C91.5855 116.136 90.5284 116.626 90.3785 116.774C90.0403 117.109 89.9159 117.654 89.5766 118.011C89.0589 118.556 88.3899 118.772 87.7496 119.024C86.4135 119.549 85.5678 121.395 84.2728 122.256C83.5257 122.752 83.0696 123.704 82.4376 124.442C81.6105 125.407 80.7674 126.419 80.8919 127.841C80.9782 128.826 81.1035 131.122 81.5798 131.953C82.0972 132.855 82.9578 132.509 83.7438 132.722C84.628 132.962 85.3354 133.769 85.1594 134.921C84.9766 136.119 84.1571 136.205 83.3009 136.235C80.8867 136.321 81.7758 138.113 80.9338 140.082C80.4764 141.152 79.7134 141.571 79.1883 140.32C78.7657 139.313 79.5207 137.725 79.0619 136.865C78.5031 135.818 75.5119 136.103 74.8881 136.916C74.4153 137.534 74.1646 138.382 73.6932 139.028C72.9773 140.008 72.6832 141.382 72.2538 142.584C71.7977 143.86 71.4001 145.155 71.0509 146.476C70.8056 147.405 70.2758 148.876 71.5442 148.083C72.43 147.529 73.0919 146.279 74.2142 146.24C75.3247 146.201 75.9573 147.549 75.6328 148.722C75.3192 149.857 73.8878 150.357 73.722 151.507C73.54 152.766 75.3836 154.05 75.9433 154.976C77.2325 157.107 76.1543 159.506 74.0415 157.697C73.2925 157.056 72.5081 155.762 71.6634 155.357C70.3268 154.716 70.3347 157.092 69.6945 157.966C69.3497 158.436 69.2253 157.958 69.4295 158.661C69.5049 158.92 69.8864 159.001 69.9294 159.323C69.9604 159.559 69.7795 159.684 69.7732 159.867C69.7521 160.486 69.751 160.577 69.8702 161.251C70.0017 161.997 69.9541 162.924 69.9935 163.683C70.0848 165.416 70.1042 167.072 70.2599 168.804C70.3463 169.768 70.5274 171.733 69.5539 172.203C69.9003 172.838 70.3619 174.604 71.0429 174.471C70.9876 174.889 71.0186 175.423 70.6713 175.697C70.5883 175.442 70.5052 175.187 70.4225 174.932C70.2317 175.515 70.3994 175.582 70.4107 175.979C70.3967 175.487 70.7941 176.664 70.5792 176.518C70.762 176.697 71.0029 176.799 71.2778 177.03C71.6615 177.353 71.8638 177.799 72.1617 178.236C72.7008 179.025 72.6695 179.823 73.1415 180.646C73.811 181.814 74.6702 182.967 75.3754 184.134C75.9496 185.084 77.0439 185.631 77.5041 186.653C77.7968 187.302 77.9133 188.057 78.4127 188.514C79.1277 189.168 80.0836 189.784 80.8604 190.46C81.3487 190.884 81.7204 191.474 82.2077 191.886C82.4546 192.095 83.1976 192.306 83.1987 192.731C84.1338 192.425 84.796 191.308 85.5313 190.628C86.0227 190.174 87.193 189.584 87.1223 188.673C87.0642 187.928 86.1587 187.004 85.9501 186.223C85.773 185.561 85.5267 184.327 86.0159 183.761C87.0428 182.576 88.207 185.121 88.7582 185.798C89.8953 187.196 90.3785 185.787 91.3133 184.772C92.8067 183.151 93.7454 184.833 93.2198 186.851C92.9534 187.873 91.9396 188.784 91.8741 189.827C91.8017 190.974 92.864 191.55 93.2845 192.466C93.6816 193.33 93.8649 194.848 93.1186 195.563C92.2956 196.351 91.58 195.418 91.0417 194.69C90.6238 194.125 90.1592 192.881 89.4801 192.81C88.6297 192.722 87.2346 194.528 86.5876 195.086C87.5707 195.418 88.1624 196.381 88.9936 196.998C90.0663 197.794 91.5636 197.982 92.764 198.528C93.8948 199.043 94.9121 199.462 95.989 200.101C97.2667 200.858 98.8297 201.047 100.183 201.599C101.391 202.092 102.536 202.783 103.77 203.189C105.161 203.648 106.604 203.924 108.007 204.338C109.205 204.692 110.612 205.032 111.847 205.035C113.097 205.037 113.071 204.132 113.471 202.927C113.946 201.494 114.732 200.237 115.234 198.84C115.711 197.511 114.99 197.006 114.299 195.989C113.648 195.03 113.82 194.881 112.981 195.554C111.875 196.439 111.145 195.84 110.285 194.822C109.52 193.916 109.239 193.163 108.138 193.794C107.036 194.425 105.986 195.452 104.803 195.863C103.87 196.187 103.176 195.952 103.019 194.759C102.851 193.47 103.479 192.555 104.271 191.79C104.874 191.208 106.191 190.517 106.412 189.572C106.644 188.577 105.421 187.125 105.29 186.012C105.126 184.607 105.643 183.574 106.783 184.547C107.61 185.252 108.16 186.782 109.308 186.877C108.99 185.313 108.298 183.923 107.705 182.49C107.207 181.29 106.781 179.928 105.446 179.794C105.013 179.75 104.731 179.803 104.319 179.716C103.773 179.602 103.034 179.51 102.451 179.338C101.079 178.933 99.8681 177.695 98.6055 176.985C98.3158 177.896 97.8036 180.491 96.6245 178.976C95.7524 177.855 96.7185 175.927 95.9152 174.68C94.2579 172.108 90.6482 173.997 88.471 172.67C87.5232 172.093 86.7515 170.252 88.0881 169.697C88.8689 169.372 91.124 170.57 91.5937 169.687C91.9286 169.057 90.5251 166.598 90.3555 165.922C89.8276 163.818 89.9134 161.634 89.9134 159.467C88.8539 159.974 87.5131 161.16 86.3713 161.323C85.1975 161.489 84.9911 159.877 85.2986 158.819C85.7226 157.36 87.1354 156.165 88.1037 155.225C88.5307 154.811 89.6484 154.144 89.8824 153.515C90.1242 152.864 89.778 152.55 89.5067 151.984C89.083 151.101 88.0563 148.819 89.1734 147.991C90.2012 147.23 90.7778 149.364 91.4326 149.82C92.5436 150.594 92.9243 148.82 93.3661 147.917C94.1678 146.278 95.2791 144.815 96.2765 143.34C97.1847 141.998 97.7441 141.089 97.8767 139.379C97.9771 138.083 98.2037 137.08 96.8972 136.785C94.5808 136.263 91.1895 137.549 89.308 135.345C88.3211 134.19 89.026 132.995 90.2722 133.054C91.9089 133.133 93.4651 133.227 95.1125 133.072C95.9881 132.989 97.8189 133.238 98.261 132.182C98.8302 130.823 97.8652 128.64 98.913 127.449C100.251 125.928 100.579 129.365 100.623 130.314C100.656 131.005 100.504 132.058 100.872 132.656C101.215 133.214 101.843 133.206 102.35 133.408C103.629 133.916 104.29 135.753 102.593 136.142C102.023 136.273 101.227 136.083 100.753 136.578C100.256 137.095 100.446 138.016 100.399 138.714C101.587 137.103 104.058 137.817 105.667 137.218C106.514 136.903 106.658 136.484 107.014 135.524C107.446 134.362 108.429 132.893 108.467 131.608C108.499 130.518 107.722 129.697 107.36 128.757C107.048 127.951 106.767 126.638 106.813 125.732C106.924 123.549 110.292 125.778 110.986 126.613C112.245 128.129 113.797 130.09 113.114 132.237C112.506 134.154 112.183 135.24 114.295 135.089C115.068 135.034 116.692 135.213 117.292 134.831C117.737 134.548 117.57 134.04 117.584 133.304C117.597 132.666 117.556 131.699 117.906 131.142C119.138 129.181 119.426 134.06 120.118 134.588C121.198 135.415 123.487 134.548 123.31 137.001C123.155 139.147 120.675 138.271 119.989 140.117C119.659 141.007 119.729 142.042 119.313 142.9C118.72 144.123 117.99 144.058 117.597 142.783C117.321 141.887 117.689 140.967 117.477 140.121C117.17 138.899 115.71 139.012 114.811 138.874C113.719 138.706 112.767 138.385 111.729 137.992C110.447 137.507 110.517 138.303 110.309 139.456C110.067 140.793 109.697 142.082 109.47 143.439C109.258 144.704 108.697 146.066 108.606 147.331C108.536 148.299 108.816 148.211 109.502 148.769C110.251 149.379 111.075 150.966 111.944 151.227C113.251 151.619 114.569 148.124 115.759 149.913C116.27 150.68 116.072 152.315 115.708 153.108C115.229 154.156 114.347 154.423 115.086 155.624C115.642 156.525 116.34 157.224 116.392 158.438C116.441 159.565 115.786 160.63 114.761 160.299C113.934 160.032 113.445 159.041 112.818 158.439C111.736 157.4 110.848 158.363 109.741 158.951C108.869 159.414 107.267 159.716 106.83 160.804C106.275 162.186 106.987 162.72 108.018 162.327C107.616 163.872 108.145 164.769 108.29 166.365C108.407 167.658 108.661 168.84 108.823 170.089C109.038 171.758 109.061 171.577 110.529 171.633C111.776 171.682 112.989 171.642 114.234 171.579C115.332 171.522 116.078 171.638 116.128 170.089C116.149 169.406 115.781 167.089 116.933 167.367C117.947 167.612 117.655 169.729 117.994 170.525C118.485 171.676 119.315 171.324 120.239 171.609C121.179 171.898 121.938 172.709 121.696 173.963C121.437 175.302 120.388 175.208 119.476 175.518C118.072 175.994 118.38 178.41 117.561 179.722C117.226 180.257 116.874 180.798 116.313 180.359C115.283 179.553 116.255 177.584 115.983 176.596C115.697 175.557 114.732 175.77 113.82 175.635C112.474 175.437 111.065 174.677 109.724 174.687C109.981 175.592 110.702 176.118 110.961 177.07C111.1 177.581 110.97 178.535 111.163 178.957C111.371 179.411 112.025 179.547 112.296 180.178C112.65 181.005 112.759 181.89 113.173 182.699C114.153 184.614 114.997 186.571 116.038 188.465C117.113 190.422 118.272 192.284 119.624 193.98C120.937 195.626 121.328 194.829 122.456 193.484C122.915 192.936 123.889 192.302 124.017 191.485C124.143 190.678 123.573 190.021 123.261 189.364C122.847 188.495 122.1 186.997 122.281 185.954C122.623 183.993 124.122 185.798 124.69 186.532C125.682 187.814 126.237 189.162 127.736 188.149C128.696 187.501 129.907 185.726 131.167 186.383C132.314 186.98 131.993 188.706 131.287 189.582C130.892 190.072 130.328 190.353 129.909 190.812C129.007 191.802 129.517 192.07 129.93 193.179C130.267 194.086 130.316 195.87 129.694 196.626C128.471 198.113 127.525 195.113 126.39 195.052C125.852 195.023 123.615 196.74 123.456 197.358C123.176 198.442 125.589 199.737 126.23 200.246C127.721 201.429 129.346 202.636 131.024 203.421C133.004 204.347 131.528 201.428 132.61 200.459C134.018 199.197 134.127 202.653 134.271 203.512C134.655 205.795 136.718 205.855 138.382 206.421C139.442 206.782 140.502 207.165 141.573 207.479C142.481 207.745 143.498 207.738 144.379 208.068C145.151 208.357 145.679 208.944 146.543 208.95C146.824 208.953 147.068 208.841 147.339 208.834C147.885 208.818 148.386 209.183 148.908 209.146C149.776 209.082 149.398 208.762 149.7 208.054C149.984 207.389 150.706 207.145 151.267 206.937C152.877 206.342 154.218 206.863 154.452 204.469C154.523 203.734 154.429 200.716 155.624 201.069C157.021 201.48 155.792 205.068 156.659 205.967C157.081 206.404 157.718 206.186 158.227 206.315C159.062 206.527 159.427 207.265 160.341 207.215C161.112 207.174 161.83 206.774 162.502 206.376C163.504 205.783 164.699 205.39 165.534 204.486C166.679 203.246 167.181 201.315 167.669 199.639C168.387 197.17 168.693 194.71 168.809 192.12C168.849 191.218 169.177 190.581 169.314 189.753C169.459 188.872 169.029 188.696 168.93 187.861C168.833 187.05 168.88 186.184 168.734 185.315C168.525 184.065 168.451 182.786 168.248 181.533C167.911 179.459 167.401 177.4 166.982 175.346C166.852 174.708 166.616 172.662 165.942 172.465C165.445 172.32 164.298 173.185 163.837 173.44C162.926 173.942 162.144 174.636 161.169 174.984C160.666 175.163 160.032 175.145 159.702 175.691C159.18 176.555 159.602 178.247 159.386 179.268C159.121 180.518 158.245 181.049 157.539 179.794C157.163 179.125 157.263 178.327 157.213 177.587C157.141 176.52 157.124 176.262 156.137 176.334C155.137 176.407 154.161 176.849 153.136 176.902C152.211 176.95 151.283 176.921 150.359 176.862C148.116 176.718 146.065 176.291 143.962 175.358C142.537 174.725 140.885 173.342 139.315 173.391C137.098 173.46 137.698 175.859 137.395 177.654C137.21 178.747 135.648 182.1 135.047 179.379C134.751 178.032 135.74 176.069 135.154 174.854C134.462 173.417 131.918 174.609 130.761 174.276C129.824 174.007 128.259 172.454 128.92 171.114C129.234 170.48 129.842 170.6 130.385 170.553C131.413 170.463 132.434 170.299 133.454 170.123C134.034 170.023 134.92 169.965 135.152 169.186C135.349 168.525 134.426 166.81 134.226 166.177C133.564 164.083 133.325 162.38 133.322 160.096C133.321 159.067 133.264 157.981 133.405 156.963C133.457 156.59 133.936 155.372 133.712 155.016C133.41 154.536 132.793 155.145 132.546 155.504C132.054 156.22 132.225 156.163 132.505 156.905C132.916 157.996 133.716 160.285 132.359 161.125C130.94 162.003 130.427 159.034 129.083 159.36C128.456 159.512 127.837 160.476 127.332 160.926C126.741 161.453 126.102 162.013 125.407 162.336C124.267 162.867 122.985 162.469 123.446 160.792C123.809 159.47 124.959 158.363 125.781 157.426C127.09 155.932 127.031 155.305 126.126 153.546C125.747 152.809 124.294 149.683 125.979 149.429C126.87 149.294 127.835 150.985 128.306 151.632C129.114 152.743 129.578 153.219 130.781 152.328C131.956 151.456 132.502 150.728 133.924 150.648C135.56 150.555 136.297 147.68 137.164 146.204C139.52 142.194 143.128 140.21 146.17 137.137C147.653 135.64 148.653 133.681 149.781 131.837C150.318 130.959 151.011 130.23 151.448 129.273C151.723 128.671 152.469 127.221 152.275 126.511C152.033 125.627 150.73 125.082 150.187 124.458C149.732 123.934 149.489 123.281 148.773 123.481C148.136 123.659 147.562 124.668 147.041 125.111C146.529 125.546 145.953 125.95 145.385 126.275C144.36 126.863 143.122 127.178 143.062 125.388C143.009 123.841 144.216 122.183 145.088 121.139C145.723 120.379 146.685 119.718 146.559 118.512C146.497 117.913 146.062 116.848 145.808 116.346C144.934 114.618 142.264 115.672 140.813 115.783C139.065 115.917 137.138 115.574 135.748 117.02C135.295 117.492 134.245 118.418 134.022 119.075C133.763 119.839 134.186 120.183 134.421 120.923C134.725 121.878 134.934 123.766 134.059 124.425C132.6 125.525 131.839 122.262 130.321 122.976C128.882 123.653 127.877 125.598 126.234 125.906C124.085 126.309 125.309 123.194 126.052 122.277C127.017 121.088 128.888 119.859 128.275 118.102C128.101 117.6 127.701 116.552 127.341 116.24C126.637 115.629 125.502 115.965 124.696 115.975C122.661 116 120.741 115.804 118.747 115.388C118.146 115.263 118.009 115.164 117.585 115.687C116.999 116.412 116.691 117.356 116.009 118.068C116.994 119.31 118.455 120.776 117.77 122.688C117.18 124.334 115.888 123.527 115.013 122.648C114.603 122.235 114.178 121.361 113.634 121.196C112.928 120.981 112.134 121.731 111.555 122.112C110.687 122.685 108.83 124.381 107.844 123.379C106.54 122.055 108.083 120.062 108.982 119.244C109.525 118.749 110.249 118.396 110.706 117.786C111.315 116.973 110.958 116.854 110.589 116.121C109.914 114.782 110.162 113.056 109.082 112.009C108.484 111.428 107.628 111.063 106.945 110.638C106.272 110.219 105.55 109.387 104.89 109.068ZM93.8921 114.28C94.1546 114.092 94.4172 113.904 94.6795 113.716C94.0795 113.373 93.6835 113.414 93.8921 114.28ZM79.4094 130.562C79.3036 129.936 78.8912 128.818 78.3233 129.403C77.9577 129.779 78.357 131.191 77.4871 130.8C77.4425 131.7 78.0153 131.623 77.1703 132.423C78.2364 132.279 79.7082 132.335 79.4094 130.562ZM120.793 206.384C120.524 205.542 120.527 204.235 119.7 205.005C119.657 203.985 119.863 200.751 118.28 200.882C117.634 200.935 117.641 201.601 117.47 202.178C117.173 203.185 116.67 204.102 116.247 205.039C117.819 205.114 119.391 205.534 120.793 206.384ZM120.278 218.011C119.38 218.804 118.93 217.867 118.082 217.525C117.3 217.21 116.487 217.399 115.621 217.175C114.545 216.897 113.279 216.939 112.229 216.929C111.97 216.926 111.429 216.974 111.167 217.009C110.691 217.073 110.733 217.188 110.24 217.343C110.05 217.292 109.857 217.255 109.663 217.231C109.425 217.219 109.237 217.334 109.1 217.577C108.656 217.75 108.495 217.635 108.07 217.756C107.059 218.045 106.304 218.757 105.644 219.702C104.299 221.625 104.259 224.514 104.289 226.894C104.298 227.572 104.343 228.246 104.278 228.922C104.22 229.542 103.845 230.479 103.998 231.096C104.23 232.029 104.949 231.819 105.785 231.861C106.278 231.885 106.769 232.257 107.161 232.29C107.54 232.322 107.693 232.158 108.077 232.058C109.078 231.796 110.259 232.169 111.246 232.488C112.26 232.815 113.148 233.138 114.175 233.369C114.844 233.519 115.446 233.605 116.12 233.704C116.673 233.785 116.912 234.125 117.394 234.265C117.859 234.4 118.313 234.198 118.782 234.304C119.422 234.449 119.868 234.998 120.452 235.271C121.255 235.648 122.54 235.085 122.896 236.247C123.035 235.126 123.955 235.431 124.639 235.332C125.767 235.168 126.878 234.577 127.962 234.2C128.852 233.89 131.927 231.04 132.515 232.197C132.515 232.08 132.408 231.418 132.501 231.341C132.829 231.072 132.826 231.22 133.179 231.051C133.72 230.793 133.948 230.559 134.334 230.124C135.115 229.244 136.166 228.783 136.989 227.984C139.056 225.978 139.764 221.845 140.268 218.968C140.928 220.335 140.685 218.58 140.571 217.994C140.301 216.61 140.648 215.928 140.727 214.592C140.799 213.362 140.32 213.119 139.371 212.991C138.201 212.832 137.076 212.611 135.93 212.27C134.837 211.944 133.765 211.576 132.778 210.928C131.875 210.334 130.927 210.101 130.003 209.582C128.985 209.009 127.986 208.406 126.958 207.848C126.495 207.597 124.455 205.797 124.101 205.907C123.374 206.132 124.06 207.621 124.282 208.011C124.852 209.014 125.787 209.48 126.63 210.111C127.391 210.68 129.698 213.376 127.356 213.105C125.804 212.926 124.752 211.024 123.759 213.192C123.409 213.957 122.893 214.572 123.296 215.363C123.859 216.466 125.482 216.992 126.333 217.735C127.058 218.368 128.542 221.352 127.046 221.672C126.617 221.764 125.954 221.645 125.634 221.254C125.419 220.99 125.434 220.448 125.216 220.268C124.907 220.012 124.307 220.329 123.954 220.189C123.451 219.989 123.334 219.668 123.149 219.104C122.612 219.39 122.605 219.774 121.992 219.405C121.789 219.282 121.714 218.833 121.479 218.713C121.163 218.552 121.069 219.08 120.895 219.002C120.425 218.791 120.427 218.554 120.278 218.011ZM152.49 209.234C153.39 209.313 154.373 209.397 155.141 208.727C154.208 208.793 153.385 209.039 152.45 208.813C152.078 208.724 151.483 208.313 151.102 208.456C149.749 208.964 152.13 209.202 152.49 209.234ZM154.99 116.655C155.003 116.285 155.272 111.305 153.817 113.261C153.418 113.796 153.848 114.513 153.905 115.105C154 116.103 153.701 117.102 153.252 117.942C152.833 118.725 152.05 119.411 152.167 120.433C152.27 121.329 153.043 122.094 153.424 122.838C154.362 121.11 154.914 118.734 154.99 116.655ZM158.188 64.3884C161.559 64.803 164.913 65.5372 168.164 66.6701C171.355 67.7824 174.33 69.5215 177.329 71.1874C177.947 68.0927 178.594 65.0061 179.205 61.9092C179.499 60.4186 179.779 58.9243 180.054 57.4285C180.25 56.365 180.962 54.3824 180.664 53.3362C180.507 52.7819 180.299 52.7797 179.96 52.4373C179.753 52.2283 179.392 51.7174 179.177 51.608C178.654 51.3423 177.312 51.1093 176.777 51.1471C176.289 51.1815 176.035 51.4081 175.533 51.2441C175.106 51.1045 174.747 50.7203 174.346 50.5095C173.327 49.9732 172.053 49.7935 170.963 49.5098C169.913 49.2367 168.829 49.1761 167.777 48.9055C166.855 48.6684 166.418 47.875 165.632 47.9036C163.586 47.9784 161.324 47.6982 159.294 47.1267C157.017 46.4855 154.539 46.6093 152.203 46.5407C151.272 46.5134 150.618 46.2685 150.613 47.4803C150.608 48.9594 151.113 50.6196 151.371 52.0634C151.942 55.2646 152.426 58.3762 152.643 61.6268C152.751 63.2526 153.321 63.139 154.451 63.6377C155.709 64.1926 156.85 64.224 158.188 64.3884ZM175.913 97.2311C175.082 97.3745 175.177 94.7176 175.116 94.1775C173.136 98.5452 170.905 102.748 169.16 107.259C168.753 108.314 168.382 109.393 167.951 110.435C167.656 111.149 166.996 112.107 167.012 112.937C167.029 113.803 167.627 114.127 168.258 114.448C168.939 114.795 169.205 114.968 169.686 114.567C170.267 114.081 170.752 112.585 171.111 111.863C171.659 110.762 172.184 109.645 172.721 108.536C173.694 106.526 174.842 104.601 175.641 102.491C176.39 100.514 177.522 98.8135 178.329 96.8717C179.128 94.9484 180.222 93.1252 181.141 91.243C180.218 90.794 179.068 89.6724 178.02 89.7347C176.937 89.7992 176.963 91.0213 176.917 92.0396C176.867 93.1204 177.176 97.0125 175.913 97.2311ZM173.253 116.964C173.747 117.649 174.861 118.052 175.544 118.432C176.49 118.958 177.459 119.427 178.401 119.964C181.49 121.727 184.567 123.341 187.715 124.96C189.342 125.796 190.949 126.686 192.537 127.62C193.368 128.109 195.201 129.824 196.158 129.867C197.255 129.917 197.28 127.327 197.522 126.355C197.725 125.542 198.102 124.909 198.356 124.139C198.459 123.824 198.379 123.585 198.536 123.273C198.715 122.918 199.218 122.632 199.476 122.325C200.572 121.023 201.481 119.366 202.407 117.899C203.255 116.555 204.702 114.873 205.109 113.226C205.909 109.989 201.261 108.198 199.482 106.897C196.369 104.62 193.24 102.281 190.272 99.7513C188.92 98.5989 187.596 97.4008 186.237 96.2587C185.603 95.726 183.846 93.6528 183.032 94.3913C182.729 94.6666 182.723 95.4275 182.596 95.8264C182.32 96.698 181.901 97.4593 181.475 98.241C181.098 98.9336 180.561 99.6495 180.325 100.422C180.044 101.343 180.057 101.865 179.543 102.692C178.607 104.195 178.165 105.929 177.295 107.461C176.455 108.938 175.649 110.028 175.101 111.679C174.786 112.625 174.289 113.465 173.85 114.335C173.643 114.745 173.427 115.149 173.242 115.575C172.91 116.335 172.793 116.325 173.253 116.964ZM199.811 129.607C200.405 130.104 201.279 129.269 201.855 129.257C202.106 129.252 202.355 129.48 202.522 129.474C203.026 129.457 203.437 129.061 203.9 128.877C206.04 128.026 208.59 127.994 210.418 126.265C214.048 122.832 212.317 115.944 211.656 111.481C211.521 110.571 211.279 109.311 211.908 108.565C212.597 107.748 213.634 108.236 214.264 108.897C214.912 109.574 215.352 110.524 215.89 111.315C216.747 112.576 217.682 113.767 218.627 114.937C221.984 119.094 225.538 123.85 229.691 126.9C231.418 128.169 232.981 129.888 234.874 130.855C237.151 132.019 234.813 127.528 234.404 126.798C231.724 122.024 227.823 118.243 224.546 114.052C223.928 113.26 223.049 112.194 223.039 111.054C223.022 109.343 224.315 109.497 225.337 109.972C226.293 110.416 226.772 111.522 227.541 112.278C228.498 113.219 229.617 113.982 230.683 114.741C232.981 116.379 235.422 117.754 237.854 119.094C238.992 119.721 240.136 120.334 241.279 120.948C241.593 121.116 243.469 122.508 243.379 121.315C243.367 121.154 242.17 119.455 242.022 119.392C241.286 119.077 240.92 120.028 240.265 118.782C239.799 117.897 239.734 117.438 239.076 116.767C238.965 116.653 238.888 116.364 238.797 116.176C238.808 116.247 238.308 115.678 238.404 115.777C238.273 115.642 238.082 115.393 237.975 115.23C237.461 114.445 236.473 114.43 236.026 113.533C235.855 113.191 235.952 112.753 235.747 112.414C235.459 111.939 234.825 111.736 234.487 111.318C234.198 110.958 233.959 110.665 233.779 110.445C233.655 110.294 233.438 110.187 233.291 110.014C232.927 109.583 232.955 109.2 232.445 108.838C231.987 108.512 231.776 108.817 231.618 108.011C231.06 108.429 231.13 107.817 230.903 107.379C230.609 106.809 230.235 106.555 229.83 106.143C228.937 105.235 228.101 103.884 227.341 102.742C225.453 99.9005 223.926 96.5783 223.364 93.0135C223.229 92.1612 223.155 91.2998 223.101 90.4356C223.073 89.9812 223.2 88.8743 222.959 88.4289C222.585 87.7382 221.876 88.0123 221.336 87.71C221.153 87.6073 220.972 87.3044 220.8 87.2357C220.559 87.1397 220.264 87.2334 220.015 87.1407C219.918 87.1047 219.895 86.771 219.735 86.7283C219.42 86.6439 219.107 86.7777 218.796 86.7829C218.115 86.7934 217.443 86.6532 216.79 86.3994C216.196 86.1686 215.699 85.6394 215.107 85.4488C215.167 85.4684 214.13 85.5646 214.186 85.4966C214.136 85.1978 214.087 84.899 214.037 84.6003C213.643 84.9218 212.3 85.3461 211.884 85.2726C211.214 85.1545 211.355 84.4488 210.788 85.3756C210.466 85.048 210.145 84.7203 209.824 84.3926C209.58 85.5868 207.904 85.0072 207.144 85.0733C206.074 85.1667 205.23 84.9315 204.255 85.3673C203.068 85.8981 202.027 86.4574 200.749 86.6022C199.856 86.7029 199.485 87.194 198.61 87.4969C197.434 87.9038 197.341 88.3525 197.709 89.7575C198.007 90.8964 198.265 91.7748 197.829 92.9433C197.057 95.0158 194.957 95.8694 193.603 97.3017C196.774 99.9047 199.906 102.465 202.972 105.239C204.256 106.401 205.623 107.565 206.354 109.312C207.029 110.926 207.412 112.864 207.818 114.591C208.749 118.551 206.125 121.215 203.43 122.957C202.873 123.317 199.031 128.955 199.811 129.607ZM205.042 134.393C205.232 133.631 205.207 133.428 204.578 133.155C204.34 133.051 203.428 132.916 203.281 133.298C202.946 134.165 204.703 134.153 205.042 134.393ZM178.316 79.2107C178.091 80.9004 177.869 82.5907 177.668 84.2842C177.557 85.22 177.305 86.0476 177.902 86.7533C178.24 87.1542 179.062 87.3037 179.494 87.5171C180.118 87.8252 180.726 88.1782 181.326 88.5454C182.395 89.2004 183.513 89.5948 184.568 90.1853C185.027 90.4417 185.299 90.9471 185.697 91.2957C186.24 91.7729 186.902 92.0049 187.463 92.4587C188.466 93.2703 189.385 94.2311 190.387 95.0482C191.523 95.974 191.759 95.6765 192.397 94.3085C192.97 93.0803 193.657 92.52 194.481 91.5572C194.801 91.1827 195.949 89.0489 194.974 88.865C194.725 88.8178 193.862 89.2565 193.667 89.3971C193.369 89.6102 192.895 90.8216 192.653 90.8422C192.218 90.8794 191.661 89.4311 191.39 89.0498C189.614 86.5492 187.659 84.0756 185.6 81.8882C184.533 80.7544 183.413 79.7213 182.203 78.806C181.343 78.1555 180.592 77.2435 179.744 76.6264C179.564 76.4447 179.361 76.3147 179.133 76.2371C178.69 76.0018 178.524 76.2047 178.634 76.8455C178.381 77.4723 178.408 78.5188 178.316 79.2107ZM217.177 76.9964C216.745 76.4823 216.2 76.0712 215.823 75.4977C215.611 75.1742 215.471 74.5952 215.228 74.386C214.804 74.0214 214.199 74.1896 213.707 73.7008C213.231 73.2284 212.814 72.6627 212.35 72.1726C211.343 71.1107 210.304 70.1344 209.317 69.0533C208.756 68.439 208.167 67.6418 207.669 67.2362C207.537 67.1287 207.389 66.9686 207.248 66.8858C206.948 66.7089 206.798 66.889 206.36 66.724C206.07 66.6152 205.863 66.1861 205.63 65.983C205.077 65.5 204.357 65.3088 203.824 64.8441C203.292 64.3794 203.036 63.6576 202.304 63.2699C201.418 62.8014 200.753 63.1717 200.113 62.2754C199.852 61.9102 199.78 61.4497 199.37 61.2193C198.876 60.9413 198.442 61.2363 197.97 60.9205C197.652 60.7074 197.435 60.2607 197.106 60.0277C196.519 59.6114 195.868 59.5675 195.318 59.0524C194.854 58.6182 195.112 58.6625 194.562 58.4792C194.321 58.3987 194.053 58.364 193.795 58.261C192.969 57.9314 191.62 57.528 191.131 56.6118C190.883 57.0354 190.797 57.1214 190.394 56.9898C190.183 56.7886 189.989 56.5672 189.812 56.3255C189.682 56.5171 189.543 56.5287 189.395 56.3599C188.523 56.0094 187.723 55.4074 186.865 55.0733C186.743 55.15 186.621 55.227 186.5 55.3037C186.331 55.3146 186.262 55.218 186.294 55.0133C185.956 54.9411 185.567 54.7675 185.256 54.6089C184.659 54.3047 184 53.582 183.296 53.8406C182.122 54.2726 182.066 57.0736 181.863 58.1837C181.364 60.9195 180.861 63.6541 180.36 66.3893C180.156 67.5022 179.977 68.6235 179.708 69.7179C179.533 70.4329 179.096 71.4871 179.253 72.2474C179.447 73.1793 180.224 73.4829 180.875 73.9139C181.771 74.5079 182.637 75.1668 183.485 75.851C187.086 78.7553 189.771 82.7495 192.324 86.847C192.797 86.0435 194.064 84.9148 194.853 84.5525C195.406 84.2989 195.904 84.5034 196.455 84.194C196.847 83.9732 197.173 83.5416 197.545 83.2636C199.812 81.5656 202.548 80.1623 205.176 79.4886C210.567 78.1058 215.846 80.247 221.073 81.263C220.013 79.5576 218.426 78.4826 217.177 76.9964ZM181.087 30.718C180.165 27.2016 178.611 23.7973 176.4 21.1593C175.285 19.8294 173.974 18.6671 172.506 17.9277C171.228 17.2849 169.708 16.6684 169.728 18.7354C169.771 23.2229 170.658 27.6593 170.766 32.1538C170.871 36.5581 170.241 40.0933 167.961 43.6424C169.406 44.0346 170.849 44.4325 172.288 44.8497C173.381 45.1665 174.514 45.522 175.548 45.7396C176.57 45.9543 177.509 46.0942 178.52 46.4983C179.201 46.7704 180.268 47.6026 181.005 47.4219C182.23 47.1218 181.94 41.9829 182.003 40.748C182.18 37.2612 181.967 34.0738 181.087 30.718ZM158.697 37.4884C157.023 35.113 155.284 32.3415 152.469 31.9002C149.746 31.4737 148.743 35.292 148.915 37.8665C148.974 38.7378 149.085 41 149.626 41.7057C150.225 42.4865 151.288 41.8979 152.048 41.7775C155.332 41.2576 158.699 42.1254 161.991 42.1254C160.893 40.5792 159.79 39.0391 158.697 37.4884ZM145.224 46.9623C144.081 47.1536 143.169 47.3574 143.721 48.8776C144.825 51.9225 145.673 54.8288 144.706 58.148C143.967 60.683 141.627 63.7603 139.289 64.2683C138.47 64.4464 137.237 64.1278 136.734 65.1008C136.286 65.9676 136.771 68.5667 136.824 69.5292C137.018 73.1145 137.804 76.6719 139.788 79.4893C141.554 81.996 143.709 83.9578 146.277 81.5916C148.442 79.5974 149.72 76.0298 150.361 72.981C150.703 71.3533 150.744 69.7294 150.81 68.0661C150.867 66.595 151.107 65.6621 149.685 65.3572C149.303 65.2757 148.351 65.301 148.35 64.6204C148.347 63.7057 149.38 64.0488 149.775 64.0026C151.299 63.8248 150.585 61.7526 150.443 60.4125C150.201 58.1307 149.81 55.8743 149.45 53.6154C149.144 51.6911 149.128 49.1696 148.463 47.3706C148.075 46.3202 145.986 46.8346 145.224 46.9623ZM142.418 53.7197C142.245 52.4793 142.153 50.9292 141.1 50.2438C139.944 49.4906 139.365 50.7178 138.794 51.7206C137.28 54.3808 135.605 56.8701 135.357 60.1727C135.328 60.5665 135.183 61.3573 135.508 61.6297C135.653 61.7517 135.999 61.4307 136.223 61.4497C137.422 61.5504 138.289 61.9262 139.465 61.1345C141.765 59.5851 142.837 56.7126 142.418 53.7197ZM133.374 61.1483C133.621 58.2607 134.761 55.6997 136.036 53.2617C136.664 52.0595 137.884 50.7454 138.317 49.4755C138.549 48.7951 138.138 47.9527 137.294 48.2444C136.873 48.3898 136.063 49.6943 135.782 50.1459C135.059 51.306 134.461 52.6 133.889 53.867C133.278 55.2206 131.542 60.1891 133.374 61.1483ZM140.946 32.3922C140.813 29.6753 140.799 26.5553 139.294 24.3005C138.128 22.5521 135.993 21.7909 134.26 21.115C131.927 20.2043 129.124 20.0637 126.683 20.358C124.535 20.6173 122.913 22.3275 121.588 24.2081C120.24 26.1204 119.195 28.5829 118.268 30.8081C118.036 31.3649 116.069 34.9371 117.4 34.854C117.927 34.8209 118.386 33.6156 118.791 33.2597C119.107 32.9808 119.483 33.0154 119.767 32.7924C120.071 32.5533 120.005 32.3322 120.241 32.0369C121.867 30.0068 123.363 31.1759 125.116 32.2452C125.198 31.537 125.055 30.2212 125.561 29.7035C126.224 29.0261 126.916 30.0992 127.392 30.6255C127.824 31.105 128.358 31.9785 128.903 32.2378C129.61 32.5745 129.37 32.2167 129.984 31.9339C131.222 31.3646 132.174 33.0495 132.8 34.0292C133.033 34.3948 133.415 35.3174 133.833 35.4162C134.237 35.5116 134.29 35.1749 134.638 35.0504C135.624 34.699 135.897 35.5209 136.211 36.5414C136.564 37.689 136.865 38.7946 137.388 39.8665C138.313 41.7631 138.71 42.387 137.979 44.4813C139.047 44.6668 139.271 44.8157 139.801 43.7069C140.347 42.5641 140.489 41.6161 140.454 40.3026C140.383 37.5555 141.084 35.1826 140.946 32.3922ZM116.14 45.3905C115.021 47.7531 114.31 51.0409 114.322 53.7328C114.328 55.0682 114.395 56.7106 114.928 57.9221C115.44 59.0845 116.51 59.6666 117.497 60.1618C119.874 61.356 122.553 61.3422 125.053 60.8098C126.35 60.5331 127.612 60.7119 128.722 59.8001C129.558 59.1137 130.565 58.4471 130.81 57.1888C130.913 56.6622 130.755 56.2206 130.787 55.7039C130.747 55.4581 130.762 55.2184 130.833 54.9841C130.979 54.8859 131.126 54.7902 131.274 54.6972C131.391 54.3047 131.167 53.8673 131.224 53.4575C131.293 52.9626 131.645 52.5598 131.809 52.1112C132.261 50.8747 131.938 50.1828 131.092 49.3429C130.889 49.1565 130.685 48.9719 130.48 48.789C130.296 48.4485 130.093 48.4472 129.87 48.7845C129.467 48.7909 129.479 48.9363 129.055 48.7919C128.126 48.4755 127.347 47.3198 126.437 46.9139C126.083 46.756 125.556 46.8901 125.269 46.5991C125.012 46.3388 125.177 45.7932 124.952 45.5378C124.232 44.7217 123.1 45.4954 122.434 44.309C121.891 43.3411 122.006 41.9675 121.95 40.8684C120.282 41.2413 119.56 43.1103 118.19 44.0506C117.919 42.8221 117.879 42.8587 116.833 42.5214C117.307 43.5468 116.54 44.5448 116.14 45.3905ZM114.863 32.3482C114.556 32.811 114.321 33.9602 114.863 34.0713V32.3482ZM113.439 36.5282C110.893 36.5343 109.265 40.2991 108.522 42.6312C107.713 45.1674 106.862 48.5499 108.37 51.0201C108.949 51.9671 109.658 52.0541 110.589 51.9312C111.71 51.7832 112.285 51.5935 111.846 50.1921C111.024 47.566 111.643 44.2275 113.1 42.0291C111.096 41.5763 112.366 39.4265 113.372 38.6219C114.547 37.6826 115.496 36.5231 113.439 36.5282ZM171.581 172.629C172.18 174.488 172.789 176.34 173.292 178.255C173.768 180.069 173.492 182.114 174.085 183.858C174.449 183.647 174.554 183.273 174.87 183.045C175.066 182.904 175.406 182.849 175.574 182.694C175.862 182.428 176.561 181.438 176.75 181.054C177.405 179.726 176.968 177.566 176.618 176.201C176.185 174.51 175.446 172.887 174.452 171.554C173.755 170.621 173.371 170.918 172.44 171.378C171.889 171.649 171.321 171.823 171.581 172.629ZM176.12 187.29C176.598 188.423 177.483 189.356 178.008 190.497C178.56 191.695 178.977 193.045 179.68 194.141C180.396 195.258 181.039 195.071 182.025 195.553C182.378 195.725 182.527 196.046 182.812 196.296C183.346 196.764 183.931 197.051 184.493 197.468C184.892 196.322 186.111 190.574 187.663 190.697C189.011 190.804 188.321 193.814 188.147 194.702C188 195.452 187.832 196.213 187.609 196.938C187.383 197.669 186.679 198.764 186.94 199.566C187.27 200.585 188.094 200.518 188.506 199.775C188.851 199.153 189.026 198.308 189.28 197.632C189.503 197.037 190.524 193.782 191.407 194.287C192.257 194.773 190.935 197.929 190.713 198.549C190.179 200.045 189.154 201.484 190.509 202.683C192.565 204.503 195.097 205.874 197.401 207.187C198.745 207.953 199.954 208.96 201.366 209.582C202.677 210.16 204.191 210.258 205.459 210.922C205.771 211.086 205.561 211.289 206.017 211.384C206.399 211.464 207.066 211.25 207.476 211.255C208.155 211.262 208.835 211.323 209.512 211.223C209.893 211.167 210.762 210.678 210.625 211.485C211.164 211.31 211.373 210.673 211.767 210.275C212.118 209.92 212.566 209.728 212.957 209.449C213.767 208.873 214.373 208.216 214.616 207.118C215.186 204.54 213.98 201.857 212.492 200.059C211.638 199.028 210.636 198.171 209.853 197.06C209.578 196.671 209.382 196.218 209.034 195.901C208.607 195.513 208.021 195.465 207.607 195.073C207.299 194.78 207.207 194.315 206.885 194.047C206.407 193.651 205.849 193.815 205.399 193.295C205.142 192.997 204.259 191.598 204.321 191.211C204.079 191.305 203.837 191.4 203.596 191.495C203.449 190.632 202.177 189.569 201.55 189.156C201.233 188.947 200.614 188.957 200.379 188.732C200.064 188.433 200.09 187.806 199.841 187.43C199.127 186.354 197.631 185.871 196.685 185.122C195.481 184.168 194.311 183.088 193.224 181.959C191.025 179.678 189.087 177.027 187.504 174.131C186.866 172.965 186.275 171.775 185.821 170.496C185.541 169.709 185.262 168.31 184.572 167.854C183.858 167.382 182.221 168.021 181.422 168.088C180.249 168.187 178.421 168.126 177.37 168.8C176.246 169.52 177.159 170.116 177.738 170.976C178.585 172.233 179.092 173.772 179.515 175.281C179.841 176.441 179.901 177.564 180.114 178.734C180.339 179.971 180.337 181.64 179.816 182.777C179.3 183.902 175.581 186.018 176.12 187.29ZM220.455 210.091C222.981 206.07 220.89 200.185 218.42 196.936C215.439 193.016 211.197 190.812 207.713 187.624C203.684 183.938 199.546 180.514 195.976 176.19C194.166 173.999 192.591 171.637 191.162 169.09C189.949 166.928 189.069 164.048 186.618 163.735C188.064 165.842 188.148 168.878 189.266 171.224C190.449 173.708 192.193 175.774 193.97 177.684C197.721 181.716 201.773 185.41 205.825 189.013C207.893 190.852 209.903 192.775 211.964 194.623C213.81 196.279 215.749 197.694 216.813 200.217C218.648 204.569 218.758 211.017 214.694 213.698C216.788 213.21 219.143 212.18 220.455 210.091ZM0.28302 28.7895C1.03012 27.0415 2.43034 26.4189 3.83632 25.735C5.21242 25.0659 6.47012 24.2415 7.99641 24.0274C8.675 23.9321 10.5891 24.1686 10.6785 23.0184C10.753 22.0602 8.75311 21.0984 8.29213 20.3683C7.60889 19.2861 7.14459 17.5291 7.40962 16.1623C7.66093 14.8661 8.73886 14.4566 9.74551 14.2217C12.8762 13.4916 16.2053 14.0285 19.3442 14.3285C18.96 13.7002 18.4184 13.1848 18.1104 12.4322L17.6127 13.6421C17.3293 12.9502 17.022 12.2711 16.6696 11.6232C16.4312 11.9364 16.1924 12.2499 15.9543 12.5631C16.3506 10.9364 15.0175 10.9447 15.1578 9.57344C15.2124 9.04007 15.5212 8.80644 15.5969 8.37769C15.746 7.52532 15.1833 6.99227 15.8238 6.20185C16.5367 5.32156 17.7026 5.67072 18.5324 5.75288C18.6366 5.76347 18.7876 6.00448 18.9222 6.02406C19.1088 6.05165 19.2162 5.75127 19.447 5.76732C20.0656 5.81 20.611 6.37193 21.226 6.54266C24.0758 7.33406 26.9266 8.74547 29.6621 10.0632C32.4466 11.4046 35.1805 12.9665 37.6082 15.0718C40.2066 17.325 42.0835 20.2216 44.1587 23.0755C45.1341 24.4167 46.1432 25.7045 46.8857 27.2498C47.2694 28.0482 47.6163 30.5562 48.307 30.9208C49.0571 31.3168 50.943 30.1971 51.7101 29.9904C53.5157 29.5046 55.313 29.3017 57.1641 29.3993C58.6364 29.4763 60.1898 29.4304 61.6501 29.641C62.4978 29.7632 64.61 30.863 64.7457 32.0928C64.8054 32.6393 64.2702 33.0937 64.1501 33.6059C63.9684 34.3806 64.2685 35.2012 64.0594 35.9775C63.6329 37.5603 61.6533 38.1428 60.4869 38.6412C57.2301 40.0333 53.929 41.1126 50.6385 42.3587C49.2087 42.9004 47.9863 43.7628 46.6914 44.6286C45.6173 45.3462 44.6372 46.0641 45.7223 47.4116C46.75 48.6883 46.6217 49.2033 46.3156 50.962C45.9928 52.8179 45.8809 54.6943 45.46 56.5322C45.0412 58.3624 44.2585 60.1108 44.4108 62.0472C44.5635 63.9772 45.2465 65.9599 45.8851 67.7288C46.5302 69.5157 47.2425 71.2814 47.9436 73.0397C48.592 74.6662 49.2939 76.3151 50.7942 77.0092C53.6588 78.3343 57.3181 78.1241 60.3033 77.643C63.6916 77.0968 67.1917 76.1706 70.3961 74.757C73.4772 73.3979 76.8661 71.3132 79.4141 68.8498C80.7754 67.5343 82.2496 66.5594 83.6942 65.3819C85.1583 64.1887 86.2699 62.5796 87.5526 61.1509C90.0663 58.3509 93.1608 56.4215 96.3461 54.882C99.9268 53.1516 103.624 53.3313 107.418 53.1442C106.821 51.772 106.052 50.4604 105.77 48.9328C105.476 47.3417 105.689 45.6129 105.875 44.0233C106.237 40.9293 106.921 38.2063 108.591 35.7076C109.355 34.5648 110.247 33.674 111.519 33.508C112.29 33.4073 113.714 34.0995 114.271 33.336C114.516 32.9994 114.458 32.2914 114.613 31.8768C114.749 31.5087 115.024 31.1384 115.173 30.7385C115.81 29.0293 116.604 27.5187 117.398 25.8971C117.714 25.2524 117.958 24.3005 118.389 23.7578C118.623 23.4626 118.924 23.3284 119.055 23.1125C119.3 22.7084 119.413 21.9697 119.618 21.5136C119.967 20.7331 120.412 20.0079 120.926 19.3638C121.747 18.3343 122.804 17.4257 123.929 16.9129C124.555 16.6279 125.013 16.5605 125.666 16.6023C125.857 16.6144 126.07 16.7435 126.261 16.7264C126.719 16.6857 126.647 16.4938 127.014 16.4046C129.47 15.8067 132.762 16.6456 135.065 17.6754C137.491 18.7601 139.461 20.1905 140.936 22.7607C144.557 29.0732 143.713 37.224 142.177 44.1767C143.106 43.8914 144.031 43.5538 144.969 43.3122C145.544 43.1639 146.328 43.1918 146.841 42.8372C147.982 42.0484 147.054 40.024 147.047 38.716C147.029 35.3925 148.371 30.1952 151.296 28.7915C154.344 27.3287 158.052 31.4346 159.936 33.7629C161.144 35.2564 162.243 36.8662 163.4 38.4136C164.209 39.4952 165.276 41.2195 166.693 40.9367C169.783 40.3206 168.841 33.4455 168.703 31.1217C168.486 27.4481 168.024 23.7158 168.021 20.0329C168.02 17.7942 168.351 14.774 170.702 14.5115C173.938 14.1504 177.003 17.592 178.89 20.2399C183.866 27.2222 184.965 36.4512 183.634 45.213C183.439 46.4976 182.816 48.082 184.005 48.8795C185.566 49.9273 187.563 50.5618 189.241 51.331C192.994 53.0505 196.469 55.3445 200.002 57.5864C203.5 59.8062 206.942 62.0097 210.098 64.8697C213.244 67.7208 216.359 70.7419 219.225 73.9743C220.653 75.5853 222.031 77.2663 223.332 79.0204C224.555 80.6706 225.547 82.5448 226.877 84.0871C227.782 85.1372 229.448 86.5454 229.647 88.1474C229.807 89.4404 227.942 90.3367 227.101 90.9343C226.524 91.3441 226.124 91.3316 226.082 92.062C226.031 92.9731 226.852 94.4333 227.144 95.3017C227.889 97.5177 228.863 99.353 230.143 101.197C232.978 105.282 236.404 108.745 239.656 112.373C242.678 115.745 245.639 119.063 247.853 123.246C248.396 124.271 249.747 126.376 248.463 127.336C248.131 127.584 247.112 127.781 246.773 127.514C246.354 127.183 246.567 126.686 246.072 126.354C246.196 127.468 241.87 125.291 241.534 125.09C240.624 124.545 239.802 123.906 238.873 123.418C238.328 123.132 238.262 122.733 237.84 122.413C237.614 122.242 237.611 122.472 237.309 122.365C237.037 122.269 236.399 122.233 236.197 121.926C236.191 121.918 235.97 121.176 236.158 121.33C235.421 120.73 234.985 121.637 235.428 122.49C236.736 125.008 238.389 126.861 238.902 129.888C239.088 130.987 239.406 133.028 238.832 134.03C238.811 134.067 238.618 133.96 238.594 134C238.572 134.036 238.362 134.379 238.275 134.476C237.768 135.043 237.801 135.296 236.954 135.272C236.579 135.262 235.83 135.206 235.487 135.007C235.228 134.858 235.102 134.491 234.903 134.36C234.702 134.227 234.726 134.158 234.537 134.081C234.498 134.064 234.424 134.451 234.351 134.434C233.948 134.346 233.774 134.064 233.431 133.837C232.444 133.184 231.476 132.465 230.536 131.807C229.59 131.145 228.883 130.221 227.941 129.452C226.94 128.635 226.121 128.008 225.351 126.874C224.818 126.089 224.181 125.803 223.823 125.417C223.399 124.957 222.667 123.186 221.982 122.975C221.67 122.878 221.421 123.201 221.25 123.069C221.058 122.92 221.267 122.636 221.171 122.468C220.991 122.155 220.968 122.103 220.662 121.817C220.27 121.45 219.788 121.352 219.459 120.874C219.093 120.342 219.043 119.746 218.593 119.248C217.51 118.049 216.546 116.787 215.398 115.625C215.841 118.515 216.281 121.385 215.937 124.324C215.604 127.173 214.571 128.448 212.541 129.894C212.095 130.212 211.626 130.676 211.146 130.901C210.855 131.038 210.416 130.957 210.198 131.057C209.463 131.399 209.713 132.097 209.612 132.884C209.455 134.104 208.497 135.042 207.878 135.993C207.358 136.792 206.419 138.61 205.549 138.886C204.763 139.135 204.021 138.06 203.366 137.602C202.379 136.912 201.303 136.417 200.263 135.853C198.229 134.751 196.265 133.437 194.254 132.271C193.336 131.739 192.408 131.523 191.436 131.179C190.269 130.766 189.272 129.977 188.153 129.438C186.139 128.469 184.21 127.313 182.209 126.296C178.067 124.191 173.55 122.744 169.864 119.586C168.197 118.157 166.05 118.005 164.406 116.616C162.694 115.168 163.744 112.955 164.477 111.178C166.481 106.325 167.677 101.285 170.435 96.864C171.868 94.5668 173.192 92.1929 174.442 89.7511C175.547 87.5897 175.525 85.142 175.802 82.7007C175.988 81.0692 176.162 79.4309 176.389 77.8064C176.533 76.774 176.998 75.4733 176.436 74.5375C175.832 73.532 174.397 73.1039 173.49 72.5734C172.364 71.9143 171.273 71.205 170.104 70.6469C167.432 69.3719 164.619 68.4894 161.816 67.7105C160.981 67.4782 157.404 65.8171 156.723 66.7901C157.559 67.4438 157.803 68.6309 158.178 69.6482C158.737 71.1643 159.314 72.6087 159.721 74.1976C160.563 77.4826 161.28 80.8198 161.966 84.1532C162.648 87.4629 163.461 90.7985 163.669 94.208C163.776 95.9484 163.703 97.69 163.705 99.4323C163.708 101.291 164.038 103.115 163.979 104.979C163.94 106.218 163.851 107.708 163.23 108.765C162.655 109.745 161.676 109.854 160.824 110.378C159.699 111.069 159.259 111.364 159.248 112.868C159.236 114.621 159.333 116.343 159.193 118.095C158.704 124.196 156.951 131.436 153.453 136.147C153.22 136.46 146.432 146.472 145.681 145.007C145.163 145.723 144.39 145.985 143.753 146.61C142.752 147.592 141.77 148.377 140.942 149.594C139.435 151.807 138.155 154.401 137.778 157.231C137.454 159.666 137.649 162.578 138.823 164.689C140.002 166.807 142.521 168.196 144.422 169.239C146.922 170.609 149.459 170.763 152.173 170.42C153.512 170.251 154.841 169.986 156.17 169.736C156.723 169.632 157.369 169.631 157.892 169.388C158.454 169.127 158.644 168.838 159.204 168.805C159.623 168.781 159.852 168.89 160.295 168.782C160.842 168.648 161.437 168.405 161.984 168.24C162.591 168.057 163.089 167.797 163.649 167.461C164.167 167.151 164.751 167.091 165.25 166.796C166.11 166.289 166.375 165.441 167.538 165.911C168.766 166.407 168.509 167.649 169.293 168.501C169.989 169.258 170.852 168.558 171.545 168.108C172.565 167.445 173.625 166.894 174.711 166.393C175.884 165.851 177.083 165.38 178.304 165.007C179.639 164.599 181.106 164.518 182.393 163.925C183.523 163.403 184.01 162.394 184.829 161.452C185.69 160.46 186.859 160.082 188.053 160.17C190.228 160.332 191.713 163.081 192.862 164.99C196.072 170.324 199.62 174.869 203.91 179.059C205.96 181.061 208.27 182.763 210.253 184.841C211.089 185.717 211.696 186.539 212.686 187.191C213.987 188.048 215.167 189.123 216.411 190.09C221.274 193.87 224.842 199.376 223.497 206.566C222.891 209.802 221.682 212.074 219.423 214.021C218.397 214.905 217.458 215.641 216.151 215.59C214.918 215.541 213.829 215.491 214.556 213.774C213.635 214.108 212.864 214.93 211.859 215.352C210.701 215.837 209.194 216.139 207.964 216.169C205.995 216.216 203.679 215.002 201.955 214.487C201.473 214.344 200.544 214.108 199.995 213.578C199.558 213.157 199.653 212.658 198.992 212.458C198.125 212.196 197.795 212.503 196.966 211.889C195.762 210.998 194.457 210.468 193.208 209.647C191.526 208.541 189.909 207.293 188.242 206.154C188.02 206.87 186.715 211.125 185.908 209.074C185.207 207.288 187.485 205.759 186.1 203.951C184.779 202.226 184.503 204.039 183.221 204.84C181.442 205.951 181.709 203.875 182.226 202.646C182.433 202.154 182.868 201.413 182.74 200.839C182.493 199.732 181.726 200.382 181.124 200.495C180.176 200.673 179.409 200.368 178.696 199.623C178.102 199.003 177.12 198.467 176.761 197.649C176.582 197.239 176.55 196.677 176.401 196.242C176.204 195.669 176.063 195.808 175.992 195.097C176.06 194.729 176.088 194.357 176.074 193.98C175.918 193.943 175.762 193.906 175.607 193.869C175.602 193.843 175.591 193.126 175.654 193.233C175.509 192.986 175.197 192.882 175.017 192.539C174.852 192.224 175.006 191.62 174.939 191.248C174.805 190.495 174.439 189.888 174.139 189.216C173.506 192.35 173.689 195.618 173.084 198.753C172.587 201.328 171.455 203.635 170.135 205.746C169.523 206.724 168.713 207.418 168.072 208.348C167.53 209.134 167.259 209.827 166.458 210.292C165.926 210.601 165.327 210.76 164.779 211.027C164.428 211.198 163.629 211.983 163.3 211.969C163.587 211.982 162.761 212.011 162.953 211.973C162.938 211.976 163.051 211.553 162.951 211.56C161.754 212.885 160.504 212.888 159.119 213.712C158.485 214.089 158.248 214.066 157.571 214.205C156.695 214.386 155.957 214.971 155.118 215.033C153.827 215.129 152.372 215.332 151.025 215.276C150.659 215.26 149.97 214.984 149.683 215.359C149.493 215.606 149.853 217.395 149.876 217.805C150.113 222.1 149.622 226.608 148.072 230.538C146.787 233.797 145.417 237.652 143.145 240.14C140.626 242.898 137.097 244.842 133.728 245.586C129.998 246.41 126.3 245.793 122.558 245.537C118.762 245.277 115.249 244.647 111.588 243.361C108.183 242.164 104.958 240.604 101.7 238.959C99.4842 237.84 96.6747 236.23 97.8362 232.834C98.1171 232.012 99.2063 229.729 100.17 230.856C101.023 231.852 99.5974 233.739 98.9522 234.372C103.814 238.337 109.715 239.649 115.404 241.053C118.529 241.825 121.607 241.792 124.785 241.803C127.478 241.812 130.171 241.903 132.847 241.463C135.268 241.065 138.086 240.318 139.888 238.249C141.772 236.083 143.555 233.498 144.841 230.797C146.253 227.832 146.595 224.627 146.709 221.283C146.769 219.523 146.837 217.741 146.679 215.986C146.565 214.711 146.008 214.559 145.732 213.552C145.095 214.597 144.675 214.211 143.892 213.601C143.386 215.253 143.611 216.971 143.698 218.675C143.783 220.335 143.593 222.019 143.42 223.668C143.125 226.47 141.976 229.394 140.519 231.65C139.861 232.671 138.874 233.101 137.981 233.806C136.842 234.704 135.662 235.541 134.473 236.347C132.235 237.865 129.793 239.163 127.27 239.392C126.386 239.472 125.744 240.01 124.691 239.935C124.066 239.89 123.436 239.64 122.813 239.66C122.187 239.68 121.651 239.914 121.008 239.859C118.34 239.633 115.589 238.611 112.947 238.05C110.087 237.442 107.209 236.787 104.478 235.587C103.295 235.067 102.317 234.396 101.657 233.089C101.185 232.156 101.309 230.482 100.43 229.923C101.006 229.055 100.791 228.901 100.294 228.124C100.062 227.762 99.3123 226.804 100.221 226.821C99.9451 225.422 100.407 224.069 100.604 222.7C100.689 222.109 100.666 221.214 100.979 220.705C101.161 220.408 101.465 220.402 101.628 220.184C101.797 220.179 101.929 220.097 102.023 219.938C102.034 219.704 101.941 219.562 101.743 219.511C101.789 219.048 101.496 219.214 101.789 218.491C102.188 217.503 102.945 216.644 103.663 215.972C104.274 215.4 104.724 214.384 105.43 214.079C106.348 213.682 107.311 213.25 108.276 212.881C110.463 212.045 112.631 211.725 114.926 212.189C115.977 212.401 117.013 212.662 118.028 213.042C118.622 213.264 119.53 213.865 120.056 213.217C120.237 212.995 120.614 211.109 120.59 210.905C120.496 210.086 119.067 209.756 118.546 209.471C117.749 209.034 116.274 208.568 115.769 207.701C115.556 207.338 115.796 205.796 115.761 205.768C115.427 205.505 114.024 209.25 113.642 209.506C113.09 209.875 111.538 209.387 110.967 209.313C109.263 209.094 107.531 208.97 105.862 208.495C102.662 207.583 99.5195 206.173 96.4053 204.928C90.4807 202.558 84.7609 199.434 79.4349 195.555C76.9475 193.742 74.4765 191.426 72.5835 188.795C71.73 187.608 71.1268 186.201 70.2553 185.037C69.2494 183.695 69.5665 182.483 69.1157 180.802C68.203 177.398 67.095 174.307 66.5981 170.74C66.0867 167.068 65.8756 163.318 66.0173 159.6C66.2977 152.252 66.6025 145.285 69.3637 138.533C71.8945 132.346 75.1737 126.3 79.0721 121.178C79.9784 119.987 80.936 118.853 82.0493 117.927C83.2478 116.929 84.5669 116.147 85.6519 114.969C86.5421 114.002 87.2867 112.864 88.218 111.946C89.3612 110.82 90.7208 110.323 92.0596 109.604C93.3431 108.915 94.5137 108.019 95.8262 107.391C96.6248 107.01 97.4339 106.658 98.2665 106.391C98.8818 106.195 99.6993 106.183 100.262 105.809C101.152 105.217 102.063 103.496 102.645 102.524C103.493 101.106 103.953 99.4554 104.357 97.8065C104.848 95.8001 105.304 93.7815 105.784 91.7716C105.949 91.0848 106.562 88.6946 105.339 89.2745C104.981 89.4443 104.645 90.1984 104.369 90.5206C103.847 91.1323 103.202 91.6788 102.554 92.0947C101.508 92.7655 100.42 93.5729 99.4167 94.0354C98.5331 94.4426 97.6246 95.2414 96.8008 95.8158C96.6758 95.9031 96.6391 96.2035 96.4779 96.2873C96.0983 96.4843 95.8454 95.9407 95.4869 96.0738C94.9971 96.2558 94.9165 96.7956 94.6447 97.225C94.2505 97.8476 94.0464 97.897 93.4445 98.2173C92.775 98.5738 92.2833 99.2782 91.6304 99.6274C90.8373 100.051 89.0918 99.7224 88.9725 101.184C87.7401 100.242 86.194 102.071 85.4247 103.019C84.6505 101.629 83.279 103.257 82.1071 102.795C82.7556 103.849 82.6377 103.744 81.6146 103.875C80.751 103.985 80.2338 104.656 79.3804 105.046C78.7892 105.315 78.1358 105.769 77.5214 105.959C76.9404 106.139 76.5005 105.736 75.9945 105.837C75.6456 105.906 75.314 106.259 74.9821 106.355C74.5614 106.478 73.9623 106.626 73.4868 106.758C72.9083 106.919 72.3327 106.771 71.7558 106.899C71.0824 107.048 70.5014 107.517 69.8179 107.669C69.0557 107.839 68.263 107.726 67.5055 107.942C66.8149 108.139 66.395 108.365 65.6797 108.373C64.6127 108.386 63.4219 108.551 62.3684 108.41C61.8074 108.335 61.4966 108.002 60.8615 108.328C60.4381 108.545 60.1843 109.215 59.6071 108.907C60.2164 108.622 59.6817 107.51 59.0099 108.362C58.851 107.884 58.7482 107.617 58.3064 107.46C58.3286 107.928 58.3938 108.398 57.8841 108.495C57.8452 108.17 57.8057 107.845 57.7668 107.519C56.6584 108.506 56.3961 108.855 55.35 107.65C55.378 108.045 55.5202 108.491 55.1776 108.77C54.9584 108.343 54.7388 107.917 54.5196 107.491C54.149 108.866 52.3802 108.392 51.5229 108.148C51.1905 108.054 50.2718 107.904 50.055 107.585C49.9046 107.364 49.9229 107.191 49.8673 107.056C49.8179 106.935 50.3814 106.64 49.9018 106.467C49.5406 106.336 49.2591 107.262 48.8349 107.226C48.4566 107.193 48.3037 106.444 48.0316 106.292C48.0055 106.278 47.8208 106.594 47.6928 106.525C47.4941 106.417 47.3807 106.133 47.1611 106.033C46.6853 105.815 46.0703 105.87 45.5378 105.612C44.8622 105.284 44.1814 105.128 43.4919 104.859C42.6176 104.517 42.221 103.846 41.5115 103.296C41.3451 103.167 41.1719 103.243 41.0085 103.151C40.7885 103.029 40.5577 102.741 40.2957 102.605C39.474 102.179 38.7722 101.889 37.9927 101.301C37.2977 100.777 36.3801 100.39 35.7612 99.7603C35.2465 99.2365 34.9686 98.4718 34.4506 97.9387C33.7068 97.1736 31.785 96.2138 32.0966 94.7189C30.8526 94.941 30.5482 93.9991 30.0916 92.9603C29.6572 91.9722 28.767 91.6759 28.1849 90.7748C27.9333 90.3852 27.5282 89.8451 27.3893 89.4006C27.3065 89.1362 27.5139 88.8602 27.458 88.6795C27.1999 87.8493 26.2042 87.4866 25.7432 86.7379C25.157 85.7851 24.9687 84.5801 24.4794 83.6012C24.3833 83.4087 24.1462 83.2944 24.0544 83.0891C23.9955 82.9572 24.1182 82.6301 24.0467 82.5005C23.876 82.193 23.6079 82.0868 23.4366 81.8018C23.022 81.1119 22.9463 80.1311 22.5736 79.349C22.4818 79.1565 22.1622 78.6183 22.1219 78.5037C21.9871 78.1186 22.0279 77.8654 21.9586 77.437C21.9377 77.308 21.7248 76.5622 21.6812 76.4556C21.5444 76.1228 21.4121 76.0737 21.203 75.7085C20.6795 74.7942 20.3547 73.3581 20.3117 72.2484C20.2933 71.7776 20.4274 71.2907 20.2815 70.8414C20.1557 70.4534 19.7682 70.2137 19.6221 69.8071C19.239 68.7407 19.3015 67.2327 19.196 66.0918C19.0814 64.8482 18.7413 63.6226 18.6473 62.3884C18.6018 61.7908 18.8416 61.2616 18.824 60.699C18.8038 60.0543 18.5176 59.934 18.4075 59.3977C18.2817 58.7854 18.4659 58.08 18.3535 57.4234C18.2488 56.8127 18.0967 56.2472 18.0534 55.6208C17.9407 53.9889 18.0997 52.2819 18.1603 50.6494C18.1838 50.0159 18.2562 49.3551 18.1128 48.7348C17.9975 48.2358 17.5266 47.6777 17.5419 47.1363C17.5902 45.4636 18.7341 46.9113 19.3919 46.7964C20.1563 46.6632 20.2972 44.6568 20.4986 43.8959C20.9908 42.0368 21.4833 40.1781 21.9758 38.3193C19.6287 37.6046 17.1884 37.8106 14.7922 37.6178C12.4377 37.4284 10.1388 36.8309 7.8558 36.1582C5.92828 35.5902 3.81934 35.2609 2.08722 34.0482C0.632736 33.0302 -0.566879 30.7773 0.28302 28.7895Z" fill="#DCD7D2"/>
<path fill-rule="evenodd" clip-rule="evenodd" d="M227.428 64.7754C226.454 64.2047 226.7 63.4161 225.985 62.6833C221.983 58.583 217.288 55.0028 212.581 52.0466C207.623 48.9318 202.059 47.6129 196.991 44.8529C196.31 44.4816 195.424 43.9012 195.678 42.867C195.976 41.6584 196.996 42.2146 197.724 42.4996C200.147 43.4503 202.727 43.808 205.186 44.6431C210.434 46.4253 215.349 49.4987 219.795 53.0957C222.381 55.1881 224.859 57.5016 227.067 60.1002C227.881 61.0567 228.965 62.1726 229.177 63.5507C229.439 65.2561 228.545 65.4301 227.428 64.7754Z" fill="#DCD7D2"/>
<path fill-rule="evenodd" clip-rule="evenodd" d="M212.271 171.983C212.295 170.476 213.75 171.024 214.499 171.226C217.544 172.05 220.265 172.681 222.959 174.589C227.959 178.13 231.748 183.51 234.199 189.463C234.525 190.255 235.839 192.766 234.786 193.513C234.092 194.006 233.67 192.57 233.411 192.038C232.091 189.326 230.323 186.925 228.546 184.568C224.6 179.336 219.856 176.015 214.181 173.59C213.485 173.293 212.254 173.079 212.271 171.983Z" fill="#DCD7D2"/>
<path fill-rule="evenodd" clip-rule="evenodd" d="M44.0169 134.967C45.0699 132.578 46.7727 129.63 49.1288 128.646C50.4323 128.102 51.2038 129.003 50.8168 130.508C50.5091 131.705 49.482 132.29 48.7149 133.084C46.7415 135.127 45.5259 138.177 44.8053 141.009C44.0434 144.003 43.8913 147.252 43.9049 150.352C43.9121 151.989 44.2994 153.411 44.5098 155.004C44.5923 155.63 44.7332 157.01 44.0951 157.401C42.6809 158.268 42.0276 153.744 41.8833 152.874C41.3511 149.665 41.4025 146.71 41.8507 143.507C42.2605 140.578 42.8356 137.646 44.0169 134.967Z" fill="#DCD7D2"/>
<path fill-rule="evenodd" clip-rule="evenodd" d="M48.0623 20.1724C47.4869 19.2976 47.9068 18.0729 47.7354 17.0755C47.556 16.0301 47.0209 14.9726 46.5685 14.0581C45.5905 12.0838 44.4998 10.145 43.3377 8.30351C42.1376 6.40187 40.6737 4.78158 39.3983 2.95451C38.9668 2.33642 38.2025 1.45298 38.3889 0.709091C38.6906 -0.495402 39.3479 0.0916407 39.8746 0.59642C42.7532 3.35654 45.2879 6.75972 47.3356 10.3342C48.3074 12.0306 49.2256 13.8884 49.5471 15.9008C49.7131 16.9401 49.7145 18.0246 49.4411 19.0422C49.2695 19.6817 48.7536 21.2236 48.0623 20.1724Z" fill="#DCD7D2"/>
<path fill-rule="evenodd" clip-rule="evenodd" d="M225.461 167.401C224.018 167.25 222.568 167.197 221.122 167.113C220.052 167.051 218.848 167.125 217.866 166.544C216.877 165.96 217.307 165.084 218.129 164.954C218.601 164.879 219.398 165.239 219.905 165.264C220.453 165.291 221.004 165.271 221.553 165.274C223.157 165.28 224.885 165.267 226.431 165.868C226.936 166.064 227.701 166.367 227.909 167.018C228.353 168.411 226.13 167.47 225.461 167.401Z" fill="#DCD7D2"/>
<path fill-rule="evenodd" clip-rule="evenodd" d="M212.83 39.9972C210.735 39.714 208.711 39.0062 206.647 38.555C204.685 38.1263 204.351 36.3818 206.674 36.4602C207.454 36.4864 214.974 38.0951 212.83 39.9972Z" fill="#DCD7D2"/>
<path fill-rule="evenodd" clip-rule="evenodd" d="M39.7333 127.482C41.1406 127.085 40.4127 128.845 39.977 129.39C39.1717 130.396 38.7317 131.149 38.4923 132.491C38.3527 133.273 38.4836 135.036 37.8956 135.634C37.3165 136.222 37.2765 135.831 37.1736 135.105C36.8837 133.059 37.4629 128.123 39.7333 127.482Z" fill="#DCD7D2"/>
<path fill-rule="evenodd" clip-rule="evenodd" d="M55.1835 16.0944C54.7848 15.6179 55.2123 13.5458 55.1652 12.9385C55.1078 12.2027 54.9534 11.58 54.7587 10.8895C54.6642 10.5547 54.1887 9.37292 54.4449 9.00598C54.7995 8.49735 55.3892 9.35685 55.5761 9.69519C56.183 10.7963 56.3247 12.6323 56.2238 13.8722C56.1874 14.3211 55.9468 17.006 55.1835 16.0944Z" fill="#DCD7D2"/>
<path fill-rule="evenodd" clip-rule="evenodd" d="M138.048 190.83C137.982 189.657 136.979 188.843 136.977 187.595C136.973 186.193 137.81 185.585 138.852 186.497C139.48 187.047 139.97 188.385 140.82 188.561C142.525 188.913 143.194 185.46 144.873 185.86C146.327 186.205 145.563 189.021 145.124 189.971C144.659 190.978 143.815 191.685 144.09 192.924C144.416 194.395 145.536 195.243 145.1 196.922C144.291 200.042 142.534 197.125 141.478 196.145C140.725 195.446 140.27 195.57 139.539 196.255C138.537 197.194 137.772 197.831 136.558 198.464C135.487 199.021 134.453 199.411 134.42 197.539C134.394 196.067 135.379 194.603 136.245 193.604C136.963 192.775 138.121 192.137 138.048 190.83Z" fill="#DCD7D2"/>
<path fill-rule="evenodd" clip-rule="evenodd" d="M156.815 186.176C158.068 184.669 159.651 188.512 160.664 188.937C162.306 189.626 162.683 185.932 164.195 186.049C165.371 186.139 165.278 188.04 165.022 188.907C164.746 189.84 163.921 190.603 163.783 191.559C163.571 193.024 166.03 195.954 164.314 197.37C162.848 198.578 162.303 194.495 160.472 196.161C159.573 196.979 157.057 200.022 155.81 198.507C154.337 196.718 157.841 193.661 158.48 192.3C159.345 190.456 154.979 188.384 156.815 186.176Z" fill="#DCD7D2"/>
<path fill-rule="evenodd" clip-rule="evenodd" d="M126.456 133.834C126.816 133.655 127.396 133.951 127.785 133.932C128.203 133.912 128.638 133.698 129.05 133.619C129.944 133.446 131.518 133.696 132.153 132.796C132.801 131.879 132.309 130.037 132.585 128.921C132.736 128.314 132.91 127.565 133.635 127.836C134.476 128.149 134.456 129.891 134.557 130.655C134.705 131.782 134.824 132.642 135.829 133.043C136.573 133.34 137.355 133.191 137.957 133.88C138.397 134.385 138.695 135.307 138.35 135.966C137.832 136.958 136.71 136.444 135.932 136.758C134.745 137.235 135.027 139.422 134.783 140.677C134.628 141.484 134.285 143.743 133.258 143.706C131.857 143.657 132.401 140.484 132.479 139.557C132.557 138.617 132.745 137.82 131.815 137.528C131.029 137.282 129.932 137.739 129.12 137.734C128.095 137.727 126.888 137.436 126.269 136.401C125.916 135.808 125.692 134.214 126.456 133.834Z" fill="#DCD7D2"/>
<path fill-rule="evenodd" clip-rule="evenodd" d="M74.9815 172.892C72.7543 173.109 74.104 176.203 72.6261 177.434C71.2161 178.607 71.0265 175.368 71.0268 174.443C71.0276 172.202 68.6111 173.03 67.1397 172.66C65.8843 172.343 64.5135 170.873 66.0129 169.621C67.0949 168.717 68.8893 169.136 70.1456 168.897C71.848 168.573 71.3421 167.291 71.3798 165.814C71.3932 165.272 71.5589 163.342 72.179 163.19C73.315 162.911 73.3827 166.507 73.4593 167.191C73.7832 170.086 75.5468 168.322 76.9478 169.773C78.7791 171.671 76.3083 172.763 74.9815 172.892Z" fill="#DCD7D2"/>
<path fill-rule="evenodd" clip-rule="evenodd" d="M180.906 118.917C184.386 122.133 188.337 121.672 191.521 118.21C192.868 116.747 193.682 115.271 193.561 113.129C193.453 111.201 192.951 109.071 191.582 107.769C190.429 106.672 188.255 106.278 186.796 106.125C184.75 105.91 182.919 107.166 181.504 108.736C180.272 110.102 178.831 111.844 178.641 113.872C178.441 116.007 179.52 117.636 180.906 118.917ZM180.377 106.121C183.498 102.731 189.033 103.072 192.255 106.162C195.872 109.631 196.49 116.148 193.014 119.949C189.351 123.955 184.516 123.523 180.638 120.2C178.558 118.418 177.43 116.131 177.14 113.197C176.867 110.424 178.67 107.974 180.377 106.121Z" fill="#DCD7D2"/>
<path fill-rule="evenodd" clip-rule="evenodd" d="M120.025 47.7842C120.375 49.0676 120.132 50.4349 120.07 51.7425C121.059 51.0446 121.675 49.7998 122.738 49.2217C123.247 50.8088 120.709 55.3481 119.11 53.8601C117.649 52.4985 118.728 48.6989 120.025 47.7842Z" fill="#DCD7D2"/>
<path fill-rule="evenodd" clip-rule="evenodd" d="M114.833 55.6107C115.621 55.9416 116.353 55.85 117.129 56.0195C117.642 56.1311 117.708 55.8026 117.775 56.4642C117.916 57.8762 115.896 58.4224 114.986 58.4024C113.875 58.3781 112.658 57.536 112.766 56.1652C112.877 54.7369 113.976 55.2509 114.833 55.6107Z" fill="#DCD7D2"/>
<path fill-rule="evenodd" clip-rule="evenodd" d="M114.188 49.6765C114.545 49.3106 115.368 47.9287 115.973 48.1652C116.436 48.3462 116.108 48.9702 115.973 49.2824C115.464 50.4535 114.466 51.4499 113.668 52.3892C114.259 52.6257 115.396 52.7779 115.096 53.8027C114.82 54.7443 113.568 54.5996 112.968 54.2033C110.914 52.8449 113.159 50.7289 114.188 49.6765Z" fill="#DCD7D2"/>
<path fill-rule="evenodd" clip-rule="evenodd" d="M112.113 47.4535C111.973 48.1 111.897 48.7105 112.207 49.3167L113.918 45.8562C115.295 46.4933 112.881 51.4791 111.475 50.9271C110.502 50.5455 110.969 48.2022 111.123 47.4649C111.205 47.0702 111.401 45.8151 111.886 45.6877C112.84 45.4372 112.217 46.9766 112.113 47.4535Z" fill="#DCD7D2"/>
<path fill-rule="evenodd" clip-rule="evenodd" d="M182.71 117.254C183.504 116.594 184.819 118.139 185.658 118.145C187.354 118.155 186.43 115.912 187.492 115.185C188.045 114.806 190.363 115.188 189.997 113.618C189.776 112.674 188.915 113.356 188.444 112.779C187.852 112.056 188.696 111.479 189.221 111.182C188.99 110.835 187.662 110.683 187.329 110.923C186.753 111.337 186.786 112.58 186.258 113.22C185.572 112.233 185.944 110.993 185.214 110.107C184.931 109.763 184.101 109.504 184.424 108.89C184.611 108.533 185.43 108.651 185.71 108.368C185.955 108.12 185.942 107.322 186.337 107.256C186.982 107.148 186.967 108.259 187.16 108.58C187.743 109.545 190.305 109.212 189.243 111.169C189.95 110.771 191.879 110.456 191.505 111.846C191.409 112.201 191.045 112.418 190.954 112.823C190.876 113.174 191.048 113.674 191.065 114.026C191.095 114.694 191.143 115.475 190.704 116.012C190.102 116.751 189.297 116.214 188.651 116.535C187.771 116.972 188.088 117.881 187.624 118.677C187.016 119.717 186.081 119.397 185.22 119.083C184.194 118.707 184.031 118.673 183.28 119.637C182.937 119.137 181.996 117.848 182.71 117.254Z" fill="#DCD7D2"/>
<path fill-rule="evenodd" clip-rule="evenodd" d="M181.329 113.192C182.157 113.02 181.831 110.237 182.839 111.446C183.217 111.899 182.83 112.783 183.251 113.269C183.535 113.595 183.894 113.403 184.177 113.617C184.432 113.809 184.496 114.176 184.646 114.457C184.113 114.728 183.702 114.763 183.133 114.645C183.133 115.128 183.417 116.55 182.686 116.446C182.006 116.35 182.198 114.922 181.852 114.478C181.501 114.027 180.085 114.237 179.953 113.603C179.79 112.817 180.967 113.268 181.329 113.192Z" fill="#DCD7D2"/>
</svg>
