<svg width="363" height="370" viewBox="0 0 363 370" fill="none" xmlns="http://www.w3.org/2000/svg">
<path fill-rule="evenodd" clip-rule="evenodd" d="M6.96697 60.0973C8.78862 60.8676 10.7177 61.0142 12.6205 61.0913C14.1132 61.1515 15.3142 61.816 16.7164 61.7899C20.6217 61.7168 24.548 61.7419 28.4623 62.2611C32.3936 62.7832 35.9398 61.6885 39.1858 65.0799C40.3412 66.2867 41.7833 67.6688 41.2216 69.732C40.9641 70.6771 40.5703 71.3648 40.3671 72.3756C40.137 73.5185 39.8353 74.602 39.4765 75.6964C38.7878 77.7962 35.2134 85.6639 38.4554 86.4511C41.9701 87.3044 46.6143 85.8905 49.8979 84.5667C51.8138 83.794 53.6932 82.9062 55.5759 82.0298C57.0662 81.3361 59.0465 80.8889 60.4008 79.8487C61.2991 79.1586 61.439 78.0473 62.0034 76.9708C63.0295 75.0124 63.996 73.3402 65.3639 71.6862C68.2016 68.2561 71.8386 65.8455 75.4366 63.7075C75.6688 63.5689 76.0897 63.2514 76.3456 63.2101C76.6218 63.1655 76.9443 63.4967 77.1218 63.4462C77.6085 63.307 77.7622 62.925 78.2834 62.5297C78.9838 61.9988 81.8555 60.2067 82.4332 61.4807C81.8692 59.7977 81.5402 60.3068 80.2451 60.6165C79.6749 60.7536 79.2745 60.4534 78.759 60.5098C78.2837 60.5615 78.1038 60.8986 77.7098 61.006C76.9882 61.2026 76.3031 61.1132 75.5414 61.1425C75.3109 60.6069 75.0207 60.6249 74.6713 61.1959C74.4653 61.288 74.2592 61.38 74.0532 61.4725C73.3069 61.7599 72.4941 61.7505 71.7215 61.8612C70.5609 62.0282 67.6042 63.8904 66.9366 62.1799C66.2245 60.3533 68.0974 59.8003 68.3516 58.49C68.5994 57.2045 67.1201 56.5273 66.5044 55.7874C65.8029 54.9462 65.3633 54.1993 64.5524 53.4672C64.0772 53.0376 63.4627 52.645 63.0977 52.0599C62.7619 51.5215 62.7331 50.6266 62.3095 50.1847C61.8048 49.658 61.7494 50.0418 61.3016 49.797C60.4236 49.3163 60.8017 49.3246 60.2629 48.636C59.8026 48.0471 59.4849 48.0807 58.898 47.6407C58.039 46.9964 57.6847 45.6743 56.8465 44.9778C56.2333 44.4678 55.2976 44.5133 54.7554 43.9791C54.4361 43.6645 54.5044 43.1267 54.2271 42.8285C53.6946 42.2555 53.3609 42.5144 52.7225 42.3475C51.6455 42.0661 51.2684 41.374 50.4483 40.5906C49.6989 39.8756 49.246 39.9003 48.3377 39.6322C47.0975 39.2662 46.2563 38.1928 45.124 37.5925C44.058 37.0278 42.9668 36.6482 41.8866 36.044C41.1066 35.6076 40.363 35.3492 39.6489 34.8999C39.4075 34.7483 39.359 34.1532 39.0538 34.0869C38.7033 34.0103 38.4598 34.7181 38.0934 34.772C37.3258 34.8853 36.3987 33.8936 35.8639 33.3193C35.6313 33.0698 35.3002 32.381 35.0098 32.2493C34.4028 31.9733 34.0783 32.5926 33.5388 32.3799C32.7819 32.0814 33.0299 31.0901 32.5501 30.5729C32.1306 30.1216 31.2889 30.1936 30.5907 30.376C27.7782 31.1096 32.3151 33.3238 33.1699 33.7747C34.6076 34.5342 45.0691 40.059 42.8311 43.169C41.6472 44.8142 38.5155 43.7685 37.1266 43.416C34.6912 42.7978 32.1222 41.5068 29.6449 41.3004C29.3386 41.2748 28.4431 41.5812 28.19 41.4782C27.6183 41.2462 27.7331 40.7224 27.2656 40.4721C26.5615 40.0962 25.164 40.1826 24.4734 40.3074C23.9335 40.4052 23.3573 40.8253 22.8023 40.7986C22.1906 40.7691 21.5823 40.3693 20.9722 40.2602C19.928 40.0742 18.8643 40.2404 17.8224 40.3265C16.3248 40.4509 13.3383 40.8674 15.6328 43.1718C17.4898 45.0367 20.582 45.735 22.8481 46.4796C26.2001 47.5799 29.4887 48.5696 32.8068 49.8472C35.0677 50.7172 39.873 52.2057 37.4106 55.9876C37.1363 55.7031 36.8619 55.4191 36.5883 55.1346C36.2983 55.5249 36.0157 56.2711 35.524 56.3158C35.1152 56.3528 35.2404 55.8137 34.8454 55.6657C33.6024 55.2019 31.9353 55.3209 30.6466 55.2839C27.4182 55.1908 24.1888 54.8285 20.9603 54.8223C17.9197 54.8164 14.8636 55.1577 11.9262 56.0677C11.1705 56.3019 4.14601 58.9042 6.96697 60.0973ZM35.0604 96.4429C34.9766 98.0828 35.6388 99.3745 35.8803 100.943C36.1723 102.84 36.1047 104.525 36.6422 106.399C37.6871 110.041 38.4845 113.78 39.5919 117.398C41.5473 123.785 44.4791 129.369 47.4938 135.106C49.0315 138.03 51.2504 140.4 53.29 142.811C55.3796 145.281 57.0723 147.73 59.525 149.723C64.4265 153.707 69.6777 157.208 75.3513 159.216C81.2902 161.319 87.4508 161.748 93.5554 161.154C96.2647 160.891 99.1588 161.086 101.806 160.428C104.621 159.729 107.667 158.889 110.42 157.922C115.475 156.149 120.29 153.318 125.187 150.762C130.655 147.907 135.532 144.362 140.453 140.385C141.755 139.333 143.159 138.804 144.367 137.548C145.385 136.49 146.389 135.477 147.467 134.503C148.704 133.386 149.881 132.174 151.148 131.108C151.906 130.471 152.983 129.831 153.344 128.726C153.841 127.206 153.067 125.363 152.645 123.932C152.095 122.069 151.516 120.23 150.875 118.408C149.789 115.324 147.174 110.611 148.328 107.24C151.192 109.179 152.606 113.189 153.952 116.592C155.561 120.657 156.743 124.732 157.169 129.203C158.026 138.199 157.229 147.747 154.921 156.282C154.578 157.549 153.936 158.937 154.519 160.248C155.131 161.623 156.666 162.736 157.832 163.288C161.519 165.033 165.156 165.42 168.962 166.301C169.999 166.541 171.16 167.354 172.124 167.418C172.776 167.46 173.299 167.178 174.041 167.149C174.786 167.12 175.393 167.596 176.062 167.618C176.646 167.638 177.143 167.202 177.7 167.215C178.946 167.243 179.297 169.803 179.805 167.51C179.921 167.598 180.578 168.413 180.655 168.409C180.831 168.402 181.11 167.757 181.272 167.637C181.589 167.403 182.018 167.37 182.38 167.296C183.179 167.131 184.047 167.077 184.851 167.262C186.341 167.606 187.811 167.362 189.067 167.272C189.353 167.251 189.569 167.52 189.924 167.487C190.085 167.471 190.302 167.114 190.471 167.052C191.451 166.695 192.493 166.877 193.503 166.761C195.874 166.49 198.167 166.304 200.46 165.558C205.159 164.029 210 163.537 214.723 162.119C217.129 161.396 219.492 160.952 221.851 160.038C222.68 159.717 223.538 159.543 224.266 159.124C224.962 158.724 224.658 158.249 225.811 159.177C226.238 157.681 226.304 157.828 227.481 157.284C227.936 157.074 228.98 156.555 229.308 156.168C229.341 156.13 229.973 153.854 230.023 153.575C230.267 152.223 229.938 150.705 229.745 149.364C229.311 146.341 228.748 143.349 228.578 140.29C228.503 138.94 228.3 138.911 227.903 137.91C227.781 137.6 227.466 137.64 227.417 137.161C227.351 136.523 227.872 136.052 227.778 135.307C227.652 134.305 226.768 133.326 226.43 132.403C226.024 131.291 225.971 130.098 225.705 128.94C225.35 127.4 224.737 125.968 224.388 124.421C224.092 123.11 224.02 122.06 223.383 120.955C222.747 119.851 222.874 118.918 222.357 117.813C221.882 116.8 221.325 116.455 220.974 115.22C220.124 112.234 218.909 109.296 217.267 106.808C216.235 113.291 215.129 119.99 211.647 125.241C210.213 127.403 208.334 129.605 206.052 130.352C203.472 131.196 201.292 129.432 199.485 127.307C195.179 122.241 193.219 116.452 192.635 109.333C192.489 107.564 192.414 105.788 192.349 104.014C192.321 103.225 192.559 101.183 192.08 100.541C191.555 99.8371 190.176 100.358 189.424 99.9131C188.5 99.3653 187.44 97.8324 187.778 96.5107C185.451 97.9312 183.249 99.7598 180.61 100.25C179.565 100.445 178.435 100.279 177.491 100.263C177.519 100.263 176.772 100.485 176.727 100.5C176.529 100.249 176.324 100.195 176.113 100.339C175.921 100.373 175.786 100.505 175.708 100.735C171.944 101.372 168.024 99.2939 164.669 97.0539C162.709 95.745 160.53 93.7729 159.869 91.0748C159.633 90.1121 159.754 89.1888 158.899 88.7324C158.204 88.3612 156.927 89.005 156.217 89.1021C153.72 89.4437 151.235 89.2737 148.829 90.2932C147.361 90.9152 144.937 94.9008 143.766 92.234C143.338 92.7681 143.627 93.6691 143.169 94.1908C142.771 94.6454 141.375 95.0186 140.813 95.4182C139.942 96.0367 139.451 96.8279 138.698 97.5573C137.772 98.4538 136.763 98.5674 135.875 99.6099C132.8 103.22 129.124 105.905 125.642 108.943C121.512 112.548 117.904 116.737 113.431 119.73C108.855 122.79 104.41 125.376 99.3325 127.096C97.0294 127.877 94.6616 128.55 92.2743 128.87C91.1484 129.021 90.0673 129.023 88.9963 129.485C88.3459 129.765 88.1377 129.9 87.488 129.954C87.1095 129.985 86.5482 129.747 86.0815 129.779C85.1235 129.846 84.6312 129.822 83.7838 130.246C82.8251 130.726 82.0233 131.026 80.9098 131.116C79.6289 131.221 78.8453 130.662 77.6623 130.35C76.7089 130.099 75.8698 130.28 75 129.706C71.134 127.153 67.9333 123.127 65.7488 118.486C63.2405 113.161 61.1924 106.621 60.5502 100.55C60.1824 97.0748 60.6569 93.6463 61.6063 90.3948C61.8742 89.4774 63.5564 85.5447 62.9486 84.8737C62.2589 84.1114 60.2124 86.0314 59.6299 86.4551C57.7817 87.7983 54.3551 88.3638 53.118 90.5346C52.7401 89.7611 50.9017 91.0217 50.3097 91.3802C49.82 91.6765 49.701 92.1761 49.0716 92.2652C48.4783 92.3489 47.836 91.8042 47.2798 91.6473C47.7441 92.977 46.4016 93.1042 45.4829 93.2195C44.8216 93.3028 44.1019 93.2104 43.5081 93.1879C42.3718 93.1445 42.3389 92.8383 41.2718 92.1869C41.3367 92.698 41.3144 93.2013 41.2059 93.6971C40.4864 92.5666 39.2571 93.4341 38.3355 92.9661C38.9274 91.7459 36.1422 91.5523 35.509 91.8328C33.9154 92.5403 35.1353 94.99 35.0604 96.4429ZM166.094 172.127C165.005 171.793 163.91 171.491 162.818 171.173C163.675 172.037 164.598 173.625 165.772 173.824C167.189 174.063 167.673 172.612 166.094 172.127ZM219.02 170.256C217.229 170.603 215.255 170.497 213.735 171.858C214.557 172.893 215.11 173.99 216.367 173.315C217.422 172.747 218.241 171.235 219.02 170.256ZM161.549 231.759C162.672 230.42 162.489 229.853 161.854 228.218C161.58 227.515 161.096 225.312 160.229 226.006C159.921 226.252 159.649 228.69 159.616 229.184C159.541 230.286 160.247 233.312 161.549 231.759ZM154.515 224.625C154.844 222.748 154.734 220.726 155.054 218.803C155.393 216.773 155.831 214.731 155.885 212.647C149.691 214.28 146.494 221.953 144.081 228.343C142.799 231.739 141.562 235.486 141.196 239.231C140.838 242.881 141.889 245.589 143.111 248.769C143.734 250.392 144.662 250.921 145.764 251.961C146.742 252.882 147.168 254.494 148.18 255.315C148.927 255.922 149.875 256.21 150.655 256.822C151.426 257.426 152.197 258.024 152.99 258.585C153.896 259.225 156.633 261.588 157.788 261.001C158.652 260.561 158.196 259.275 157.935 258.467C157.384 256.764 156.976 255.117 156.601 253.333C155.6 248.57 154.955 243.82 154.523 238.948C154.1 234.19 153.686 229.329 154.515 224.625ZM160.779 246.024C160.696 246.265 160.401 248.298 161.254 247.843C161.846 247.526 160.885 246.39 160.779 246.024ZM153.284 166.2C152.528 165.866 152.284 166.971 151.636 167.034C150.776 167.118 150.54 165.969 149.634 165.978C147.419 165.999 144.337 168.734 142.603 170.167C143.548 171.469 143.976 172.828 143.617 174.504C143.301 175.981 141.905 177.682 142.032 179.225C142.161 180.772 143.804 181.694 144.366 183.049C144.884 184.294 145.179 186.819 143.794 187.444C141.414 188.52 140.597 183.056 138.756 183.101C137.969 183.12 137.033 184.955 136.494 185.537C135.287 186.843 133.902 187.82 132.469 188.717C131.501 189.322 130.17 190.488 129.362 189.023C128.714 187.85 129.106 185.924 129.631 184.863C130.233 183.646 135.876 177.938 135.481 177.478C135.27 177.232 133.834 178.005 133.636 178.229C133.188 178.732 133.053 179.524 132.605 180.059C131.923 180.875 131.007 181.229 130.135 181.633C128.313 182.476 127.263 185.185 125.522 186.506C124.517 187.268 123.948 188.666 123.12 189.767C122.036 191.209 120.933 192.718 121.203 194.753C121.39 196.162 121.722 199.451 122.441 200.613C123.222 201.875 124.394 201.321 125.502 201.575C126.747 201.861 127.786 202.973 127.62 204.64C127.448 206.373 126.315 206.55 125.126 206.65C121.776 206.933 123.134 209.449 122.098 212.333C121.535 213.899 120.503 214.553 119.688 212.79C119.031 211.371 119.973 209.041 119.276 207.836C118.427 206.368 114.288 206.975 113.477 208.186C112.862 209.104 112.571 210.339 111.96 211.298C111.031 212.753 110.716 214.746 110.202 216.5C109.655 218.364 109.19 220.249 108.795 222.171C108.518 223.521 107.882 225.669 109.591 224.446C110.785 223.591 111.619 221.753 113.177 221.622C114.718 221.492 115.69 223.387 115.319 225.093C114.961 226.744 113.005 227.557 112.853 229.22C112.686 231.041 115.337 232.763 116.178 234.055C118.116 237.031 116.781 240.549 113.72 238.09C112.635 237.218 111.456 235.413 110.254 234.887C108.352 234.054 108.525 237.466 107.695 238.764C107.248 239.462 107.042 238.784 107.374 239.78C107.497 240.147 108.033 240.238 108.114 240.698C108.174 241.035 107.931 241.227 107.934 241.489C107.947 242.38 107.952 242.511 108.164 243.471C108.398 244.534 108.395 245.869 108.502 246.956C108.747 249.44 108.887 251.816 109.222 254.294C109.408 255.674 109.794 258.484 108.473 259.223C108.998 260.112 109.76 262.619 110.698 262.383C110.65 262.987 110.729 263.752 110.265 264.168C110.132 263.807 110 263.446 109.867 263.085C109.642 263.935 109.879 264.02 109.922 264.59C109.869 263.885 110.502 265.548 110.193 265.354C110.46 265.598 110.802 265.729 111.2 266.043C111.755 266.481 112.067 267.109 112.511 267.716C113.314 268.815 113.325 269.962 114.038 271.113C115.049 272.746 116.322 274.345 117.382 275.975C118.245 277.301 119.804 278.016 120.514 279.452C120.965 280.366 121.179 281.443 121.904 282.066C122.943 282.958 124.314 283.78 125.44 284.699C126.148 285.276 126.705 286.098 127.411 286.658C127.769 286.941 128.816 287.196 128.847 287.807C130.126 287.305 130.97 285.657 131.946 284.632C132.598 283.946 134.185 283.021 134.024 281.718C133.892 280.652 132.57 279.385 132.227 278.276C131.935 277.338 131.508 275.581 132.15 274.736C133.497 272.965 135.289 276.544 136.102 277.48C137.778 279.412 138.354 277.356 139.584 275.837C141.55 273.41 142.97 275.763 142.377 278.697C142.076 280.182 140.729 281.558 140.709 283.061C140.687 284.713 142.203 285.47 142.851 286.758C143.462 287.973 143.82 290.141 142.832 291.217C141.741 292.404 140.683 291.111 139.885 290.102C139.265 289.317 138.534 287.561 137.585 287.504C136.397 287.434 134.581 290.121 133.719 290.964C135.109 291.377 135.997 292.721 137.195 293.551C138.741 294.624 140.835 294.795 142.541 295.5C144.149 296.165 145.592 296.699 147.133 297.545C148.961 298.549 151.147 298.717 153.066 299.42C154.778 300.048 156.419 300.964 158.162 301.467C160.127 302.034 162.152 302.334 164.13 302.836C165.821 303.265 167.8 303.661 169.518 303.583C171.256 303.504 171.158 302.206 171.631 300.448C172.193 298.359 173.2 296.502 173.803 294.461C174.375 292.52 173.338 291.843 172.308 290.428C171.337 289.094 171.567 288.868 170.445 289.89C168.969 291.235 167.912 290.423 166.647 289.017C165.521 287.767 165.079 286.704 163.592 287.683C162.103 288.662 160.714 290.206 159.097 290.875C157.822 291.403 156.84 291.11 156.542 289.407C156.219 287.567 157.03 286.212 158.079 285.06C158.878 284.184 160.662 283.105 160.903 281.733C161.158 280.288 159.359 278.283 159.101 276.693C158.776 274.686 159.425 273.168 161.076 274.49C162.274 275.448 163.144 277.61 164.746 277.67C164.196 275.444 163.14 273.494 162.217 271.474C161.443 269.784 160.757 267.855 158.892 267.751C158.287 267.718 157.9 267.812 157.32 267.715C156.554 267.586 155.519 267.504 154.697 267.295C152.762 266.804 150.994 265.106 149.19 264.17C148.849 265.497 148.315 269.259 146.572 267.161C145.283 265.609 146.494 262.774 145.292 261.037C142.812 257.452 137.923 260.404 134.805 258.643C133.448 257.876 132.249 255.283 134.069 254.397C135.133 253.879 138.35 255.45 138.943 254.151C139.365 253.224 137.246 249.784 136.964 248.825C136.086 245.838 136.056 242.695 135.908 239.582C134.469 240.38 132.686 242.173 131.11 242.482C129.49 242.799 129.092 240.498 129.448 238.956C129.937 236.833 131.82 235.023 133.102 233.609C133.667 232.986 135.175 231.954 135.458 231.034C135.749 230.084 135.247 229.655 134.831 228.861C134.181 227.621 132.598 224.41 134.094 223.148C135.471 221.987 136.419 225.013 137.36 225.625C138.958 226.664 139.366 224.091 139.918 222.764C140.921 220.357 142.366 218.182 143.652 215.997C144.823 214.009 145.538 212.667 145.606 210.201C145.657 208.333 145.903 206.877 144.067 206.541C140.81 205.944 136.183 208.016 133.417 204.974C131.966 203.38 132.864 201.617 134.601 201.62C136.882 201.624 139.052 201.657 141.331 201.324C142.543 201.148 145.106 201.384 145.648 199.839C146.346 197.849 144.856 194.776 146.231 192.996C147.987 190.723 148.677 195.639 148.804 196.999C148.897 197.99 148.758 199.512 149.31 200.347C149.826 201.125 150.698 201.072 151.417 201.329C153.229 201.974 154.274 204.569 151.942 205.24C151.157 205.466 150.038 205.245 149.412 205.987C148.757 206.764 149.084 208.073 149.067 209.079C150.609 206.686 154.092 207.548 156.289 206.583C157.445 206.074 157.616 205.461 158.046 204.059C158.566 202.362 159.833 200.187 159.798 198.339C159.767 196.771 158.631 195.643 158.063 194.317C157.576 193.179 157.095 191.312 157.097 190.008C157.102 186.865 161.936 189.844 162.958 190.998C164.812 193.092 167.104 195.806 166.302 198.935C165.587 201.728 165.212 203.31 168.138 202.954C169.21 202.823 171.479 202.973 172.287 202.385C172.887 201.948 172.62 201.23 172.59 200.171C172.563 199.254 172.44 197.868 172.889 197.044C174.467 194.147 175.202 201.135 176.2 201.848C177.758 202.964 180.881 201.568 180.803 205.103C180.735 208.196 177.227 207.101 176.399 209.798C176.001 211.098 176.169 212.58 175.649 213.84C174.908 215.637 173.889 215.592 173.255 213.786C172.81 212.518 173.259 211.171 172.906 209.971C172.396 208.235 170.373 208.495 169.115 208.356C167.585 208.187 166.24 207.788 164.77 207.292C162.955 206.681 163.106 207.819 162.895 209.489C162.65 211.425 162.223 213.301 162.001 215.266C161.793 217.096 161.107 219.09 161.066 220.914C161.035 222.308 161.419 222.163 162.41 222.92C163.493 223.747 164.747 225.971 165.973 226.288C167.818 226.765 169.411 221.658 171.187 224.148C171.95 225.217 171.787 227.578 171.336 228.742C170.74 230.279 169.532 230.72 170.642 232.396C171.476 233.655 172.495 234.612 172.65 236.352C172.795 237.967 171.957 239.541 170.51 239.134C169.342 238.805 168.594 237.413 167.681 236.59C166.106 235.17 164.937 236.611 163.438 237.529C162.258 238.251 160.051 238.791 159.518 240.384C158.841 242.405 159.867 243.125 161.274 242.492C160.821 244.738 161.617 245.991 161.928 248.275C162.18 250.124 162.614 251.805 162.924 253.589C163.337 255.971 163.356 255.709 165.401 255.694C167.138 255.68 168.821 255.544 170.549 255.37C172.071 255.216 173.116 255.333 173.079 253.105C173.063 252.122 172.392 248.818 174.013 249.141C175.439 249.426 175.178 252.487 175.704 253.607C176.465 255.229 177.595 254.668 178.899 255.016C180.225 255.369 181.337 256.484 181.085 258.301C180.817 260.241 179.352 260.176 178.106 260.681C176.186 261.458 176.78 264.908 175.73 266.846C175.302 267.637 174.849 268.437 174.038 267.844C172.552 266.754 173.769 263.862 173.323 262.461C172.854 260.988 171.527 261.357 170.25 261.224C168.366 261.028 166.355 260.03 164.491 260.132C164.91 261.415 165.948 262.123 166.374 263.475C166.602 264.199 166.487 265.578 166.784 266.172C167.103 266.81 168.022 266.962 168.441 267.85C168.99 269.014 169.203 270.278 169.834 271.414C171.327 274.098 172.634 276.854 174.211 279.506C175.839 282.245 177.578 284.844 179.574 287.19C181.511 289.468 182.001 288.297 183.477 286.29C184.077 285.473 185.389 284.498 185.511 283.315C185.631 282.149 184.793 281.241 184.314 280.319C183.679 279.097 182.538 276.997 182.72 275.485C183.061 272.647 185.268 275.14 186.108 276.157C187.575 277.932 188.438 279.832 190.453 278.278C191.744 277.283 193.306 274.654 195.102 275.513C196.737 276.296 196.409 278.796 195.488 280.101C194.972 280.831 194.208 281.272 193.656 281.959C192.469 283.44 193.198 283.792 193.847 285.357C194.377 286.638 194.567 289.197 193.755 290.324C192.156 292.54 190.636 288.295 189.054 288.282C188.303 288.276 185.311 290.89 185.132 291.788C184.817 293.364 188.26 295.064 189.186 295.753C191.341 297.354 193.682 298.98 196.068 299.996C198.884 301.196 196.633 297.101 198.071 295.636C199.942 293.731 200.33 298.688 200.589 299.912C201.279 303.167 204.151 303.115 206.503 303.819C208.001 304.267 209.502 304.747 211.011 305.127C212.292 305.449 213.706 305.372 214.953 305.787C216.046 306.151 216.821 306.959 218.022 306.912C218.413 306.896 218.745 306.72 219.121 306.692C219.879 306.633 220.6 307.124 221.323 307.035C222.526 306.887 221.979 306.453 222.351 305.415C222.7 304.441 223.686 304.042 224.453 303.707C226.651 302.746 228.55 303.406 228.711 299.952C228.761 298.892 228.423 294.562 230.109 294.99C232.079 295.488 230.616 300.723 231.883 301.957C232.499 302.557 233.37 302.201 234.086 302.354C235.261 302.603 235.82 303.638 237.087 303.506C238.156 303.396 239.127 302.773 240.034 302.158C241.386 301.24 243.021 300.597 244.12 299.243C245.627 297.386 246.193 294.579 246.757 292.139C247.586 288.545 247.844 284.991 247.827 281.264C247.821 279.965 248.234 279.029 248.368 277.831C248.51 276.556 247.899 276.331 247.704 275.139C247.515 273.98 247.521 272.732 247.259 271.493C246.882 269.712 246.692 267.88 246.324 266.093C245.714 263.138 244.864 260.214 244.141 257.29C243.916 256.382 243.448 253.459 242.498 253.222C241.798 253.046 240.262 254.365 239.638 254.76C238.407 255.542 237.366 256.59 236.035 257.155C235.348 257.446 234.464 257.462 234.043 258.268C233.377 259.544 234.079 261.946 233.848 263.426C233.566 265.239 232.384 266.061 231.317 264.304C230.748 263.368 230.833 262.215 230.712 261.156C230.539 259.628 230.499 259.259 229.131 259.427C227.746 259.599 226.419 260.297 224.997 260.442C223.715 260.573 222.422 260.591 221.134 260.567C218.006 260.51 215.125 260.033 212.137 258.831C210.113 258.016 207.721 256.14 205.542 256.313C202.465 256.559 203.463 259.966 203.164 262.564C202.982 264.145 201.039 269.066 200.018 265.196C199.514 263.282 200.754 260.397 199.857 258.689C198.796 256.671 195.341 258.552 193.71 258.151C192.389 257.826 190.107 255.699 190.935 253.731C191.327 252.799 192.181 252.931 192.932 252.827C194.356 252.63 195.764 252.327 197.17 252.007C197.97 251.825 199.198 251.683 199.467 250.548C199.696 249.586 198.296 247.184 197.974 246.289C196.91 243.324 196.461 240.894 196.301 237.613C196.23 236.135 196.076 234.579 196.203 233.108C196.25 232.569 196.832 230.788 196.496 230.29C196.044 229.621 195.228 230.536 194.908 231.069C194.273 232.13 194.507 232.037 194.947 233.084C195.593 234.624 196.863 237.858 195.033 239.154C193.12 240.51 192.204 236.28 190.357 236.836C189.496 237.096 188.702 238.522 188.03 239.202C187.244 239.998 186.394 240.844 185.45 241.355C183.901 242.192 182.092 241.706 182.618 239.267C183.033 237.343 184.556 235.678 185.634 234.277C187.352 232.045 187.227 231.148 185.849 228.681C185.272 227.648 183.037 223.254 185.363 222.778C186.593 222.525 188.049 224.89 188.749 225.788C189.949 227.33 190.625 227.984 192.237 226.623C193.812 225.294 194.521 224.212 196.493 224.002C198.761 223.761 199.588 219.583 200.693 217.405C203.695 211.489 208.575 208.401 212.594 203.786C214.553 201.537 215.81 198.656 217.252 195.934C217.938 194.637 218.852 193.544 219.395 192.141C219.736 191.258 220.673 189.126 220.355 188.119C219.959 186.865 218.109 186.168 217.312 185.307C216.644 184.585 216.261 183.663 215.279 183.998C214.406 184.296 213.676 185.783 212.982 186.454C212.301 187.112 211.527 187.731 210.761 188.235C209.375 189.148 207.675 189.681 207.469 187.116C207.291 184.896 208.855 182.435 209.997 180.878C210.827 179.744 212.119 178.732 211.861 177.007C211.734 176.151 211.057 174.65 210.67 173.946C209.336 171.522 205.696 173.213 203.686 173.468C201.265 173.776 198.562 173.41 196.729 175.579C196.132 176.287 194.735 177.687 194.47 178.645C194.163 179.76 194.774 180.226 195.151 181.273C195.639 182.626 196.058 185.323 194.888 186.327C192.933 188.004 191.653 183.368 189.592 184.494C187.637 185.561 186.372 188.422 184.11 188.973C181.149 189.694 182.637 185.138 183.609 183.772C184.869 182.001 187.386 180.112 186.414 177.628C186.137 176.918 185.509 175.439 184.988 175.016C183.967 174.185 182.412 174.742 181.292 174.809C178.465 174.981 175.781 174.826 172.981 174.361C172.137 174.221 171.94 174.087 171.387 174.867C170.621 175.946 170.257 177.323 169.357 178.391C170.812 180.11 172.944 182.119 172.122 184.911C171.415 187.314 169.562 186.24 168.286 185.035C167.687 184.469 167.038 183.243 166.27 183.041C165.273 182.779 164.22 183.91 163.442 184.495C162.274 185.374 159.809 187.933 158.37 186.56C156.466 184.744 158.475 181.78 159.668 180.545C160.39 179.799 161.372 179.244 161.966 178.336C162.757 177.129 162.252 176.981 161.69 175.954C160.66 174.074 160.886 171.578 159.314 170.146C158.442 169.352 157.227 168.884 156.248 168.318C155.284 167.761 154.224 166.614 153.284 166.2ZM138.35 174.413C138.702 174.126 139.054 173.838 139.406 173.551C138.549 173.099 138.001 173.184 138.35 174.413ZM119.328 198.759C119.138 197.867 118.488 196.288 117.739 197.166C117.256 197.73 117.908 199.732 116.672 199.228C116.671 200.523 117.462 200.375 116.342 201.581C117.815 201.303 119.865 201.286 119.328 198.759ZM182.047 304.929C181.616 303.737 181.53 301.861 180.433 303.021C180.303 301.559 180.369 296.899 178.176 297.192C177.282 297.312 177.338 298.268 177.14 299.108C176.795 300.574 176.159 301.924 175.635 303.299C177.825 303.302 180.04 303.801 182.047 304.929ZM182.126 321.664C180.932 322.863 180.242 321.547 179.04 321.112C177.93 320.711 176.814 321.036 175.593 320.772C174.08 320.444 172.322 320.588 170.861 320.642C170.501 320.655 169.752 320.76 169.391 320.828C168.732 320.951 168.8 321.114 168.124 321.37C167.856 321.308 167.586 321.267 167.314 321.247C166.983 321.245 166.73 321.423 166.555 321.78C165.951 322.058 165.718 321.903 165.136 322.105C163.75 322.587 162.749 323.661 161.895 325.061C160.157 327.912 160.299 332.065 160.504 335.482C160.563 336.455 160.671 337.42 160.628 338.396C160.589 339.29 160.132 340.661 160.387 341.536C160.773 342.861 161.757 342.512 162.924 342.516C163.61 342.519 164.319 343.02 164.866 343.042C165.395 343.063 165.596 342.818 166.123 342.648C167.496 342.205 169.164 342.664 170.559 343.056C171.99 343.459 173.247 343.863 174.691 344.128C175.631 344.3 176.474 344.383 177.418 344.48C178.192 344.559 178.547 345.033 179.227 345.202C179.884 345.365 180.5 345.045 181.16 345.166C182.06 345.332 182.718 346.091 183.547 346.445C184.69 346.933 186.438 346.039 187.012 347.685C187.13 346.066 188.428 346.442 189.373 346.255C190.93 345.945 192.434 345.022 193.916 344.408C195.131 343.906 199.212 339.608 200.109 341.231C200.1 341.063 199.906 340.119 200.03 340.003C200.468 339.593 200.474 339.807 200.954 339.541C201.688 339.134 201.988 338.784 202.495 338.133C203.521 336.817 204.951 336.085 206.04 334.884C208.778 331.865 209.479 325.881 209.984 321.715C210.994 323.636 210.537 321.131 210.338 320.297C209.868 318.327 210.304 317.324 210.322 315.4C210.338 313.629 209.655 313.311 208.327 313.19C206.69 313.04 205.11 312.796 203.495 312.382C201.952 311.986 200.437 311.528 199.02 310.663C197.724 309.87 196.39 309.598 195.071 308.913C193.615 308.157 192.185 307.358 190.718 306.625C190.057 306.294 187.099 303.844 186.614 304.025C185.619 304.397 186.674 306.489 187.009 307.036C187.869 308.439 189.201 309.045 190.417 309.896C191.513 310.663 194.905 314.383 191.63 314.149C189.46 313.995 187.869 311.332 186.636 314.511C186.201 315.635 185.527 316.551 186.141 317.661C186.998 319.208 189.291 319.856 190.525 320.867C191.576 321.728 193.843 325.916 191.786 326.474C191.195 326.635 190.265 326.508 189.794 325.968C189.477 325.603 189.461 324.824 189.145 324.579C188.698 324.232 187.886 324.727 187.386 324.549C186.673 324.295 186.487 323.842 186.192 323.044C185.465 323.49 185.481 324.043 184.604 323.553C184.313 323.39 184.178 322.75 183.843 322.593C183.393 322.382 183.298 323.147 183.052 323.047C182.384 322.775 182.37 322.434 182.126 321.664ZM226.31 306.925C227.567 306.979 228.939 307.036 229.961 306.021C228.668 306.178 227.541 306.586 226.226 306.324C225.702 306.22 224.847 305.67 224.327 305.9C222.48 306.718 225.807 306.903 226.31 306.925ZM223.456 173.783C223.449 173.25 223.482 166.078 221.593 168.985C221.076 169.78 221.722 170.781 221.841 171.627C222.042 173.054 221.695 174.509 221.127 175.746C220.598 176.898 219.557 177.935 219.79 179.395C219.994 180.676 221.121 181.723 221.702 182.767C222.887 180.223 223.493 176.773 223.456 173.783ZM224.328 98.4957C229.044 98.8682 233.757 99.7009 238.354 101.113C242.867 102.5 247.122 104.801 251.405 106.995C252.053 102.509 252.742 98.0327 253.379 93.544C253.685 91.3834 253.973 89.2186 254.253 87.0518C254.453 85.5112 255.307 82.6163 254.822 81.1332C254.565 80.3476 254.276 80.3581 253.781 79.8887C253.479 79.6023 252.942 78.8923 252.636 78.7494C251.891 78.4023 250.009 78.1565 249.268 78.2462C248.592 78.3278 248.253 78.6701 247.545 78.4678C246.941 78.2955 246.417 77.7675 245.845 77.4912C244.39 76.7884 242.608 76.6145 241.072 76.2792C239.594 75.9564 238.083 75.9409 236.602 75.622C235.305 75.3423 234.641 74.2318 233.551 74.3248C230.712 74.5676 227.547 74.3149 224.686 73.6282C221.477 72.8579 218.041 73.1998 214.788 73.2557C213.492 73.2781 212.566 72.9697 212.642 74.7106C212.736 76.8356 213.551 79.1867 214.008 81.2435C215.022 85.8038 215.908 90.2413 216.43 94.8961C216.692 97.2242 217.476 97.0232 219.082 97.6648C220.868 98.3786 222.458 98.3482 224.328 98.4957ZM251.217 144.497C250.072 144.758 250.022 140.936 249.901 140.164C247.446 146.569 244.632 152.754 242.515 159.348C242.02 160.89 241.579 162.465 241.051 163.99C240.689 165.035 239.837 166.454 239.916 167.645C239.999 168.888 240.853 169.314 241.751 169.734C242.722 170.187 243.104 170.418 243.744 169.81C244.519 169.074 245.092 166.892 245.541 165.832C246.228 164.214 246.882 162.575 247.552 160.946C248.767 157.995 250.231 155.155 251.198 152.071C252.104 149.182 253.563 146.664 254.552 143.821C255.531 141.006 256.927 138.315 258.076 135.55C256.762 134.966 255.087 133.431 253.634 133.59C252.133 133.755 252.253 135.508 252.257 136.974C252.262 138.53 252.959 144.1 251.217 144.497ZM248.868 173.017C249.601 173.969 251.178 174.474 252.154 174.974C253.505 175.668 254.884 176.276 256.23 176.985C260.646 179.313 265.034 181.428 269.52 183.545C271.84 184.639 274.135 185.81 276.406 187.047C277.596 187.695 280.261 190.036 281.595 190.035C283.123 190.034 282.982 186.312 283.251 184.9C283.478 183.719 283.959 182.785 284.258 181.662C284.381 181.202 284.253 180.865 284.45 180.406C284.675 179.884 285.354 179.44 285.692 178.983C287.127 177.04 288.277 174.599 289.464 172.431C290.552 170.444 292.448 167.932 292.901 165.54C293.792 160.838 287.208 158.572 284.646 156.821C280.161 153.757 275.652 150.604 271.352 147.167C269.394 145.601 267.471 143.968 265.504 142.417C264.586 141.694 262.001 138.833 260.92 139.947C260.518 140.363 260.562 141.456 260.413 142.037C260.088 143.308 259.557 144.429 259.02 145.58C258.542 146.6 257.845 147.663 257.57 148.789C257.242 150.131 257.296 150.879 256.637 152.1C255.438 154.321 254.942 156.841 253.837 159.1C252.771 161.277 251.725 162.896 251.075 165.304C250.702 166.683 250.069 167.922 249.518 169.201C249.259 169.805 248.986 170.399 248.758 171.022C248.348 172.136 248.185 172.13 248.868 173.017ZM286.656 189.42C287.516 190.094 288.674 188.837 289.474 188.782C289.822 188.758 290.184 189.07 290.416 189.05C291.115 188.991 291.66 188.396 292.291 188.101C295.207 186.737 298.751 186.521 301.174 183.918C305.986 178.747 303.109 168.967 301.885 162.6C301.635 161.302 301.212 159.508 302.035 158.396C302.938 157.176 304.412 157.808 305.334 158.716C306.281 159.646 306.957 160.981 307.759 162.082C309.037 163.836 310.419 165.485 311.812 167.103C316.763 172.851 322.03 179.448 328.012 183.554C330.5 185.263 332.791 187.629 335.489 188.893C338.734 190.413 335.177 184.118 334.558 183.097C330.506 176.415 324.823 171.244 319.981 165.44C319.067 164.344 317.773 162.87 317.68 161.234C317.54 158.777 319.348 158.912 320.801 159.527C322.161 160.102 322.902 161.659 324.023 162.694C325.419 163.982 327.026 165.004 328.56 166.025C331.868 168.225 335.355 170.038 338.828 171.802C340.453 172.627 342.085 173.432 343.716 174.238C344.164 174.459 346.867 176.334 346.661 174.626C346.633 174.397 344.853 172.035 344.643 171.954C343.598 171.55 343.155 172.94 342.158 171.194C341.45 169.954 341.329 169.299 340.368 168.378C340.205 168.222 340.078 167.812 339.939 167.549C339.96 167.649 339.226 166.865 339.365 167.001C339.174 166.815 338.891 166.471 338.732 166.244C337.964 165.15 336.589 165.194 335.906 163.935C335.645 163.456 335.75 162.82 335.441 162.347C335.008 161.682 334.114 161.433 333.616 160.855C333.188 160.358 332.836 159.952 332.571 159.648C332.389 159.439 332.079 159.301 331.864 159.061C331.327 158.466 331.341 157.915 330.607 157.428C329.947 156.991 329.675 157.442 329.4 156.295C328.653 156.932 328.708 156.049 328.364 155.435C327.915 154.636 327.378 154.295 326.786 153.73C325.483 152.485 324.228 150.6 323.094 149.009C320.275 145.053 317.924 140.382 316.899 135.299C316.653 134.084 316.491 132.852 316.358 131.614C316.287 130.963 316.388 129.365 316.023 128.741C315.456 127.774 314.489 128.214 313.717 127.816C313.455 127.68 313.183 127.257 312.939 127.17C312.598 127.048 312.195 127.202 311.841 127.085C311.704 127.04 311.65 126.562 311.424 126.512C310.981 126.411 310.555 126.624 310.123 126.652C309.177 126.712 308.233 126.555 307.308 126.234C306.466 125.942 305.739 125.215 304.902 124.98C304.988 125.004 303.552 125.211 303.625 125.11C303.536 124.684 303.446 124.258 303.357 123.832C302.831 124.32 300.993 125.018 300.409 124.94C299.47 124.815 299.618 123.792 298.892 125.161C298.423 124.711 297.954 124.262 297.485 123.812C297.228 125.544 294.858 124.822 293.806 124.967C292.324 125.172 291.136 124.89 289.809 125.581C288.196 126.422 286.787 127.294 285.02 127.587C283.785 127.791 283.302 128.52 282.107 129.013C280.5 129.676 280.402 130.326 281.009 132.32C281.501 133.936 281.92 135.181 281.394 136.888C280.461 139.916 277.6 141.281 275.816 143.428C280.403 146.957 284.932 150.428 289.384 154.209C291.249 155.793 293.228 157.374 294.365 159.836C295.413 162.109 296.078 164.868 296.761 167.322C298.326 172.948 294.861 176.949 291.233 179.629C290.482 180.183 285.527 188.535 286.656 189.42ZM294.256 195.948C294.467 194.841 294.419 194.551 293.526 194.2C293.188 194.067 291.911 193.934 291.732 194.492C291.326 195.759 293.767 195.626 294.256 195.948ZM253.326 118.454C253.128 120.896 252.936 123.339 252.772 125.785C252.682 127.136 252.388 128.341 253.265 129.316C253.763 129.869 254.916 130.029 255.532 130.307C256.42 130.709 257.289 131.176 258.148 131.663C259.68 132.533 261.261 133.026 262.768 133.804C263.424 134.142 263.837 134.85 264.413 135.324C265.202 135.974 266.138 136.263 266.949 136.878C268.398 137.977 269.742 139.297 271.191 140.404C272.833 141.659 273.142 141.216 273.935 139.208C274.647 137.406 275.564 136.556 276.644 135.119C277.064 134.56 278.514 131.419 277.146 131.219C276.796 131.168 275.626 131.855 275.364 132.07C274.966 132.396 274.389 134.167 274.054 134.213C273.452 134.295 272.578 132.251 272.175 131.722C269.535 128.248 266.648 124.824 263.637 121.818C262.076 120.26 260.447 118.85 258.702 117.616C257.462 116.738 256.356 115.478 255.134 114.648C254.872 114.399 254.581 114.225 254.259 114.129C253.627 113.82 253.41 114.123 253.607 115.036C253.297 115.953 253.407 117.454 253.326 118.454ZM307.203 112.702C306.567 111.992 305.781 111.438 305.218 110.639C304.9 110.188 304.666 109.366 304.314 109.082C303.701 108.586 302.87 108.868 302.153 108.198C301.459 107.551 300.84 106.766 300.161 106.093C298.69 104.634 297.179 103.301 295.732 101.813C294.91 100.968 294.037 99.8616 293.316 99.312C293.125 99.1663 292.908 98.9461 292.707 98.8364C292.278 98.6023 292.082 98.8708 291.461 98.6629C291.05 98.5258 290.733 97.9232 290.396 97.6468C289.594 96.9897 288.58 96.7626 287.808 96.1303C287.036 95.4981 286.631 94.4783 285.586 93.97C284.322 93.3556 283.424 93.9315 282.472 92.6864C282.084 92.1791 281.953 91.5224 281.367 91.2185C280.661 90.852 280.078 91.3044 279.401 90.882C278.944 90.597 278.611 89.9697 278.139 89.6568C277.293 89.0978 276.386 89.0777 275.586 88.3742C274.911 87.7812 275.272 87.8278 274.496 87.601C274.155 87.5012 273.78 87.4692 273.414 87.3383C272.243 86.9195 270.34 86.4294 269.597 85.1457C269.281 85.7706 269.168 85.8998 268.599 85.7374C268.291 85.4624 268.007 85.1572 267.744 84.8218C267.577 85.1056 267.384 85.1314 267.167 84.8987C265.931 84.453 264.778 83.6412 263.561 83.2181C263.397 83.3364 263.233 83.455 263.07 83.5732C262.835 83.6001 262.733 83.4659 262.764 83.1697C262.289 83.0884 261.736 82.8647 261.292 82.6576C260.441 82.2601 259.476 81.2656 258.516 81.6837C256.912 82.3819 257.026 86.4089 256.82 88.0168C256.313 91.9795 255.801 95.9406 255.291 99.9026C255.083 101.515 254.911 103.137 254.612 104.727C254.417 105.765 253.882 107.309 254.153 108.39C254.486 109.716 255.588 110.101 256.521 110.677C257.808 111.471 259.057 112.36 260.283 113.286C265.488 117.22 269.493 122.779 273.323 128.496C273.925 127.31 275.61 125.605 276.683 125.033C277.434 124.632 278.14 124.893 278.885 124.412C279.416 124.069 279.839 123.427 280.336 123.003C283.372 120.414 287.081 118.218 290.688 117.076C298.089 114.733 305.574 117.459 312.911 118.573C311.32 116.193 309.041 114.754 307.203 112.702ZM253.864 48.617C252.341 43.6273 249.948 38.8402 246.693 35.1974C245.052 33.361 243.151 31.7781 241.058 30.8132C239.238 29.9745 237.083 29.1895 237.252 32.1573C237.619 38.6001 239.154 44.9138 239.612 51.3624C240.06 57.6817 239.425 62.8014 236.498 68.05C238.533 68.5177 240.567 68.9938 242.596 69.4978C244.137 69.8805 245.737 70.3163 247.189 70.5604C248.624 70.8011 249.941 70.9399 251.373 71.4534C252.338 71.7992 253.879 72.9239 254.891 72.6156C256.574 72.1035 255.82 64.7413 255.822 62.9634C255.83 57.9433 255.317 53.3791 253.864 48.617ZM223.198 59.8236C220.708 56.5223 218.101 52.6565 214.156 52.209C210.342 51.7766 209.208 57.3275 209.624 61.0139C209.765 62.2615 210.074 65.5035 210.875 66.4814C211.761 67.5633 213.198 66.6475 214.247 66.4243C218.777 65.4603 223.517 66.484 228.095 66.2661C226.462 64.1178 224.823 61.9787 223.198 59.8236ZM205.113 74.3233C203.539 74.6736 202.284 75.0267 203.155 77.1738C204.898 81.4743 206.276 85.5927 205.158 90.4244C204.304 94.1145 201.262 98.6895 198.046 99.5739C196.919 99.8839 195.184 99.5077 194.55 100.939C193.986 102.213 194.839 105.915 194.978 107.294C195.494 112.431 196.829 117.488 199.78 121.404C202.407 124.888 205.536 127.563 208.945 123.994C211.819 120.987 213.352 115.777 214.034 111.356C214.398 108.995 214.345 106.66 214.322 104.267C214.302 102.15 214.572 100.794 212.573 100.45C212.037 100.358 210.715 100.458 210.666 99.48C210.601 98.1664 212.06 98.5908 212.606 98.4983C214.713 98.1421 213.579 95.2129 213.29 93.2973C212.797 90.0359 212.099 86.8207 211.444 83.5998C210.887 80.8561 210.692 77.2354 209.645 74.6953C209.034 73.2122 206.164 74.0894 205.113 74.3233ZM201.675 84.2149C201.35 82.4448 201.115 80.2244 199.605 79.3095C197.946 78.3041 197.225 80.1052 196.5 81.5834C194.577 85.5045 192.419 89.1911 192.299 93.9513C192.285 94.5188 192.139 95.6642 192.608 96.0341C192.818 96.1996 193.277 95.7158 193.59 95.7281C195.264 95.7935 196.495 96.276 198.076 95.061C201.168 92.6832 202.461 88.4862 201.675 84.2149ZM189.608 95.4838C189.755 91.3197 191.165 87.5658 192.77 83.9795C193.561 82.2112 195.167 80.2428 195.683 78.3901C195.96 77.3975 195.33 76.2147 194.176 76.6896C193.601 76.9262 192.564 78.8537 192.204 79.5208C191.279 81.235 190.535 83.1332 189.827 84.9909C189.07 86.9757 186.997 94.2272 189.608 95.4838ZM198.171 53.6781C197.799 49.7845 197.567 45.3039 195.321 42.1647C193.58 39.7306 190.559 38.7785 188.104 37.9223C184.798 36.7685 180.891 36.7521 177.518 37.3363C174.549 37.8509 172.412 40.4147 170.698 43.2037C168.954 46.0397 167.67 49.6458 166.533 52.9035C166.249 53.7186 163.757 58.9798 165.602 58.7723C166.334 58.6899 166.889 56.9282 167.427 56.3902C167.849 55.9687 168.373 55.9936 168.752 55.6545C169.159 55.2909 169.052 54.9777 169.36 54.538C171.482 51.5143 173.641 53.0946 176.152 54.5145C176.218 53.4918 175.928 51.6113 176.597 50.8343C177.472 49.8173 178.508 51.313 179.205 52.0375C179.839 52.6975 180.64 53.917 181.416 54.2534C182.423 54.6901 182.064 54.192 182.899 53.7453C184.581 52.8456 186.019 55.2027 186.956 56.5686C187.306 57.0782 187.9 58.3782 188.488 58.4925C189.056 58.6027 189.107 58.1156 189.582 57.9137C190.929 57.3437 191.364 58.5062 191.87 59.9513C192.44 61.5763 192.934 63.1444 193.734 64.6495C195.15 67.3125 195.745 68.1823 194.871 71.239C196.369 71.4347 196.691 71.6338 197.352 70.0061C198.033 68.3285 198.165 66.9574 198.028 65.073C197.74 61.1319 198.553 57.6771 198.171 53.6781ZM164.571 73.99C163.177 77.4577 162.414 82.2273 162.614 86.0931C162.714 88.0107 162.919 90.3655 163.743 92.0704C164.534 93.7061 166.062 94.4715 167.467 95.1175C170.855 96.6754 174.577 96.4783 178.016 95.5482C179.801 95.0649 181.568 95.2382 183.05 93.8551C184.164 92.8138 185.519 91.7897 185.774 89.9661C185.88 89.2029 185.63 88.5791 185.641 87.8347C185.567 87.4843 185.572 87.139 185.654 86.7978C185.851 86.6471 186.048 86.5 186.248 86.3565C186.384 85.785 186.043 85.1715 186.094 84.5791C186.157 83.8637 186.618 83.262 186.815 82.6067C187.359 80.8006 186.863 79.8282 185.629 78.6779C185.334 78.4234 185.038 78.1719 184.741 77.9227C184.461 77.4458 184.179 77.4574 183.892 77.9566C183.332 77.9925 183.358 78.2005 182.759 78.0212C181.446 77.6281 180.284 76.0198 178.991 75.4968C178.489 75.2934 177.765 75.521 177.346 75.1219C176.971 74.7651 177.163 73.9705 176.832 73.6185C175.776 72.4939 174.255 73.6802 173.248 72.0201C172.427 70.6658 172.493 68.6852 172.34 67.1101C170.047 67.7561 169.17 70.4886 167.329 71.9299C166.868 70.1833 166.816 70.2384 165.338 69.8232C166.067 71.2646 165.07 72.7489 164.571 73.99ZM161.905 55.341C161.509 56.026 161.261 57.6923 162.022 57.8159L161.905 55.341ZM160.211 61.4392C156.671 61.6165 154.665 67.1318 153.791 70.5308C152.841 74.2273 151.888 79.1422 154.154 82.5904C155.023 83.9124 156.015 83.9904 157.301 83.7523C158.85 83.4655 159.636 83.1551 158.93 81.1711C157.607 77.4534 158.239 72.6171 160.115 69.3631C157.297 68.8453 158.917 65.6732 160.26 64.451C161.83 63.024 163.07 61.2958 160.211 61.4392ZM250.349 253.084C251.309 255.714 252.282 258.335 253.112 261.051C253.899 263.626 253.654 266.581 254.598 269.047C255.09 268.72 255.209 268.176 255.634 267.828C255.896 267.612 256.366 267.51 256.588 267.276C256.97 266.876 257.875 265.407 258.112 264.844C258.931 262.892 258.176 259.819 257.597 257.881C256.879 255.481 255.74 253.198 254.268 251.35C253.235 250.055 252.721 250.507 251.457 251.229C250.71 251.656 249.933 251.944 250.349 253.084ZM257.662 273.843C258.404 275.437 259.698 276.719 260.506 278.324C261.355 280.008 262.027 281.92 263.08 283.447C264.151 285.004 265.033 284.693 266.436 285.32C266.94 285.544 267.169 285.995 267.582 286.335C268.356 286.972 269.189 287.346 269.998 287.907C270.475 286.236 271.777 277.898 273.942 277.972C275.825 278.036 275.071 282.405 274.89 283.692C274.737 284.779 274.556 285.884 274.294 286.939C274.03 288.005 273.127 289.625 273.543 290.759C274.073 292.201 275.213 292.05 275.735 290.955C276.172 290.039 276.358 288.814 276.665 287.826C276.935 286.957 278.132 282.214 279.394 282.881C280.609 283.523 278.986 288.143 278.721 289.048C278.08 291.233 276.753 293.367 278.719 295C281.702 297.479 285.316 299.28 288.609 301.013C290.53 302.024 292.28 303.391 294.285 304.191C296.147 304.934 298.259 304.975 300.067 305.845C300.512 306.06 300.235 306.366 300.875 306.472C301.411 306.561 302.324 306.21 302.894 306.189C303.838 306.155 304.788 306.197 305.722 306.009C306.249 305.903 307.423 305.144 307.287 306.312C308.026 306.025 308.272 305.096 308.793 304.498C309.256 303.965 309.866 303.659 310.392 303.233C311.478 302.352 312.275 301.369 312.537 299.776C313.154 296.034 311.295 292.26 309.103 289.777C307.845 288.352 306.393 287.187 305.228 285.644C304.819 285.102 304.517 284.465 304.01 284.033C303.39 283.504 302.572 283.474 301.97 282.937C301.522 282.538 301.362 281.875 300.896 281.511C300.205 280.974 299.44 281.247 298.778 280.529C298.4 280.12 297.078 278.168 297.137 277.607C296.808 277.759 296.478 277.911 296.149 278.063C295.885 276.834 294.045 275.391 293.144 274.839C292.689 274.56 291.83 274.616 291.487 274.309C291.03 273.899 291.023 272.997 290.651 272.474C289.584 270.976 287.471 270.381 286.104 269.367C284.365 268.077 282.666 266.603 281.077 265.053C277.864 261.922 274.989 258.243 272.59 254.188C271.623 252.554 270.719 250.885 270 249.078C269.558 247.966 269.074 245.975 268.083 245.365C267.06 244.735 264.827 245.76 263.721 245.91C262.097 246.13 259.551 246.163 258.135 247.2C256.622 248.31 257.933 249.106 258.796 250.301C260.059 252.051 260.87 254.229 261.561 256.368C262.093 258.013 262.254 259.622 262.63 261.288C263.028 263.049 263.139 265.448 262.492 267.115C261.851 268.765 256.826 272.051 257.662 273.843ZM320.86 303.659C324.096 297.717 320.787 289.402 317.131 284.899C312.719 279.465 306.67 276.579 301.608 272.231C295.755 267.203 289.767 262.558 284.508 256.585C281.843 253.557 279.491 250.268 277.33 246.705C275.496 243.679 274.075 239.601 270.647 239.314C272.801 242.245 273.126 246.599 274.84 249.895C276.655 253.385 279.221 256.237 281.822 258.863C287.313 264.406 293.198 269.443 299.078 274.352C302.079 276.856 305.006 279.485 307.997 282.003C310.677 284.259 313.47 286.164 315.121 289.718C317.97 295.847 318.563 305.102 313.096 309.221C315.974 308.382 319.178 306.746 320.86 303.659ZM2.3617 57.8115C3.2809 55.2512 5.18505 54.2643 7.09299 53.1889C8.96042 52.1367 10.6526 50.8693 12.76 50.4608C13.6969 50.279 16.3742 50.4921 16.4198 48.8341C16.4579 47.4527 13.6118 46.2036 12.9209 45.1854C11.897 43.6762 11.1314 41.1832 11.4064 39.2024C11.6672 37.3239 13.1379 36.6644 14.5213 36.2604C18.824 35.0045 23.4891 35.5554 27.8736 35.7787C27.2964 34.9016 26.5083 34.1971 26.0286 33.1365L25.4193 34.9073C24.978 33.9322 24.5045 32.9771 23.9702 32.0698C23.6601 32.5354 23.3496 33.0016 23.0399 33.4673C23.4797 31.1044 21.6269 31.2046 21.7282 29.2256C21.7676 28.4559 22.181 28.0999 22.2569 27.479C22.4059 26.2448 21.5872 25.5164 22.4237 24.3387C23.3546 23.0271 24.9993 23.4515 26.1587 23.5146C26.3042 23.5229 26.5307 23.8591 26.7191 23.8783C26.9805 23.9056 27.1093 23.467 27.4312 23.4748C28.2941 23.4952 29.0908 24.2662 29.9575 24.4707C33.9736 25.4189 38.0336 27.2576 41.9268 28.9693C45.8899 30.7118 49.7975 32.7744 53.3166 35.6377C57.0832 38.7022 59.8906 42.7386 62.9709 46.7006C64.4187 48.5625 65.9097 50.3455 67.0476 52.5159C67.6356 53.6374 68.2894 57.2169 69.2746 57.6948C70.3446 58.214 72.8899 56.4809 73.9423 56.1333C76.4193 55.3159 78.9043 54.9057 81.4845 54.9233C83.5367 54.9365 85.6932 54.7678 87.7378 54.9736C88.9247 55.0931 91.9365 56.5331 92.2092 58.2905C92.3296 59.0716 91.6165 59.7597 91.4847 60.5033C91.285 61.6281 91.7583 62.787 91.5207 63.9159C91.036 66.2176 88.3236 67.1852 86.736 67.9783C82.3033 70.1934 77.7875 71.9621 73.298 73.9698C71.3472 74.8425 69.7067 76.162 67.9655 77.4913C66.5213 78.5931 65.2078 79.6892 66.8085 81.5529C68.3247 83.3186 68.1815 84.067 67.8761 86.6133C67.5542 89.3004 67.527 92.0031 67.0674 94.6709C66.6103 97.3274 65.6416 99.8906 65.9858 102.662C66.33 105.424 67.4151 108.227 68.4238 110.725C69.443 113.249 70.554 115.738 71.6489 118.218C72.6616 120.511 73.7501 122.833 75.8834 123.731C79.9566 125.444 85.0298 124.9 89.1471 124.012C93.8205 123.003 98.6234 121.441 102.982 119.198C107.172 117.042 111.741 113.824 115.116 110.117C116.918 108.137 118.901 106.639 120.829 104.852C122.783 103.042 124.218 100.657 125.904 98.5197C129.207 94.3314 133.378 91.3553 137.701 88.9333C142.561 86.2108 147.713 86.2243 152.976 85.7045C152.051 83.773 150.893 81.9399 150.396 79.7643C149.879 77.4984 150.057 75.0011 150.207 72.7056C150.498 68.2375 151.263 64.2809 153.415 60.5814C154.398 58.8893 155.577 57.5507 157.335 57.2282C158.399 57.0324 160.427 57.9325 161.148 56.799C161.466 56.2993 161.338 55.2862 161.524 54.6804C161.689 54.1426 162.045 53.5925 162.225 53.0083C162.993 50.5111 163.995 48.2887 164.987 45.907C165.382 44.96 165.657 43.5766 166.219 42.7686C166.524 42.3291 166.933 42.1164 167.101 41.7975C167.414 41.201 167.521 40.1324 167.774 39.4638C168.206 38.3196 168.776 37.2484 169.446 36.2892C170.517 34.7561 171.924 33.3812 173.454 32.5701C174.304 32.1194 174.936 31.9923 175.847 32.009C176.114 32.0138 176.418 32.1851 176.683 32.148C177.317 32.0591 177.204 31.7882 177.708 31.6358C181.081 30.6145 185.716 31.6016 188.988 32.9285C192.435 34.326 195.272 36.2501 197.497 39.8444C202.963 48.6719 202.348 60.4353 200.687 70.5237C201.959 70.0525 203.223 69.5063 204.51 69.0971C205.299 68.8461 206.391 68.8344 207.08 68.291C208.613 67.0825 207.184 64.2361 207.085 62.3577C206.833 57.5851 208.342 50.0311 212.313 47.8213C216.451 45.5185 221.886 51.1707 224.665 54.3903C226.448 56.4557 228.086 58.6951 229.8 60.8413C230.997 62.3413 232.599 64.7474 234.55 64.2476C238.804 63.158 237.024 53.3452 236.674 50.0164C236.121 44.7541 235.223 39.4237 234.968 34.1339C234.812 30.9183 235.067 26.5583 238.317 26.0256C242.791 25.2929 247.288 30.0335 250.092 33.712C257.488 43.4119 259.647 56.5955 258.396 69.2688C258.212 71.127 257.454 73.444 259.161 74.5108C261.404 75.9125 264.223 76.6917 266.609 77.6856C271.944 79.9071 276.932 82.9721 281.998 85.9586C287.013 88.9156 291.949 91.8528 296.532 95.7521C301.101 99.6391 305.637 103.773 309.843 108.226C311.939 110.445 313.97 112.769 315.898 115.202C317.712 117.491 319.218 120.118 321.173 122.245C322.503 123.694 324.915 125.606 325.301 127.894C325.613 129.741 323.082 131.151 321.952 132.065C321.178 132.692 320.622 132.701 320.614 133.753C320.604 135.065 321.846 137.108 322.312 138.336C323.499 141.469 324.978 144.041 326.884 146.605C331.105 152.285 336.105 157.032 340.874 162.029C345.305 166.672 349.648 171.242 353.013 177.104C353.838 178.541 355.86 181.475 354.141 182.938C353.696 183.317 352.292 183.666 351.804 183.306C351.199 182.859 351.46 182.13 350.749 181.686C350.998 183.278 344.835 180.438 344.353 180.17C343.052 179.448 341.865 178.585 340.54 177.946C339.762 177.57 339.643 177.001 339.035 176.57C338.709 176.339 338.721 176.669 338.294 176.537C337.909 176.416 337.02 176.406 336.717 175.98C336.709 175.968 336.35 174.917 336.622 175.125C335.557 174.313 335.013 175.645 335.687 176.84C337.677 180.371 340.103 182.923 341.023 187.237C341.356 188.804 341.938 191.714 341.208 193.191C341.182 193.245 340.906 193.105 340.876 193.163C340.848 193.217 340.579 193.723 340.465 193.868C339.799 194.717 339.861 195.078 338.683 195.1C338.16 195.109 337.116 195.078 336.624 194.816C336.255 194.619 336.054 194.099 335.769 193.924C335.48 193.747 335.509 193.646 335.241 193.548C335.186 193.527 335.109 194.087 335.006 194.068C334.439 193.967 334.178 193.574 333.687 193.271C332.269 192.398 330.875 191.43 329.523 190.547C328.162 189.658 327.117 188.379 325.754 187.336C324.306 186.229 323.124 185.383 321.976 183.805C321.181 182.712 320.277 182.343 319.753 181.812C319.131 181.18 317.993 178.684 317.026 178.426C316.586 178.309 316.262 178.789 316.015 178.61C315.738 178.41 316.01 177.986 315.864 177.752C315.592 177.315 315.558 177.242 315.112 176.85C314.542 176.35 313.866 176.24 313.375 175.575C312.83 174.836 312.72 173.983 312.06 173.297C310.472 171.647 309.045 169.898 307.371 168.305C308.184 172.427 308.991 176.52 308.714 180.765C308.447 184.878 307.097 186.779 304.374 188.99C303.775 189.477 303.155 190.173 302.504 190.529C302.108 190.745 301.492 190.657 301.196 190.816C300.197 191.355 300.592 192.341 300.506 193.478C300.372 195.24 299.103 196.652 298.308 198.058C297.639 199.241 296.459 201.915 295.267 202.369C294.191 202.778 293.087 201.283 292.145 200.669C290.725 199.743 289.196 199.103 287.711 198.361C284.808 196.914 281.987 195.155 279.112 193.615C277.799 192.911 276.494 192.661 275.12 192.232C273.468 191.717 272.029 190.649 270.436 189.949C267.57 188.69 264.809 187.158 261.958 185.829C256.055 183.079 249.676 181.3 244.336 177.007C241.92 175.065 238.925 174.989 236.545 173.103C234.065 171.137 235.374 167.887 236.272 165.287C238.725 158.184 240.043 150.865 243.576 144.332C245.411 140.938 247.09 137.441 248.66 133.851C250.05 130.673 249.851 127.158 250.07 123.634C250.216 121.278 250.346 118.913 250.551 116.565C250.68 115.072 251.238 113.173 250.392 111.866C249.484 110.462 247.46 109.942 246.163 109.24C244.552 108.368 242.986 107.421 241.323 106.697C237.522 105.042 233.55 103.961 229.6 103.027C228.423 102.749 223.336 100.6 222.456 102.042C223.663 102.926 224.084 104.615 224.675 106.051C225.555 108.192 226.456 110.229 227.131 112.484C228.526 117.147 229.75 121.893 230.933 126.635C232.107 131.344 233.465 136.082 233.988 140.965C234.255 143.458 234.273 145.964 234.395 148.467C234.526 151.137 235.109 153.735 235.155 156.416C235.185 158.199 235.163 160.344 234.372 161.904C233.64 163.349 232.287 163.57 231.138 164.38C229.621 165.447 229.029 165.9 229.117 168.061C229.22 170.58 229.473 173.047 229.397 175.572C229.135 184.368 227.194 194.884 222.652 201.881C222.35 202.347 213.597 217.177 212.452 215.121C211.782 216.185 210.724 216.613 209.881 217.552C208.557 219.029 207.245 220.222 206.177 222.024C204.234 225.302 202.631 229.113 202.3 233.203C202.017 236.723 202.486 240.892 204.264 243.847C206.047 246.811 209.644 248.64 212.359 250.012C215.928 251.814 219.466 251.868 223.215 251.195C225.066 250.863 226.895 250.395 228.726 249.948C229.488 249.762 230.385 249.718 231.096 249.334C231.859 248.922 232.104 248.494 232.881 248.411C233.461 248.348 233.787 248.489 234.395 248.304C235.147 248.076 235.957 247.687 236.706 247.415C237.538 247.112 238.213 246.705 238.968 246.186C239.668 245.705 240.475 245.581 241.148 245.125C242.309 244.339 242.62 243.103 244.269 243.701C246.01 244.333 245.738 246.134 246.886 247.305C247.906 248.346 249.057 247.284 249.99 246.592C251.363 245.573 252.798 244.711 254.274 243.919C255.868 243.063 257.502 242.307 259.174 241.691C261.003 241.017 263.037 240.803 264.785 239.865C266.322 239.042 266.929 237.56 268.003 236.152C269.133 234.671 270.732 234.051 272.399 234.098C275.433 234.186 277.686 238.037 279.414 240.703C284.241 248.153 289.484 254.446 295.735 260.181C298.722 262.92 302.051 265.212 304.949 268.065C306.171 269.269 307.071 270.409 308.493 271.28C310.36 272.425 312.074 273.891 313.869 275.198C320.889 280.305 326.226 287.978 324.847 298.394C324.227 303.083 322.701 306.426 319.693 309.373C318.327 310.711 317.072 311.829 315.252 311.842C313.533 311.854 312.016 311.854 312.909 309.34C311.652 309.88 310.637 311.113 309.268 311.784C307.691 312.558 305.617 313.092 303.909 313.216C301.175 313.414 297.872 311.823 295.439 311.198C294.759 311.024 293.452 310.747 292.652 310.022C292.016 309.446 292.114 308.723 291.181 308.48C289.959 308.161 289.521 308.623 288.325 307.796C286.591 306.595 284.74 305.921 282.948 304.825C280.534 303.346 278.2 301.662 275.805 300.135C275.546 301.179 274.021 307.377 272.76 304.484C271.662 301.965 274.725 299.618 272.676 297.113C270.721 294.723 270.461 297.346 268.734 298.58C266.336 300.294 266.566 297.295 267.201 295.495C267.455 294.775 268.009 293.681 267.792 292.866C267.372 291.292 266.352 292.276 265.522 292.478C264.215 292.797 263.128 292.409 262.087 291.387C261.219 290.535 259.817 289.83 259.262 288.679C258.984 288.102 258.902 287.297 258.664 286.682C258.351 285.872 258.166 286.08 258.017 285.064C258.088 284.531 258.1 283.995 258.055 283.455C257.836 283.412 257.617 283.369 257.399 283.326C257.39 283.289 257.326 282.26 257.421 282.409C257.202 282.064 256.761 281.935 256.488 281.455C256.237 281.013 256.409 280.135 256.291 279.605C256.053 278.533 255.502 277.685 255.04 276.74C254.374 281.283 254.852 285.965 254.225 290.509C253.71 294.239 252.294 297.628 250.602 300.747C249.818 302.193 248.74 303.244 247.912 304.621C247.212 305.787 246.883 306.8 245.802 307.521C245.083 308 244.262 308.268 243.517 308.687C243.041 308.956 241.985 310.137 241.526 310.139C241.925 310.138 240.78 310.235 241.043 310.168C241.024 310.173 241.15 309.557 241.013 309.574C239.439 311.557 237.702 311.644 235.833 312.918C234.976 313.502 234.645 313.484 233.714 313.73C232.508 314.047 231.523 314.936 230.36 315.081C228.571 315.304 226.563 315.692 224.686 315.701C224.176 315.703 223.2 315.352 222.826 315.909C222.579 316.277 223.202 318.822 223.261 319.409C223.884 325.563 223.51 332.072 221.624 337.819C220.061 342.585 218.419 348.212 215.43 351.937C212.116 356.065 207.344 359.091 202.71 360.382C197.58 361.812 192.398 361.171 187.178 361.051C181.882 360.929 176.955 360.257 171.777 358.651C166.961 357.157 162.371 355.13 157.729 352.982C154.572 351.522 150.556 349.395 151.939 344.44C152.273 343.242 153.631 339.89 155.048 341.444C156.302 342.82 154.449 345.623 153.595 346.576C160.626 351.95 168.919 353.443 176.925 355.084C181.322 355.986 185.6 355.735 190.019 355.54C193.764 355.375 197.514 355.327 201.204 354.518C204.542 353.786 208.409 352.527 210.772 349.435C213.244 346.2 215.547 342.369 217.15 338.404C218.909 334.052 219.166 329.425 219.097 324.616C219.06 322.084 219.032 319.519 218.693 317.008C218.446 315.185 217.663 315.004 217.21 313.576C216.395 315.119 215.785 314.592 214.654 313.766C214.063 316.174 214.494 318.626 214.732 321.068C214.963 323.447 214.815 325.878 214.686 328.258C214.468 332.303 213.071 336.578 211.2 339.916C210.354 341.425 209.011 342.109 207.817 343.18C206.296 344.546 204.712 345.825 203.115 347.062C200.107 349.391 196.8 351.417 193.309 351.912C192.086 352.086 191.229 352.902 189.76 352.863C188.888 352.841 187.996 352.523 187.13 352.593C186.262 352.662 185.531 353.034 184.635 352.998C180.91 352.85 177.015 351.564 173.304 350.932C169.285 350.248 165.239 349.499 161.36 347.956C159.68 347.287 158.276 346.388 157.268 344.555C156.548 343.245 156.606 340.832 155.345 340.088C156.086 338.802 155.778 338.596 155.034 337.513C154.686 337.009 153.579 335.681 154.844 335.646C154.364 333.655 154.914 331.681 155.094 329.702C155.172 328.847 155.079 327.562 155.479 326.811C155.712 326.373 156.134 326.344 156.346 326.019C156.58 326.002 156.757 325.875 156.878 325.64C156.878 325.303 156.738 325.105 156.459 325.045C156.491 324.377 156.095 324.635 156.453 323.577C156.941 322.132 157.935 320.847 158.887 319.835C159.697 318.973 160.254 317.484 161.214 316.999C162.463 316.368 163.772 315.684 165.088 315.09C168.072 313.744 171.064 313.142 174.287 313.655C175.763 313.891 177.22 314.197 178.657 314.675C179.498 314.956 180.803 315.758 181.489 314.793C181.725 314.462 182.121 311.727 182.074 311.436C181.887 310.267 179.878 309.887 179.134 309.512C177.997 308.937 175.914 308.365 175.151 307.154C174.832 306.647 175.06 304.416 175.009 304.378C174.527 304.022 172.832 309.494 172.319 309.886C171.576 310.453 169.385 309.855 168.586 309.787C166.202 309.585 163.785 309.521 161.432 308.949C156.921 307.852 152.456 306.035 148.041 304.451C139.642 301.439 131.477 297.331 123.807 292.111C120.225 289.672 116.631 286.509 113.819 282.855C112.552 281.207 111.617 279.225 110.325 277.611C108.835 275.75 109.193 273.989 108.452 271.603C106.95 266.775 105.198 262.408 104.263 257.317C103.301 252.076 102.752 246.704 102.694 241.355C102.582 230.782 102.529 220.754 105.907 210.873C109.002 201.819 113.148 192.918 118.217 185.302C119.396 183.532 120.65 181.839 122.134 180.435C123.732 178.923 125.513 177.712 126.941 175.948C128.112 174.501 129.07 172.816 130.302 171.436C131.814 169.744 133.67 168.939 135.483 167.818C137.22 166.743 138.786 165.379 140.568 164.39C141.652 163.79 142.753 163.231 143.892 162.793C144.734 162.47 145.87 162.398 146.627 161.824C147.824 160.915 148.973 158.383 149.715 156.948C150.798 154.855 151.324 152.454 151.772 150.059C152.318 147.144 152.815 144.215 153.345 141.296C153.526 140.299 154.216 136.825 152.555 137.739C152.069 138.006 151.653 139.112 151.292 139.593C150.608 140.506 149.748 141.334 148.875 141.974C147.468 143.007 146.009 144.238 144.647 144.969C143.446 145.612 142.238 146.82 141.132 147.7C140.964 147.833 140.933 148.267 140.715 148.398C140.201 148.706 139.812 147.942 139.323 148.157C138.654 148.451 138.579 149.232 138.23 149.866C137.725 150.787 137.444 150.871 136.63 151.371C135.723 151.927 135.088 152.972 134.204 153.517C133.13 154.177 130.681 153.821 130.615 155.928C128.837 154.657 126.813 157.386 125.808 158.799C124.637 156.853 122.841 159.282 121.18 158.697C122.154 160.168 121.983 160.025 120.569 160.28C119.376 160.496 118.703 161.493 117.543 162.11C116.74 162.536 115.862 163.231 115.021 163.545C114.226 163.842 113.586 163.292 112.89 163.47C112.41 163.593 111.973 164.122 111.518 164.282C110.941 164.486 110.119 164.739 109.467 164.96C108.673 165.229 107.863 165.055 107.07 165.277C106.144 165.536 105.368 166.247 104.428 166.511C103.38 166.805 102.27 166.695 101.232 167.056C100.285 167.384 99.7168 167.738 98.7228 167.796C97.2403 167.885 95.596 168.201 94.1216 168.068C93.3365 167.997 92.8817 167.54 92.0211 168.049C91.4472 168.389 91.1402 169.368 90.3167 168.965C91.1442 168.515 90.3248 166.953 89.4491 168.221C89.1955 167.545 89.0344 167.169 88.4094 166.973C88.4722 167.643 88.595 168.313 87.893 168.487C87.8166 168.023 87.7395 167.558 87.6632 167.093C86.1897 168.584 85.8489 169.102 84.3122 167.441C84.378 168.006 84.6063 168.637 84.149 169.061C83.8151 168.463 83.4807 167.865 83.1467 167.267C82.7256 169.267 80.234 168.703 79.0254 168.409C78.5568 168.296 77.2693 168.142 76.9461 167.698C76.7218 167.391 76.7355 167.141 76.6489 166.95C76.5721 166.78 77.3353 166.318 76.6566 166.101C76.1455 165.938 75.8175 167.287 75.2252 167.262C74.6971 167.24 74.4333 166.174 74.0445 165.974C74.0073 165.955 73.7722 166.422 73.5895 166.331C73.3059 166.19 73.1287 165.79 72.8167 165.66C72.1403 165.379 71.289 165.498 70.531 165.162C69.5693 164.737 68.6122 164.558 67.6351 164.216C66.3962 163.783 65.799 162.845 64.7749 162.103C64.5348 161.929 64.2991 162.048 64.0658 161.928C63.7515 161.767 63.4109 161.368 63.0374 161.191C61.8659 160.633 60.8703 160.263 59.7464 159.47C58.7443 158.763 57.4421 158.267 56.5387 157.404C55.7873 156.686 55.3486 155.606 54.592 154.875C53.5056 153.825 50.7682 152.573 51.0992 150.406C49.3848 150.807 48.8971 149.474 48.1913 148.012C47.5198 146.622 46.262 146.255 45.391 144.999C45.0146 144.456 44.4145 143.707 44.191 143.078C44.0578 142.704 44.3274 142.294 44.2373 142.038C43.8216 140.862 42.4125 140.407 41.7204 139.362C40.8403 138.033 40.4961 136.314 39.749 134.941C39.6021 134.67 39.2647 134.522 39.123 134.233C39.0321 134.047 39.1804 133.57 39.0721 133.388C38.8137 132.958 38.4338 132.823 38.1762 132.425C37.5525 131.461 37.3803 130.058 36.8086 128.959C36.6678 128.688 36.1867 127.936 36.1228 127.775C35.9091 127.23 35.9485 126.864 35.8228 126.253C35.7851 126.069 35.438 125.012 35.3701 124.862C35.1572 124.393 34.9699 124.331 34.6541 123.82C33.8639 122.542 33.3142 120.5 33.1785 118.909C33.1207 118.234 33.2738 117.526 33.0404 116.89C32.8389 116.341 32.2838 116.023 32.0529 115.448C31.4473 113.942 31.4311 111.772 31.2064 110.14C30.9621 108.361 30.4054 106.623 30.1903 104.857C30.0862 104.001 30.3835 103.226 30.3206 102.419C30.2483 101.494 29.8423 101.34 29.6525 100.577C29.4357 99.7058 29.6436 98.6804 29.4424 97.7447C29.2551 96.8744 29.005 96.0722 28.9019 95.1753C28.6338 92.8388 28.7381 90.3764 28.7107 88.0275C28.7002 87.116 28.7556 86.162 28.5139 85.2805C28.3193 84.5713 27.6266 83.8009 27.6109 83.0222C27.5636 80.6165 29.253 82.6202 30.1596 82.4116C31.2132 82.1698 31.272 79.2785 31.5 78.1722C32.0572 75.4693 32.6148 72.7668 33.1725 70.0643C29.8604 69.1931 26.4818 69.6505 23.1372 69.532C19.8508 69.4158 16.6138 68.7097 13.3938 67.8945C10.6752 67.2062 7.72062 66.8728 5.22957 65.2454C3.13782 63.8795 1.31601 60.7229 2.3617 57.8115Z" fill="#202020"/>
<path fill-rule="evenodd" clip-rule="evenodd" d="M320.619 94.4705C319.226 93.7152 319.514 92.5662 318.469 91.561C312.626 85.9363 305.853 81.1044 299.108 77.1696C292.001 73.0238 284.176 71.4974 276.941 67.8684C275.968 67.3802 274.697 66.6052 274.98 65.1028C275.311 63.3471 276.767 64.0785 277.798 64.4398C281.233 65.6449 284.845 65.9879 288.32 67.0247C295.738 69.2374 302.781 73.3267 309.208 78.1992C312.947 81.0335 316.55 84.1927 319.798 87.7791C320.994 89.0991 322.579 90.6302 322.967 92.5956C323.448 95.0278 322.216 95.3369 320.619 94.4705Z" fill="#202020"/>
<path fill-rule="evenodd" clip-rule="evenodd" d="M306.876 249.463C306.806 247.297 308.867 247.988 309.922 248.229C314.211 249.211 318.037 249.937 321.914 252.5C329.107 257.255 334.742 264.731 338.557 273.12C339.065 274.236 341.063 277.755 339.65 278.898C338.718 279.652 338.035 277.618 337.638 276.87C335.617 273.062 332.995 269.73 330.363 266.463C324.519 259.209 317.697 254.753 309.641 251.646C308.653 251.264 306.927 251.038 306.876 249.463Z" fill="#202020"/>
<path fill-rule="evenodd" clip-rule="evenodd" d="M70.4234 207.428C71.7242 203.927 73.8899 199.58 77.0983 198.011C78.8734 197.142 80.0075 198.385 79.5724 200.573C79.2265 202.313 77.8385 203.221 76.8263 204.412C74.2224 207.477 72.7409 211.939 71.9327 216.055C71.0781 220.406 71.0888 225.083 71.3196 229.534C71.4415 231.884 72.0772 233.902 72.4786 236.176C72.6361 237.07 72.9263 239.043 72.0659 239.647C70.1591 240.985 68.9414 234.53 68.6813 233.29C67.7221 228.716 67.5915 224.469 67.9956 219.838C68.3651 215.603 68.9644 211.355 70.4234 207.428Z" fill="#202020"/>
<path fill-rule="evenodd" clip-rule="evenodd" d="M68.1996 42.2719C67.3398 41.0534 67.8398 39.2665 67.5333 37.8452C67.2125 36.3555 66.3962 34.8719 65.7047 33.5882C64.21 30.8171 62.5611 28.1045 60.8195 25.5363C59.0211 22.8843 56.8751 20.6538 54.977 18.1138C54.3349 17.2546 53.2118 16.0362 53.4201 14.9554C53.7573 13.2053 54.7112 14.005 55.4779 14.6952C59.6687 18.4693 63.4254 23.1898 66.5167 28.1885C67.9836 30.561 69.3872 33.1687 69.9718 36.038C70.2737 37.5199 70.3498 39.0775 70.0393 40.5572C69.8443 41.4872 69.2325 43.736 68.1996 42.2719Z" fill="#202020"/>
<path fill-rule="evenodd" clip-rule="evenodd" d="M324.9 242.008C322.885 241.888 320.864 241.907 318.848 241.882C317.356 241.864 315.687 242.05 314.282 241.281C312.868 240.506 313.405 239.22 314.539 238.979C315.191 238.841 316.324 239.305 317.03 239.307C317.794 239.309 318.559 239.245 319.322 239.212C321.552 239.115 323.954 238.981 326.145 239.742C326.86 239.991 327.945 240.375 328.278 241.297C328.991 243.267 325.835 242.064 324.9 242.008Z" fill="#202020"/>
<path fill-rule="evenodd" clip-rule="evenodd" d="M298.63 59.8448C295.698 59.5767 292.835 58.6939 289.935 58.1825C287.178 57.6965 286.594 55.2129 289.829 55.1718C290.915 55.1578 301.48 56.9708 298.63 59.8448Z" fill="#202020"/>
<path fill-rule="evenodd" clip-rule="evenodd" d="M63.9565 196.961C65.8858 196.297 64.9942 198.874 64.4257 199.685C63.3748 201.183 62.8146 202.295 62.5736 204.238C62.4328 205.37 62.7354 207.895 61.9588 208.791C61.1938 209.674 61.1115 209.116 60.9189 208.08C60.376 205.16 60.8437 198.033 63.9565 196.961Z" fill="#202020"/>
<path fill-rule="evenodd" clip-rule="evenodd" d="M77.8212 35.9431C77.2343 35.285 77.6871 32.2804 77.58 31.4112C77.4499 30.3581 77.1927 29.4739 76.8749 28.495C76.7205 28.0203 75.9786 26.3543 76.3097 25.8103C76.768 25.0562 77.6466 26.2518 77.9296 26.7254C78.8486 28.2669 79.1711 30.8946 79.1156 32.6823C79.0958 33.3295 78.9447 37.2019 77.8212 35.9431Z" fill="#202020"/>
<path fill-rule="evenodd" clip-rule="evenodd" d="M204.973 281.447C204.801 279.765 203.352 278.663 203.262 276.87C203.161 274.856 204.283 273.929 205.795 275.169C206.706 275.917 207.478 277.808 208.671 278.003C211.066 278.397 211.76 273.393 214.122 273.855C216.167 274.256 215.297 278.351 214.752 279.745C214.175 281.222 213.049 282.293 213.516 284.054C214.07 286.146 215.685 287.289 215.194 289.73C214.282 294.265 211.64 290.191 210.105 288.853C209.01 287.899 208.386 288.107 207.417 289.14C206.088 290.555 205.068 291.521 203.423 292.51C201.972 293.382 200.562 294.009 200.388 291.323C200.25 289.211 201.521 287.042 202.655 285.55C203.597 284.312 205.164 283.319 204.973 281.447Z" fill="#202020"/>
<path fill-rule="evenodd" clip-rule="evenodd" d="M230.747 273.519C232.386 271.272 234.849 276.687 236.286 277.23C238.616 278.112 238.888 272.781 240.997 272.848C242.639 272.9 242.64 275.636 242.343 276.898C242.024 278.257 240.929 279.408 240.802 280.79C240.607 282.909 244.226 286.954 241.937 289.101C239.982 290.934 238.945 285.105 236.513 287.619C235.319 288.853 232.029 293.392 230.192 291.298C228.022 288.825 232.684 284.203 233.48 282.205C234.557 279.5 228.345 276.812 230.747 273.519Z" fill="#202020"/>
<path fill-rule="evenodd" clip-rule="evenodd" d="M184.96 200.346C185.448 200.066 186.275 200.452 186.815 200.399C187.394 200.343 187.984 200.007 188.551 199.866C189.783 199.559 191.989 199.813 192.81 198.479C193.648 197.118 192.837 194.505 193.146 192.883C193.314 192.002 193.505 190.914 194.531 191.255C195.722 191.65 195.813 194.154 196.005 195.245C196.288 196.854 196.512 198.081 197.937 198.59C198.991 198.967 200.069 198.701 200.952 199.651C201.6 200.347 202.076 201.652 201.642 202.622C200.989 204.08 199.394 203.417 198.334 203.919C196.716 204.684 197.258 207.805 197.005 209.625C196.844 210.793 196.522 214.061 195.092 214.077C193.141 214.099 193.68 209.504 193.725 208.168C193.77 206.813 193.976 205.656 192.663 205.298C191.554 204.996 190.059 205.726 188.931 205.771C187.505 205.829 185.806 205.492 184.876 204.046C184.344 203.218 183.924 200.943 184.96 200.346Z" fill="#202020"/>
<path fill-rule="evenodd" clip-rule="evenodd" d="M116.066 259.854C112.984 260.313 115.072 264.668 113.102 266.533C111.222 268.312 110.737 263.672 110.674 262.343C110.522 259.125 107.219 260.474 105.148 260.039C103.381 259.668 101.374 257.647 103.373 255.749C104.816 254.379 107.339 254.863 109.07 254.436C111.414 253.857 110.623 252.049 110.575 249.925C110.556 249.146 110.655 246.363 111.506 246.103C113.067 245.628 113.407 250.788 113.56 251.765C114.208 255.902 116.539 253.252 118.587 255.244C121.262 257.848 117.902 259.581 116.066 259.854Z" fill="#202020"/>
<path fill-rule="evenodd" clip-rule="evenodd" d="M259.641 175.317C264.699 179.706 270.161 178.783 274.352 173.6C276.124 171.408 277.154 169.235 276.84 166.166C276.558 163.404 275.714 160.378 273.722 158.598C272.045 157.099 268.995 156.677 266.955 156.553C264.096 156.38 261.637 158.305 259.777 160.653C258.157 162.698 256.273 165.294 256.148 168.221C256.015 171.3 257.627 173.568 259.641 175.317ZM258.031 156.972C262.139 151.897 269.857 152.02 274.548 156.246C279.814 160.989 281.119 170.309 276.546 175.999C271.727 181.994 264.975 181.694 259.357 177.178C256.343 174.756 254.618 171.546 254.015 167.351C253.445 163.386 255.785 159.746 258.031 156.972Z" fill="#202020"/>
<path fill-rule="evenodd" clip-rule="evenodd" d="M170.136 77.1717C170.71 78.992 170.466 80.9721 170.469 82.8543C171.797 81.7865 172.568 79.9577 174.006 79.057C174.823 81.303 171.604 87.9912 169.28 85.9596C167.155 84.1005 168.395 78.5714 170.136 77.1717Z" fill="#202020"/>
<path fill-rule="evenodd" clip-rule="evenodd" d="M163.453 88.7577C164.57 89.1809 165.582 89.0008 166.674 89.1929C167.394 89.3193 167.463 88.8431 167.601 89.789C167.894 91.8078 165.123 92.726 163.857 92.7575C162.311 92.7961 160.561 91.6671 160.617 89.691C160.674 87.6321 162.238 88.2975 163.453 88.7577Z" fill="#202020"/>
<path fill-rule="evenodd" clip-rule="evenodd" d="M162.15 80.2757C162.622 79.7266 163.672 77.6872 164.528 77.9868C165.185 78.2162 164.772 79.1341 164.605 79.5916C163.977 81.3074 162.658 82.8046 161.613 84.2066C162.451 84.5072 164.043 84.6505 163.695 86.1424C163.375 87.5131 161.625 87.3881 160.764 86.8587C157.815 85.0434 160.793 81.8554 162.15 80.2757Z" fill="#202020"/>
<path fill-rule="evenodd" clip-rule="evenodd" d="M159.114 77.2202C158.963 78.1583 158.899 79.0401 159.372 79.8903L161.514 74.8065C163.472 75.6305 160.456 82.9518 158.463 82.252C157.086 81.7682 157.575 78.3714 157.738 77.3023C157.825 76.7299 158.011 74.9141 158.677 74.699C159.987 74.2759 159.226 76.5284 159.114 77.2202Z" fill="#202020"/>
<path fill-rule="evenodd" clip-rule="evenodd" d="M262.036 172.809C263.094 171.809 265.028 173.941 266.196 173.893C268.554 173.796 267.117 170.635 268.543 169.521C269.286 168.939 272.534 169.335 271.918 167.105C271.547 165.763 270.397 166.799 269.701 166.001C268.829 165.002 269.963 164.117 270.672 163.656C270.328 163.173 268.472 163.042 268.024 163.409C267.252 164.043 267.383 165.826 266.693 166.78C265.672 165.408 266.104 163.602 265.029 162.378C264.611 161.902 263.44 161.585 263.847 160.682C264.082 160.157 265.229 160.272 265.599 159.846C265.922 159.475 265.851 158.33 266.395 158.208C267.285 158.01 267.339 159.607 267.63 160.056C268.507 161.403 272.045 160.755 270.703 163.636C271.659 163.018 274.319 162.438 273.894 164.459C273.785 164.975 273.293 165.311 273.195 165.899C273.109 166.408 273.384 167.115 273.431 167.62C273.519 168.577 273.638 169.696 273.066 170.496C272.279 171.597 271.123 170.879 270.247 171.383C269.053 172.069 269.556 173.354 268.965 174.527C268.191 176.062 266.869 175.665 265.651 175.269C264.198 174.798 263.97 174.76 262.992 176.194C262.48 175.498 261.084 173.709 262.036 172.809Z" fill="#202020"/>
<path fill-rule="evenodd" clip-rule="evenodd" d="M259.839 167.065C260.978 166.762 260.334 162.787 261.818 164.457C262.374 165.083 261.897 166.378 262.516 167.048C262.932 167.498 263.418 167.197 263.827 167.486C264.194 167.745 264.309 168.269 264.537 168.663C263.814 169.087 263.244 169.164 262.446 169.032C262.479 169.726 262.971 171.75 261.948 171.65C260.996 171.556 261.165 169.492 260.654 168.878C260.134 168.253 258.179 168.647 257.953 167.745C257.673 166.628 259.34 167.198 259.839 167.065Z" fill="#202020"/>
</svg>
