<svg width="278" height="38" viewBox="0 0 278 38" fill="none" xmlns="http://www.w3.org/2000/svg">
<path d="M47.702 37V1.36L77.294 1.36V10.594H60.284V15.022L74 15.022V23.554H60.284V27.766H77.942V37H47.702ZM100.837 1.36C105.481 1.36 109.045 2.404 111.529 4.492C114.013 6.544 115.255 9.28 115.255 12.7C115.255 16.624 114.031 19.576 111.583 21.556C109.171 23.536 105.643 24.526 100.999 24.526L99.7567 25.174H93.8167V37H81.5047V1.36L100.837 1.36ZM98.6767 16.912C100.009 16.912 100.999 16.678 101.647 16.21C102.331 15.706 102.673 14.842 102.673 13.618C102.673 12.43 102.331 11.584 101.647 11.08C100.999 10.576 100.009 10.324 98.6767 10.324H93.8167V16.912H98.6767ZM106.129 19.558L117.253 37H103.591L95.2747 21.394L106.129 19.558ZM138.911 1.36C143.555 1.36 147.119 2.404 149.603 4.492C152.087 6.544 153.329 9.28 153.329 12.7C153.329 16.624 152.105 19.576 149.657 21.556C147.245 23.536 143.717 24.526 139.073 24.526L137.831 25.174H131.891V37L119.579 37V1.36L138.911 1.36ZM136.751 16.912C138.083 16.912 139.073 16.678 139.721 16.21C140.405 15.706 140.747 14.842 140.747 13.618C140.747 12.43 140.405 11.584 139.721 11.08C139.073 10.576 138.083 10.324 136.751 10.324H131.891V16.912H136.751ZM144.203 19.558L155.327 37H141.665L133.349 21.394L144.203 19.558ZM174.294 0.819999C178.074 0.819999 181.314 1.54 184.014 2.98C186.714 4.42 188.784 6.508 190.224 9.244C191.664 11.98 192.384 15.292 192.384 19.18C192.384 23.068 191.664 26.38 190.224 29.116C188.784 31.852 186.714 33.94 184.014 35.38C181.314 36.82 178.074 37.54 174.294 37.54C170.55 37.54 167.31 36.82 164.574 35.38C161.874 33.94 159.786 31.852 158.31 29.116C156.87 26.38 156.15 23.068 156.15 19.18C156.15 15.292 156.87 11.98 158.31 9.244C159.786 6.508 161.874 4.42 164.574 2.98C167.31 1.54 170.55 0.819999 174.294 0.819999ZM174.294 10.27C173.07 10.27 172.062 10.594 171.27 11.242C170.514 11.854 169.938 12.808 169.542 14.104C169.182 15.4 169.002 17.092 169.002 19.18C169.002 21.232 169.182 22.924 169.542 24.256C169.938 25.552 170.514 26.524 171.27 27.172C172.062 27.784 173.07 28.09 174.294 28.09C175.518 28.09 176.508 27.784 177.264 27.172C178.056 26.524 178.632 25.552 178.992 24.256C179.352 22.924 179.532 21.232 179.532 19.18C179.532 17.092 179.352 15.4 178.992 14.104C178.632 12.808 178.056 11.854 177.264 11.242C176.508 10.594 175.518 10.27 174.294 10.27ZM215.956 1.36C220.6 1.36 224.164 2.404 226.648 4.492C229.132 6.544 230.374 9.28 230.374 12.7C230.374 16.624 229.15 19.576 226.702 21.556C224.29 23.536 220.762 24.526 216.118 24.526L214.876 25.174H208.936V37H196.624V1.36L215.956 1.36ZM213.796 16.912C215.128 16.912 216.118 16.678 216.766 16.21C217.45 15.706 217.792 14.842 217.792 13.618C217.792 12.43 217.45 11.584 216.766 11.08C216.118 10.576 215.128 10.324 213.796 10.324H208.936V16.912H213.796ZM221.248 19.558L232.372 37H218.71L210.394 21.394L221.248 19.558Z" fill="#60FF39"/>
<path d="M47.702 37V1.36L77.294 1.36V10.594H60.284V15.022L74 15.022V23.554H60.284V27.766H77.942V37H47.702ZM100.837 1.36C105.481 1.36 109.045 2.404 111.529 4.492C114.013 6.544 115.255 9.28 115.255 12.7C115.255 16.624 114.031 19.576 111.583 21.556C109.171 23.536 105.643 24.526 100.999 24.526L99.7567 25.174H93.8167V37H81.5047V1.36L100.837 1.36ZM98.6767 16.912C100.009 16.912 100.999 16.678 101.647 16.21C102.331 15.706 102.673 14.842 102.673 13.618C102.673 12.43 102.331 11.584 101.647 11.08C100.999 10.576 100.009 10.324 98.6767 10.324H93.8167V16.912H98.6767ZM106.129 19.558L117.253 37H103.591L95.2747 21.394L106.129 19.558ZM138.911 1.36C143.555 1.36 147.119 2.404 149.603 4.492C152.087 6.544 153.329 9.28 153.329 12.7C153.329 16.624 152.105 19.576 149.657 21.556C147.245 23.536 143.717 24.526 139.073 24.526L137.831 25.174H131.891V37L119.579 37V1.36L138.911 1.36ZM136.751 16.912C138.083 16.912 139.073 16.678 139.721 16.21C140.405 15.706 140.747 14.842 140.747 13.618C140.747 12.43 140.405 11.584 139.721 11.08C139.073 10.576 138.083 10.324 136.751 10.324H131.891V16.912H136.751ZM144.203 19.558L155.327 37H141.665L133.349 21.394L144.203 19.558ZM174.294 0.819999C178.074 0.819999 181.314 1.54 184.014 2.98C186.714 4.42 188.784 6.508 190.224 9.244C191.664 11.98 192.384 15.292 192.384 19.18C192.384 23.068 191.664 26.38 190.224 29.116C188.784 31.852 186.714 33.94 184.014 35.38C181.314 36.82 178.074 37.54 174.294 37.54C170.55 37.54 167.31 36.82 164.574 35.38C161.874 33.94 159.786 31.852 158.31 29.116C156.87 26.38 156.15 23.068 156.15 19.18C156.15 15.292 156.87 11.98 158.31 9.244C159.786 6.508 161.874 4.42 164.574 2.98C167.31 1.54 170.55 0.819999 174.294 0.819999ZM174.294 10.27C173.07 10.27 172.062 10.594 171.27 11.242C170.514 11.854 169.938 12.808 169.542 14.104C169.182 15.4 169.002 17.092 169.002 19.18C169.002 21.232 169.182 22.924 169.542 24.256C169.938 25.552 170.514 26.524 171.27 27.172C172.062 27.784 173.07 28.09 174.294 28.09C175.518 28.09 176.508 27.784 177.264 27.172C178.056 26.524 178.632 25.552 178.992 24.256C179.352 22.924 179.532 21.232 179.532 19.18C179.532 17.092 179.352 15.4 178.992 14.104C178.632 12.808 178.056 11.854 177.264 11.242C176.508 10.594 175.518 10.27 174.294 10.27ZM215.956 1.36C220.6 1.36 224.164 2.404 226.648 4.492C229.132 6.544 230.374 9.28 230.374 12.7C230.374 16.624 229.15 19.576 226.702 21.556C224.29 23.536 220.762 24.526 216.118 24.526L214.876 25.174H208.936V37H196.624V1.36L215.956 1.36ZM213.796 16.912C215.128 16.912 216.118 16.678 216.766 16.21C217.45 15.706 217.792 14.842 217.792 13.618C217.792 12.43 217.45 11.584 216.766 11.08C216.118 10.576 215.128 10.324 213.796 10.324H208.936V16.912H213.796ZM221.248 19.558L232.372 37H218.71L210.394 21.394L221.248 19.558Z" fill="black" fill-opacity="0.2"/>
<path d="M13.3966 8H7.24138L7.60345 14.0714L1.81034 11.9286L0 17.6429L5.7931 19.4286L2.17241 24.4286L6.87931 28L10.5 22.6429L13.7586 28L18.8276 24.0714L15.2069 19.4286L21 17.6429L19.1897 11.9286L13.3966 14.0714V8Z" fill="#DCD7D2"/>
<path d="M270.034 8H263.586L263.966 14.0714L257.897 11.9286L256 17.6429L262.069 19.4286L258.276 24.4286L263.207 28L267 22.6429L270.414 28L275.724 24.0714L271.931 19.4286L278 17.6429L276.103 11.9286L270.034 14.0714V8Z" fill="#DCD7D2"/>
</svg>
