<svg width="319" height="38" viewBox="0 0 319 38" fill="none" xmlns="http://www.w3.org/2000/svg">
<path d="M77.7918 1.36V37H66.8298V24.634L66.9918 12.646H66.8298L59.9178 37H49.8738L43.0698 12.646H42.8538L43.0158 24.634V37H31.9998V1.36L49.6038 1.36L53.7078 17.182L55.2738 23.824H55.3818L56.9478 17.182L61.0518 1.36L77.7918 1.36ZM118.521 1.36L106.047 24.634V37H93.4649V24.634L80.9909 1.36L93.5189 1.36L97.2989 9.514L99.8369 15.994L102.375 9.514L106.155 1.36L118.521 1.36ZM166.83 1.36V10.594H155.706V37H143.124V10.594H131.946V1.36L166.83 1.36ZM185.961 0.819999C189.741 0.819999 192.981 1.54 195.681 2.98C198.381 4.42 200.451 6.508 201.891 9.244C203.331 11.98 204.051 15.292 204.051 19.18C204.051 23.068 203.331 26.38 201.891 29.116C200.451 31.852 198.381 33.94 195.681 35.38C192.981 36.82 189.741 37.54 185.961 37.54C182.217 37.54 178.977 36.82 176.241 35.38C173.541 33.94 171.453 31.852 169.977 29.116C168.537 26.38 167.817 23.068 167.817 19.18C167.817 15.292 168.537 11.98 169.977 9.244C171.453 6.508 173.541 4.42 176.241 2.98C178.977 1.54 182.217 0.819999 185.961 0.819999ZM185.961 10.27C184.737 10.27 183.729 10.594 182.937 11.242C182.181 11.854 181.605 12.808 181.209 14.104C180.849 15.4 180.669 17.092 180.669 19.18C180.669 21.232 180.849 22.924 181.209 24.256C181.605 25.552 182.181 26.524 182.937 27.172C183.729 27.784 184.737 28.09 185.961 28.09C187.185 28.09 188.175 27.784 188.931 27.172C189.723 26.524 190.299 25.552 190.659 24.256C191.019 22.924 191.199 21.232 191.199 19.18C191.199 17.092 191.019 15.4 190.659 14.104C190.299 12.808 189.723 11.854 188.931 11.242C188.175 10.594 187.185 10.27 185.961 10.27ZM227.191 1.36C230.395 1.36 233.113 1.846 235.345 2.818C237.577 3.79 239.269 5.212 240.421 7.084C241.573 8.956 242.149 11.242 242.149 13.942C242.149 16.642 241.573 18.928 240.421 20.8C239.269 22.672 237.577 24.094 235.345 25.066C233.113 26.038 230.395 26.524 227.191 26.524H220.873V37H208.291V1.36L227.191 1.36ZM225.139 17.614C226.507 17.614 227.587 17.326 228.379 16.75C229.171 16.138 229.567 15.202 229.567 13.942C229.567 12.682 229.171 11.764 228.379 11.188C227.587 10.576 226.507 10.27 225.139 10.27H220.873V17.614H225.139ZM272.608 37.54C269.548 37.54 266.758 37.018 264.238 35.974C261.754 34.894 259.558 32.95 257.65 30.142L268.45 24.85C268.738 25.966 269.206 26.866 269.854 27.55C270.538 28.234 271.546 28.576 272.878 28.576C273.67 28.576 274.336 28.45 274.876 28.198C275.416 27.946 275.83 27.55 276.118 27.01C276.442 26.47 276.604 25.804 276.604 25.012C276.604 24.328 276.46 23.77 276.172 23.338C275.884 22.87 275.452 22.51 274.876 22.258C274.3 22.006 273.562 21.88 272.662 21.88C272.014 21.88 271.438 21.934 270.934 22.042C270.43 22.15 269.98 22.294 269.584 22.474C269.188 22.654 268.81 22.87 268.45 23.122L259.27 21.394L261.646 1.36L285.676 1.36V10.594H270.448L269.854 15.022L269.584 16.156H269.638C270.286 15.364 271.222 14.788 272.446 14.428C273.706 14.068 275.038 13.888 276.442 13.888C278.854 13.888 280.87 14.356 282.49 15.292C284.146 16.192 285.406 17.416 286.27 18.964C287.134 20.512 287.566 22.276 287.566 24.256C287.566 26.668 287.152 28.72 286.324 30.412C285.496 32.104 284.362 33.472 282.922 34.516C281.482 35.56 279.88 36.334 278.116 36.838C276.352 37.306 274.516 37.54 272.608 37.54Z" fill="#60FF39"/>
<path d="M77.7918 1.36V37H66.8298V24.634L66.9918 12.646H66.8298L59.9178 37H49.8738L43.0698 12.646H42.8538L43.0158 24.634V37H31.9998V1.36L49.6038 1.36L53.7078 17.182L55.2738 23.824H55.3818L56.9478 17.182L61.0518 1.36L77.7918 1.36ZM118.521 1.36L106.047 24.634V37H93.4649V24.634L80.9909 1.36L93.5189 1.36L97.2989 9.514L99.8369 15.994L102.375 9.514L106.155 1.36L118.521 1.36ZM166.83 1.36V10.594H155.706V37H143.124V10.594H131.946V1.36L166.83 1.36ZM185.961 0.819999C189.741 0.819999 192.981 1.54 195.681 2.98C198.381 4.42 200.451 6.508 201.891 9.244C203.331 11.98 204.051 15.292 204.051 19.18C204.051 23.068 203.331 26.38 201.891 29.116C200.451 31.852 198.381 33.94 195.681 35.38C192.981 36.82 189.741 37.54 185.961 37.54C182.217 37.54 178.977 36.82 176.241 35.38C173.541 33.94 171.453 31.852 169.977 29.116C168.537 26.38 167.817 23.068 167.817 19.18C167.817 15.292 168.537 11.98 169.977 9.244C171.453 6.508 173.541 4.42 176.241 2.98C178.977 1.54 182.217 0.819999 185.961 0.819999ZM185.961 10.27C184.737 10.27 183.729 10.594 182.937 11.242C182.181 11.854 181.605 12.808 181.209 14.104C180.849 15.4 180.669 17.092 180.669 19.18C180.669 21.232 180.849 22.924 181.209 24.256C181.605 25.552 182.181 26.524 182.937 27.172C183.729 27.784 184.737 28.09 185.961 28.09C187.185 28.09 188.175 27.784 188.931 27.172C189.723 26.524 190.299 25.552 190.659 24.256C191.019 22.924 191.199 21.232 191.199 19.18C191.199 17.092 191.019 15.4 190.659 14.104C190.299 12.808 189.723 11.854 188.931 11.242C188.175 10.594 187.185 10.27 185.961 10.27ZM227.191 1.36C230.395 1.36 233.113 1.846 235.345 2.818C237.577 3.79 239.269 5.212 240.421 7.084C241.573 8.956 242.149 11.242 242.149 13.942C242.149 16.642 241.573 18.928 240.421 20.8C239.269 22.672 237.577 24.094 235.345 25.066C233.113 26.038 230.395 26.524 227.191 26.524H220.873V37H208.291V1.36L227.191 1.36ZM225.139 17.614C226.507 17.614 227.587 17.326 228.379 16.75C229.171 16.138 229.567 15.202 229.567 13.942C229.567 12.682 229.171 11.764 228.379 11.188C227.587 10.576 226.507 10.27 225.139 10.27H220.873V17.614H225.139ZM272.608 37.54C269.548 37.54 266.758 37.018 264.238 35.974C261.754 34.894 259.558 32.95 257.65 30.142L268.45 24.85C268.738 25.966 269.206 26.866 269.854 27.55C270.538 28.234 271.546 28.576 272.878 28.576C273.67 28.576 274.336 28.45 274.876 28.198C275.416 27.946 275.83 27.55 276.118 27.01C276.442 26.47 276.604 25.804 276.604 25.012C276.604 24.328 276.46 23.77 276.172 23.338C275.884 22.87 275.452 22.51 274.876 22.258C274.3 22.006 273.562 21.88 272.662 21.88C272.014 21.88 271.438 21.934 270.934 22.042C270.43 22.15 269.98 22.294 269.584 22.474C269.188 22.654 268.81 22.87 268.45 23.122L259.27 21.394L261.646 1.36L285.676 1.36V10.594H270.448L269.854 15.022L269.584 16.156H269.638C270.286 15.364 271.222 14.788 272.446 14.428C273.706 14.068 275.038 13.888 276.442 13.888C278.854 13.888 280.87 14.356 282.49 15.292C284.146 16.192 285.406 17.416 286.27 18.964C287.134 20.512 287.566 22.276 287.566 24.256C287.566 26.668 287.152 28.72 286.324 30.412C285.496 32.104 284.362 33.472 282.922 34.516C281.482 35.56 279.88 36.334 278.116 36.838C276.352 37.306 274.516 37.54 272.608 37.54Z" fill="black" fill-opacity="0.2"/>
<path d="M13.3966 8H7.24138L7.60345 14.0714L1.81034 11.9286L0 17.6429L5.7931 19.4286L2.17241 24.4286L6.87931 28L10.5 22.6429L13.7586 28L18.8276 24.0714L15.2069 19.4286L21 17.6429L19.1897 11.9286L13.3966 14.0714V8Z" fill="#DCD7D2"/>
<path d="M311.034 8H304.586L304.966 14.0714L298.897 11.9286L297 17.6429L303.069 19.4286L299.276 24.4286L304.207 28L308 22.6429L311.414 28L316.724 24.0714L312.931 19.4286L319 17.6429L317.103 11.9286L311.034 14.0714V8Z" fill="#DCD7D2"/>
</svg>
