<svg width="84" height="729" viewBox="0 0 84 729" fill="none" xmlns="http://www.w3.org/2000/svg">
<rect y="729" width="729" height="84" transform="rotate(-90 0 729)" fill="#202020"/>
<path d="M21.76 637.747H64V650.739H49.344L35.136 650.547V650.739L64 658.931V670.835L35.136 678.899V679.155L49.344 678.963H64V692.019H21.76V671.155L40.512 666.291L48.384 664.435V664.307L40.512 662.451L21.76 657.587L21.76 637.747ZM21.76 589.475L49.344 604.259H64V619.171H49.344L21.76 633.955V619.107L31.424 614.627L39.104 611.619L31.424 608.611L21.76 604.131V589.475ZM21.76 532.22H32.704V545.404H64V560.316H32.704V573.564H21.76V532.22ZM21.12 509.546C21.12 505.066 21.9733 501.226 23.68 498.026C25.3867 494.826 27.8613 492.373 31.104 490.666C34.3467 488.96 38.272 488.106 42.88 488.106C47.488 488.106 51.4133 488.96 54.656 490.666C57.8987 492.373 60.3733 494.826 62.08 498.026C63.7867 501.226 64.64 505.066 64.64 509.546C64.64 513.984 63.7867 517.824 62.08 521.066C60.3733 524.266 57.8987 526.741 54.656 528.49C51.4133 530.197 47.488 531.05 42.88 531.05C38.272 531.05 34.3467 530.197 31.104 528.49C27.8613 526.741 25.3867 524.266 23.68 521.066C21.9733 517.824 21.12 513.984 21.12 509.546ZM32.32 509.546C32.32 510.997 32.704 512.192 33.472 513.13C34.1973 514.026 35.328 514.709 36.864 515.178C38.4 515.605 40.4053 515.818 42.88 515.818C45.312 515.818 47.3173 515.605 48.896 515.178C50.432 514.709 51.584 514.026 52.352 513.13C53.0773 512.192 53.44 510.997 53.44 509.546C53.44 508.096 53.0773 506.922 52.352 506.026C51.584 505.088 50.432 504.405 48.896 503.978C47.3173 503.552 45.312 503.338 42.88 503.338C40.4053 503.338 38.4 503.552 36.864 503.978C35.328 504.405 34.1973 505.088 33.472 506.026C32.704 506.922 32.32 508.096 32.32 509.546ZM21.76 460.681C21.76 456.884 22.336 453.663 23.488 451.017C24.64 448.372 26.3253 446.367 28.544 445.001C30.7627 443.636 33.472 442.953 36.672 442.953C39.872 442.953 42.5813 443.636 44.8 445.001C47.0187 446.367 48.704 448.372 49.856 451.017C51.008 453.663 51.584 456.884 51.584 460.681V468.169H64V483.081H21.76L21.76 460.681ZM41.024 463.113C41.024 461.492 40.6827 460.212 40 459.273C39.2747 458.335 38.1653 457.865 36.672 457.865C35.1787 457.865 34.0907 458.335 33.408 459.273C32.6827 460.212 32.32 461.492 32.32 463.113V468.169H41.024V463.113ZM64.64 406.854C64.64 410.48 64.0213 413.787 62.784 416.774C61.504 419.718 59.2 422.32 55.872 424.582L49.6 411.782C50.9227 411.44 51.9893 410.886 52.8 410.118C53.6107 409.307 54.016 408.112 54.016 406.534C54.016 405.595 53.8667 404.806 53.568 404.166C53.2693 403.526 52.8 403.035 52.16 402.694C51.52 402.31 50.7307 402.118 49.792 402.118C48.9813 402.118 48.32 402.288 47.808 402.63C47.2533 402.971 46.8267 403.483 46.528 404.166C46.2293 404.848 46.08 405.723 46.08 406.79C46.08 407.558 46.144 408.24 46.272 408.838C46.4 409.435 46.5707 409.968 46.784 410.438C46.9973 410.907 47.2533 411.355 47.552 411.782L45.504 422.662L21.76 419.846L21.76 391.366H32.704V409.414L37.952 410.118L39.296 410.438V410.374C38.3573 409.606 37.6747 408.496 37.248 407.046C36.8213 405.552 36.608 403.974 36.608 402.31C36.608 399.451 37.1627 397.062 38.272 395.142C39.3387 393.179 40.7893 391.686 42.624 390.662C44.4587 389.638 46.5493 389.126 48.896 389.126C51.7547 389.126 54.1867 389.616 56.192 390.598C58.1973 391.579 59.8187 392.923 61.056 394.63C62.2933 396.336 63.2107 398.235 63.808 400.326C64.3627 402.416 64.64 404.592 64.64 406.854Z" fill="#60FF39"/>
<path d="M21.76 637.747H64V650.739H49.344L35.136 650.547V650.739L64 658.931V670.835L35.136 678.899V679.155L49.344 678.963H64V692.019H21.76V671.155L40.512 666.291L48.384 664.435V664.307L40.512 662.451L21.76 657.587L21.76 637.747ZM21.76 589.475L49.344 604.259H64V619.171H49.344L21.76 633.955V619.107L31.424 614.627L39.104 611.619L31.424 608.611L21.76 604.131V589.475ZM21.76 532.22H32.704V545.404H64V560.316H32.704V573.564H21.76V532.22ZM21.12 509.546C21.12 505.066 21.9733 501.226 23.68 498.026C25.3867 494.826 27.8613 492.373 31.104 490.666C34.3467 488.96 38.272 488.106 42.88 488.106C47.488 488.106 51.4133 488.96 54.656 490.666C57.8987 492.373 60.3733 494.826 62.08 498.026C63.7867 501.226 64.64 505.066 64.64 509.546C64.64 513.984 63.7867 517.824 62.08 521.066C60.3733 524.266 57.8987 526.741 54.656 528.49C51.4133 530.197 47.488 531.05 42.88 531.05C38.272 531.05 34.3467 530.197 31.104 528.49C27.8613 526.741 25.3867 524.266 23.68 521.066C21.9733 517.824 21.12 513.984 21.12 509.546ZM32.32 509.546C32.32 510.997 32.704 512.192 33.472 513.13C34.1973 514.026 35.328 514.709 36.864 515.178C38.4 515.605 40.4053 515.818 42.88 515.818C45.312 515.818 47.3173 515.605 48.896 515.178C50.432 514.709 51.584 514.026 52.352 513.13C53.0773 512.192 53.44 510.997 53.44 509.546C53.44 508.096 53.0773 506.922 52.352 506.026C51.584 505.088 50.432 504.405 48.896 503.978C47.3173 503.552 45.312 503.338 42.88 503.338C40.4053 503.338 38.4 503.552 36.864 503.978C35.328 504.405 34.1973 505.088 33.472 506.026C32.704 506.922 32.32 508.096 32.32 509.546ZM21.76 460.681C21.76 456.884 22.336 453.663 23.488 451.017C24.64 448.372 26.3253 446.367 28.544 445.001C30.7627 443.636 33.472 442.953 36.672 442.953C39.872 442.953 42.5813 443.636 44.8 445.001C47.0187 446.367 48.704 448.372 49.856 451.017C51.008 453.663 51.584 456.884 51.584 460.681V468.169H64V483.081H21.76L21.76 460.681ZM41.024 463.113C41.024 461.492 40.6827 460.212 40 459.273C39.2747 458.335 38.1653 457.865 36.672 457.865C35.1787 457.865 34.0907 458.335 33.408 459.273C32.6827 460.212 32.32 461.492 32.32 463.113V468.169H41.024V463.113ZM64.64 406.854C64.64 410.48 64.0213 413.787 62.784 416.774C61.504 419.718 59.2 422.32 55.872 424.582L49.6 411.782C50.9227 411.44 51.9893 410.886 52.8 410.118C53.6107 409.307 54.016 408.112 54.016 406.534C54.016 405.595 53.8667 404.806 53.568 404.166C53.2693 403.526 52.8 403.035 52.16 402.694C51.52 402.31 50.7307 402.118 49.792 402.118C48.9813 402.118 48.32 402.288 47.808 402.63C47.2533 402.971 46.8267 403.483 46.528 404.166C46.2293 404.848 46.08 405.723 46.08 406.79C46.08 407.558 46.144 408.24 46.272 408.838C46.4 409.435 46.5707 409.968 46.784 410.438C46.9973 410.907 47.2533 411.355 47.552 411.782L45.504 422.662L21.76 419.846L21.76 391.366H32.704V409.414L37.952 410.118L39.296 410.438V410.374C38.3573 409.606 37.6747 408.496 37.248 407.046C36.8213 405.552 36.608 403.974 36.608 402.31C36.608 399.451 37.1627 397.062 38.272 395.142C39.3387 393.179 40.7893 391.686 42.624 390.662C44.4587 389.638 46.5493 389.126 48.896 389.126C51.7547 389.126 54.1867 389.616 56.192 390.598C58.1973 391.579 59.8187 392.923 61.056 394.63C62.2933 396.336 63.2107 398.235 63.808 400.326C64.3627 402.416 64.64 404.592 64.64 406.854Z" fill="black" fill-opacity="0.2"/>
<path d="M21.76 283.747H64V296.739H49.344L35.136 296.547V296.739L64 304.931V316.835L35.136 324.899V325.155L49.344 324.963H64V338.019H21.76V317.155L40.512 312.291L48.384 310.435V310.307L40.512 308.451L21.76 303.587L21.76 283.747ZM21.76 235.475L49.344 250.259H64V265.171H49.344L21.76 279.955V265.107L31.424 260.627L39.104 257.619L31.424 254.611L21.76 250.131V235.475ZM21.76 178.22H32.704V191.404H64V206.316H32.704V219.564H21.76V178.22ZM21.12 155.546C21.12 151.066 21.9733 147.226 23.68 144.026C25.3867 140.826 27.8613 138.373 31.104 136.666C34.3467 134.96 38.272 134.106 42.88 134.106C47.488 134.106 51.4133 134.96 54.656 136.666C57.8987 138.373 60.3733 140.826 62.08 144.026C63.7867 147.226 64.64 151.066 64.64 155.546C64.64 159.984 63.7867 163.824 62.08 167.066C60.3733 170.266 57.8987 172.741 54.656 174.49C51.4133 176.197 47.488 177.05 42.88 177.05C38.272 177.05 34.3467 176.197 31.104 174.49C27.8613 172.741 25.3867 170.266 23.68 167.066C21.9733 163.824 21.12 159.984 21.12 155.546ZM32.32 155.546C32.32 156.997 32.704 158.192 33.472 159.13C34.1973 160.026 35.328 160.709 36.864 161.178C38.4 161.605 40.4053 161.818 42.88 161.818C45.312 161.818 47.3173 161.605 48.896 161.178C50.432 160.709 51.584 160.026 52.352 159.13C53.0773 158.192 53.44 156.997 53.44 155.546C53.44 154.096 53.0773 152.922 52.352 152.026C51.584 151.088 50.432 150.405 48.896 149.978C47.3173 149.552 45.312 149.338 42.88 149.338C40.4053 149.338 38.4 149.552 36.864 149.978C35.328 150.405 34.1973 151.088 33.472 152.026C32.704 152.922 32.32 154.096 32.32 155.546ZM21.76 106.681C21.76 102.884 22.336 99.6626 23.488 97.0173C24.64 94.3719 26.3253 92.3666 28.544 91.0012C30.7627 89.6359 33.472 88.9532 36.672 88.9532C39.872 88.9532 42.5813 89.6359 44.8 91.0012C47.0187 92.3666 48.704 94.3719 49.856 97.0173C51.008 99.6626 51.584 102.884 51.584 106.681V114.169H64V129.081H21.76L21.76 106.681ZM41.024 109.113C41.024 107.492 40.6827 106.212 40 105.273C39.2747 104.335 38.1653 103.865 36.672 103.865C35.1787 103.865 34.0907 104.335 33.408 105.273C32.6827 106.212 32.32 107.492 32.32 109.113V114.169H41.024V109.113ZM64.64 52.8537C64.64 56.4804 64.0213 59.7871 62.784 62.7737C61.504 65.7177 59.2 68.3204 55.872 70.5817L49.6 57.7817C50.9227 57.4404 51.9893 56.8857 52.8 56.1177C53.6107 55.3071 54.016 54.1124 54.016 52.5337C54.016 51.5951 53.8667 50.8057 53.568 50.1657C53.2693 49.5257 52.8 49.0351 52.16 48.6937C51.52 48.3097 50.7307 48.1177 49.792 48.1177C48.9813 48.1177 48.32 48.2884 47.808 48.6297C47.2533 48.9711 46.8267 49.4831 46.528 50.1657C46.2293 50.8484 46.08 51.7231 46.08 52.7897C46.08 53.5577 46.144 54.2404 46.272 54.8377C46.4 55.4351 46.5707 55.9684 46.784 56.4377C46.9973 56.9071 47.2533 57.3551 47.552 57.7817L45.504 68.6617L21.76 65.8457L21.76 37.3657H32.704V55.4137L37.952 56.1177L39.296 56.4377V56.3737C38.3573 55.6057 37.6747 54.4964 37.248 53.0457C36.8213 51.5524 36.608 49.9737 36.608 48.3097C36.608 45.4511 37.1627 43.0617 38.272 41.1417C39.3387 39.1791 40.7893 37.6857 42.624 36.6617C44.4587 35.6377 46.5493 35.1257 48.896 35.1257C51.7547 35.1257 54.1867 35.6164 56.192 36.5977C58.1973 37.5791 59.8187 38.9231 61.056 40.6297C62.2933 42.3364 63.2107 44.2351 63.808 46.3257C64.3627 48.4164 64.64 50.5924 64.64 52.8537Z" fill="#60FF39"/>
<path d="M21.76 283.747H64V296.739H49.344L35.136 296.547V296.739L64 304.931V316.835L35.136 324.899V325.155L49.344 324.963H64V338.019H21.76V317.155L40.512 312.291L48.384 310.435V310.307L40.512 308.451L21.76 303.587L21.76 283.747ZM21.76 235.475L49.344 250.259H64V265.171H49.344L21.76 279.955V265.107L31.424 260.627L39.104 257.619L31.424 254.611L21.76 250.131V235.475ZM21.76 178.22H32.704V191.404H64V206.316H32.704V219.564H21.76V178.22ZM21.12 155.546C21.12 151.066 21.9733 147.226 23.68 144.026C25.3867 140.826 27.8613 138.373 31.104 136.666C34.3467 134.96 38.272 134.106 42.88 134.106C47.488 134.106 51.4133 134.96 54.656 136.666C57.8987 138.373 60.3733 140.826 62.08 144.026C63.7867 147.226 64.64 151.066 64.64 155.546C64.64 159.984 63.7867 163.824 62.08 167.066C60.3733 170.266 57.8987 172.741 54.656 174.49C51.4133 176.197 47.488 177.05 42.88 177.05C38.272 177.05 34.3467 176.197 31.104 174.49C27.8613 172.741 25.3867 170.266 23.68 167.066C21.9733 163.824 21.12 159.984 21.12 155.546ZM32.32 155.546C32.32 156.997 32.704 158.192 33.472 159.13C34.1973 160.026 35.328 160.709 36.864 161.178C38.4 161.605 40.4053 161.818 42.88 161.818C45.312 161.818 47.3173 161.605 48.896 161.178C50.432 160.709 51.584 160.026 52.352 159.13C53.0773 158.192 53.44 156.997 53.44 155.546C53.44 154.096 53.0773 152.922 52.352 152.026C51.584 151.088 50.432 150.405 48.896 149.978C47.3173 149.552 45.312 149.338 42.88 149.338C40.4053 149.338 38.4 149.552 36.864 149.978C35.328 150.405 34.1973 151.088 33.472 152.026C32.704 152.922 32.32 154.096 32.32 155.546ZM21.76 106.681C21.76 102.884 22.336 99.6626 23.488 97.0173C24.64 94.3719 26.3253 92.3666 28.544 91.0012C30.7627 89.6359 33.472 88.9532 36.672 88.9532C39.872 88.9532 42.5813 89.6359 44.8 91.0012C47.0187 92.3666 48.704 94.3719 49.856 97.0173C51.008 99.6626 51.584 102.884 51.584 106.681V114.169H64V129.081H21.76L21.76 106.681ZM41.024 109.113C41.024 107.492 40.6827 106.212 40 105.273C39.2747 104.335 38.1653 103.865 36.672 103.865C35.1787 103.865 34.0907 104.335 33.408 105.273C32.6827 106.212 32.32 107.492 32.32 109.113V114.169H41.024V109.113ZM64.64 52.8537C64.64 56.4804 64.0213 59.7871 62.784 62.7737C61.504 65.7177 59.2 68.3204 55.872 70.5817L49.6 57.7817C50.9227 57.4404 51.9893 56.8857 52.8 56.1177C53.6107 55.3071 54.016 54.1124 54.016 52.5337C54.016 51.5951 53.8667 50.8057 53.568 50.1657C53.2693 49.5257 52.8 49.0351 52.16 48.6937C51.52 48.3097 50.7307 48.1177 49.792 48.1177C48.9813 48.1177 48.32 48.2884 47.808 48.6297C47.2533 48.9711 46.8267 49.4831 46.528 50.1657C46.2293 50.8484 46.08 51.7231 46.08 52.7897C46.08 53.5577 46.144 54.2404 46.272 54.8377C46.4 55.4351 46.5707 55.9684 46.784 56.4377C46.9973 56.9071 47.2533 57.3551 47.552 57.7817L45.504 68.6617L21.76 65.8457L21.76 37.3657H32.704V55.4137L37.952 56.1177L39.296 56.4377V56.3737C38.3573 55.6057 37.6747 54.4964 37.248 53.0457C36.8213 51.5524 36.608 49.9737 36.608 48.3097C36.608 45.4511 37.1627 43.0617 38.272 41.1417C39.3387 39.1791 40.7893 37.6857 42.624 36.6617C44.4587 35.6377 46.5493 35.1257 48.896 35.1257C51.7547 35.1257 54.1867 35.6164 56.192 36.5977C58.1973 37.5791 59.8187 38.9231 61.056 40.6297C62.2933 42.3364 63.2107 44.2351 63.808 46.3257C64.3627 48.4164 64.64 50.5924 64.64 52.8537Z" fill="black" fill-opacity="0.2"/>
<path d="M42.966 365.747L40.45 368.739L36.506 371.833L33.344 367.481L37.526 364.693L41.096 363.231L42.014 364.489L42.966 365.747ZM42.966 363.231L42.014 364.489L41.096 365.747L37.526 364.285L33.344 361.497L36.506 357.145L40.45 360.273L42.966 363.231ZM47.318 356.975L45.55 361.667L43.51 364.965L42.014 364.489L40.552 364.013L40.824 360.137L42.184 355.309L47.318 356.975ZM50.82 367.175L45.822 366.971L42.014 366.053V364.489V362.925L45.822 362.007L50.82 361.803V367.175ZM47.318 372.037L42.184 373.703L40.824 368.841L40.552 364.965L42.014 364.489L43.51 364.013L45.55 367.311L47.318 372.037Z" fill="white"/>
</svg>
